G04*
G04 #@! TF.GenerationSoftware,Altium Limited,Altium Designer,24.3.1 (35)*
G04*
G04 Layer_Color=8388736*
%FSLAX26Y26*%
%MOIN*%
G70*
G04*
G04 #@! TF.SameCoordinates,DB0C34DD-40E0-41A4-B204-7B3182439FE1*
G04*
G04*
G04 #@! TF.FilePolarity,Negative*
G04*
G01*
G75*
%ADD30R,0.011811X0.045276*%
%ADD31R,0.023622X0.045276*%
%ADD32R,0.085827X0.078740*%
%ADD33R,0.029848X0.031974*%
%ADD34R,0.048032X0.049213*%
%ADD35R,0.031974X0.029848*%
G04:AMPARAMS|DCode=36|XSize=64.41mil|YSize=24.609mil|CornerRadius=12.304mil|HoleSize=0mil|Usage=FLASHONLY|Rotation=90.000|XOffset=0mil|YOffset=0mil|HoleType=Round|Shape=RoundedRectangle|*
%AMROUNDEDRECTD36*
21,1,0.064410,0.000000,0,0,90.0*
21,1,0.039802,0.024609,0,0,90.0*
1,1,0.024609,0.000000,0.019901*
1,1,0.024609,0.000000,-0.019901*
1,1,0.024609,0.000000,-0.019901*
1,1,0.024609,0.000000,0.019901*
%
%ADD36ROUNDEDRECTD36*%
%ADD37R,0.024609X0.064410*%
G04:AMPARAMS|DCode=41|XSize=52.688mil|YSize=22.754mil|CornerRadius=11.377mil|HoleSize=0mil|Usage=FLASHONLY|Rotation=270.000|XOffset=0mil|YOffset=0mil|HoleType=Round|Shape=RoundedRectangle|*
%AMROUNDEDRECTD41*
21,1,0.052688,0.000000,0,0,270.0*
21,1,0.029934,0.022754,0,0,270.0*
1,1,0.022754,0.000000,-0.014967*
1,1,0.022754,0.000000,0.014967*
1,1,0.022754,0.000000,0.014967*
1,1,0.022754,0.000000,-0.014967*
%
%ADD41ROUNDEDRECTD41*%
%ADD42R,0.022754X0.052688*%
%ADD43R,0.035433X0.025591*%
%ADD45R,0.043545X0.037725*%
%ADD46R,0.025591X0.029528*%
%ADD47R,0.033785X0.031974*%
%ADD49R,0.039848X0.045498*%
%ADD50R,0.035433X0.029528*%
%ADD53R,0.039370X0.021654*%
%ADD60R,0.086614X0.110236*%
G04:AMPARAMS|DCode=61|XSize=33.9mil|YSize=9.421mil|CornerRadius=4.71mil|HoleSize=0mil|Usage=FLASHONLY|Rotation=90.000|XOffset=0mil|YOffset=0mil|HoleType=Round|Shape=RoundedRectangle|*
%AMROUNDEDRECTD61*
21,1,0.033900,0.000000,0,0,90.0*
21,1,0.024480,0.009421,0,0,90.0*
1,1,0.009421,0.000000,0.012240*
1,1,0.009421,0.000000,-0.012240*
1,1,0.009421,0.000000,-0.012240*
1,1,0.009421,0.000000,0.012240*
%
%ADD61ROUNDEDRECTD61*%
%ADD62R,0.009421X0.033900*%
%ADD63R,0.025591X0.035433*%
%ADD64R,0.143701X0.045276*%
%ADD65R,0.139764X0.064961*%
%ADD66R,0.076772X0.076772*%
G04:AMPARAMS|DCode=67|XSize=129.921mil|YSize=62.992mil|CornerRadius=4.951mil|HoleSize=0mil|Usage=FLASHONLY|Rotation=270.000|XOffset=0mil|YOffset=0mil|HoleType=Round|Shape=RoundedRectangle|*
%AMROUNDEDRECTD67*
21,1,0.129921,0.053091,0,0,270.0*
21,1,0.120020,0.062992,0,0,270.0*
1,1,0.009902,-0.026545,-0.060010*
1,1,0.009902,-0.026545,0.060010*
1,1,0.009902,0.026545,0.060010*
1,1,0.009902,0.026545,-0.060010*
%
%ADD67ROUNDEDRECTD67*%
G04:AMPARAMS|DCode=68|XSize=41.339mil|YSize=62.992mil|CornerRadius=4.902mil|HoleSize=0mil|Usage=FLASHONLY|Rotation=270.000|XOffset=0mil|YOffset=0mil|HoleType=Round|Shape=RoundedRectangle|*
%AMROUNDEDRECTD68*
21,1,0.041339,0.053189,0,0,270.0*
21,1,0.031535,0.062992,0,0,270.0*
1,1,0.009803,-0.026594,-0.015768*
1,1,0.009803,-0.026594,0.015768*
1,1,0.009803,0.026594,0.015768*
1,1,0.009803,0.026594,-0.015768*
%
%ADD68ROUNDEDRECTD68*%
%ADD69R,0.047244X0.041339*%
%ADD70R,0.047244X0.049213*%
%ADD71R,0.161417X0.161417*%
%ADD72R,0.035433X0.011417*%
%ADD73R,0.011417X0.035433*%
%ADD74R,0.039370X0.035433*%
%ADD75R,0.037402X0.043307*%
%ADD76R,0.041339X0.033465*%
%ADD77R,0.059055X0.029528*%
%ADD78C,0.036890*%
%ADD79R,0.035433X0.039370*%
%ADD80R,0.053150X0.053150*%
%ADD81R,0.015748X0.015748*%
%ADD82R,0.021654X0.037402*%
%ADD83R,0.037402X0.021654*%
%ADD84R,0.037402X0.037402*%
%ADD85R,0.062992X0.055118*%
%ADD86C,0.025591*%
%ADD87C,0.202756*%
%ADD88C,0.044921*%
%ADD89C,0.029528*%
D30*
X3753898Y1638882D02*
D03*
X3734213D02*
D03*
X3714528D02*
D03*
X3694843D02*
D03*
X3675157D02*
D03*
X3655472D02*
D03*
X3635787D02*
D03*
X3616102D02*
D03*
D31*
X3779488D02*
D03*
X3590512D02*
D03*
X3810984D02*
D03*
X3559016D02*
D03*
D32*
X3886181Y1616244D02*
D03*
X3483819D02*
D03*
X3886181Y1461520D02*
D03*
X3483819D02*
D03*
D33*
X3893315Y3143000D02*
D03*
X3942685D02*
D03*
X3314685Y4342000D02*
D03*
X3265315D02*
D03*
X3314685Y4274000D02*
D03*
X3265315D02*
D03*
X3942370Y3491000D02*
D03*
X3893000D02*
D03*
X3941685Y3435000D02*
D03*
X3892315D02*
D03*
D34*
X3389000Y1513071D02*
D03*
Y1396929D02*
D03*
D35*
X3388000Y1705315D02*
D03*
Y1754685D02*
D03*
D36*
X3273000Y1589917D02*
D03*
X3310402Y1504083D02*
D03*
D37*
X3235598D02*
D03*
D41*
X4052402Y1389054D02*
D03*
X3977598D02*
D03*
Y1476945D02*
D03*
X4015000D02*
D03*
D42*
X4052402D02*
D03*
D43*
X4116000Y1428543D02*
D03*
Y1371457D02*
D03*
D45*
X3793383Y3068000D02*
D03*
X3846617D02*
D03*
X3573617Y3067000D02*
D03*
X3520383D02*
D03*
D46*
X3936685Y3315591D02*
D03*
Y3264409D02*
D03*
X3897315D02*
D03*
Y3315591D02*
D03*
D47*
X3894284Y3380000D02*
D03*
X3939716D02*
D03*
Y3212000D02*
D03*
X3894284D02*
D03*
D49*
X3919000Y3010540D02*
D03*
Y3079460D02*
D03*
D50*
X3918000Y2923622D02*
D03*
Y2876378D02*
D03*
X3719000Y2902622D02*
D03*
Y2855378D02*
D03*
X3652000D02*
D03*
Y2902622D02*
D03*
D53*
X3720000Y3090606D02*
D03*
Y3041394D02*
D03*
X3651000Y3090606D02*
D03*
Y3041394D02*
D03*
D60*
X4085000Y4236488D02*
D03*
Y4047512D02*
D03*
D61*
X3259472Y4093123D02*
D03*
X3279157D02*
D03*
X3298843D02*
D03*
X3318528D02*
D03*
Y3980877D02*
D03*
X3298843D02*
D03*
X3279157D02*
D03*
D62*
X3259472D02*
D03*
D63*
X3561457Y1696000D02*
D03*
X3618543D02*
D03*
X3808543D02*
D03*
X3751457D02*
D03*
D64*
X4074173Y1694630D02*
D03*
Y1773370D02*
D03*
D65*
X4300551Y1602110D02*
D03*
Y1865890D02*
D03*
D66*
X3928063Y1980063D02*
D03*
Y1737937D02*
D03*
X3685937D02*
D03*
Y1980063D02*
D03*
D67*
X3072937Y1778000D02*
D03*
D68*
X3315063Y1868551D02*
D03*
Y1778000D02*
D03*
Y1687449D02*
D03*
D69*
X3389000Y1659000D02*
D03*
Y1601913D02*
D03*
D70*
X3971441Y1543000D02*
D03*
X4026559D02*
D03*
X3725441Y2974000D02*
D03*
X3780559D02*
D03*
X3725441Y2776000D02*
D03*
X3780559D02*
D03*
X3591441Y2974000D02*
D03*
X3646559D02*
D03*
X3591441Y2776000D02*
D03*
X3646559D02*
D03*
D71*
X3686000Y3287000D02*
D03*
D72*
X3565921Y3198417D02*
D03*
Y3218102D02*
D03*
Y3237787D02*
D03*
Y3257472D02*
D03*
Y3277157D02*
D03*
Y3296843D02*
D03*
Y3316528D02*
D03*
Y3336213D02*
D03*
Y3355898D02*
D03*
Y3375583D02*
D03*
X3806079D02*
D03*
Y3355898D02*
D03*
Y3336213D02*
D03*
Y3316528D02*
D03*
Y3296843D02*
D03*
Y3277157D02*
D03*
Y3257472D02*
D03*
Y3237787D02*
D03*
Y3218102D02*
D03*
Y3198417D02*
D03*
D73*
X3597417Y3407079D02*
D03*
X3617102D02*
D03*
X3636787D02*
D03*
X3656472D02*
D03*
X3676157D02*
D03*
X3695843D02*
D03*
X3715528D02*
D03*
X3735213D02*
D03*
X3754898D02*
D03*
X3774583D02*
D03*
Y3166921D02*
D03*
X3754898D02*
D03*
X3735213D02*
D03*
X3715528D02*
D03*
X3695843D02*
D03*
X3676157D02*
D03*
X3656472D02*
D03*
X3636787D02*
D03*
X3617102D02*
D03*
X3597417D02*
D03*
D74*
X3513000Y3213591D02*
D03*
Y3162410D02*
D03*
X3415000Y1967591D02*
D03*
Y1916409D02*
D03*
D75*
X3839575Y2877000D02*
D03*
X3786425D02*
D03*
D76*
X3727000Y2651409D02*
D03*
Y2702590D02*
D03*
X3644000Y2651409D02*
D03*
Y2702590D02*
D03*
D77*
X3586244Y1908000D02*
D03*
X3491756Y1870599D02*
D03*
Y1945402D02*
D03*
D78*
X4281000Y4029000D02*
D03*
X4231000D02*
D03*
X4281000Y4079000D02*
D03*
X4231000D02*
D03*
X4281000Y4129000D02*
D03*
X4231000D02*
D03*
D79*
X4074591Y4333000D02*
D03*
X4023410D02*
D03*
X3315591Y4171000D02*
D03*
X3264410D02*
D03*
X3315591Y4223000D02*
D03*
X3264410D02*
D03*
D80*
X3617575Y4183409D02*
D03*
Y4118449D02*
D03*
X3682535D02*
D03*
X3747496D02*
D03*
Y4183409D02*
D03*
Y4248370D02*
D03*
X3682535D02*
D03*
Y4183409D02*
D03*
D81*
X3617575Y4248370D02*
D03*
D82*
X3448283Y4459000D02*
D03*
X3481748D02*
D03*
X3515213D02*
D03*
X3548677D02*
D03*
X3582142D02*
D03*
X3615606D02*
D03*
X3649071D02*
D03*
X3682535D02*
D03*
X3716000D02*
D03*
X3749465D02*
D03*
X3782929D02*
D03*
X3816394D02*
D03*
X3849858D02*
D03*
X3883323D02*
D03*
X3916787D02*
D03*
Y3907819D02*
D03*
X3883323D02*
D03*
X3849858D02*
D03*
X3816394D02*
D03*
X3782929D02*
D03*
X3749465D02*
D03*
X3716000D02*
D03*
X3682535D02*
D03*
X3649071D02*
D03*
X3615606D02*
D03*
X3582142D02*
D03*
X3548677D02*
D03*
X3515213D02*
D03*
X3481748D02*
D03*
X3448283D02*
D03*
D83*
X3958126Y4417661D02*
D03*
Y4384197D02*
D03*
Y4350732D02*
D03*
Y4317268D02*
D03*
Y4283803D02*
D03*
Y4250338D02*
D03*
Y4216874D02*
D03*
Y4183409D02*
D03*
Y4149945D02*
D03*
Y4116480D02*
D03*
Y4083016D02*
D03*
Y4049551D02*
D03*
Y4016087D02*
D03*
Y3982622D02*
D03*
Y3949157D02*
D03*
X3406945D02*
D03*
Y3982622D02*
D03*
Y4016087D02*
D03*
Y4049551D02*
D03*
Y4083016D02*
D03*
Y4116480D02*
D03*
Y4149945D02*
D03*
Y4183409D02*
D03*
Y4216874D02*
D03*
Y4250338D02*
D03*
Y4283803D02*
D03*
Y4317268D02*
D03*
Y4350732D02*
D03*
Y4384197D02*
D03*
Y4417661D02*
D03*
D84*
X3958126Y3907819D02*
D03*
Y4459000D02*
D03*
X3406945Y3907819D02*
D03*
Y4459000D02*
D03*
D85*
X3289000Y4037000D02*
D03*
D86*
X3798780Y1596559D02*
D03*
X3571220D02*
D03*
D87*
X4255732Y1455614D02*
D03*
X3114000Y4369000D02*
D03*
Y1455614D02*
D03*
X4255732Y4369000D02*
D03*
D88*
X4216000Y3979000D02*
D03*
X4296000D02*
D03*
X4256000Y4179000D02*
D03*
D89*
X3755000Y2933000D02*
D03*
X3619000Y2824000D02*
D03*
X3606000Y2935000D02*
D03*
X3728000Y2277000D02*
D03*
X3630188Y2127300D02*
D03*
X3678324Y1678331D02*
D03*
X3706847Y1680715D02*
D03*
X3085000Y2272000D02*
D03*
X3387000Y1868000D02*
D03*
X3341000Y1585000D02*
D03*
X3267000Y1442000D02*
D03*
X3912000Y1537000D02*
D03*
X3602000Y3959000D02*
D03*
X3574000Y3864000D02*
D03*
X3541000Y3863000D02*
D03*
X3455000Y3974000D02*
D03*
X3713579Y3969000D02*
D03*
X3684957D02*
D03*
X3348000Y4392000D02*
D03*
X4010000Y4277000D02*
D03*
X3228000Y4138000D02*
D03*
X3488000Y4104000D02*
D03*
X3357000Y4170000D02*
D03*
X3448000Y4148000D02*
D03*
X4151000Y4236000D02*
D03*
X4190000Y4113000D02*
D03*
X3626000Y3228000D02*
D03*
X3781000Y2820000D02*
D03*
X3848000Y3453000D02*
D03*
X3831000Y3011000D02*
D03*
X3627000Y3126000D02*
D03*
X3872000Y3012000D02*
D03*
X3827000Y3129000D02*
D03*
M02*
