G04*
G04 #@! TF.GenerationSoftware,Altium Limited,Altium Designer,24.3.1 (35)*
G04*
G04 Layer_Color=255*
%FSLAX26Y26*%
%MOIN*%
G70*
G04*
G04 #@! TF.SameCoordinates,DB0C34DD-40E0-41A4-B204-7B3182439FE1*
G04*
G04*
G04 #@! TF.FilePolarity,Positive*
G04*
G01*
G75*
%ADD86C,0.025591*%
%ADD94C,0.196850*%
%ADD95C,0.039016*%
%ADD97R,0.027559X0.027559*%
D86*
X3798780Y1596559D02*
D03*
X3571220D02*
D03*
D94*
X4255732Y1455614D02*
D03*
X3114000Y4369000D02*
D03*
Y1455614D02*
D03*
X4255732Y4369000D02*
D03*
D95*
X4216000Y3979000D02*
D03*
X4296000D02*
D03*
X4256000Y4179000D02*
D03*
D97*
X3910890Y4068653D02*
D03*
Y4025347D02*
D03*
X3838842D02*
D03*
Y4068653D02*
D03*
X3333890D02*
D03*
Y4025347D02*
D03*
X3261842D02*
D03*
Y4068653D02*
D03*
X3717890D02*
D03*
Y4025347D02*
D03*
X3645842D02*
D03*
Y4068653D02*
D03*
X4102890D02*
D03*
Y4025347D02*
D03*
X4030842D02*
D03*
Y4068653D02*
D03*
X3525890D02*
D03*
Y4025347D02*
D03*
X3453842D02*
D03*
Y4068653D02*
D03*
M02*
