G04*
G04 #@! TF.GenerationSoftware,Altium Limited,Altium Designer,24.3.1 (35)*
G04*
G04 Layer_Color=32768*
%FSLAX26Y26*%
%MOIN*%
G70*
G04*
G04 #@! TF.SameCoordinates,DB0C34DD-40E0-41A4-B204-7B3182439FE1*
G04*
G04*
G04 #@! TF.FilePolarity,Positive*
G04*
G01*
G75*
%ADD11C,0.007874*%
%ADD99C,0.003937*%
%ADD100C,0.001968*%
D11*
X3436968Y1339473D02*
Y1665457D01*
Y1339473D02*
X3933032D01*
Y1665457D01*
X3436968D02*
X3933032D01*
X3961546Y3121347D02*
Y3164653D01*
X3874454D02*
X3961546D01*
X3874454Y3121347D02*
Y3164653D01*
Y3121347D02*
X3961546D01*
X3349630Y1368386D02*
X3428370D01*
Y1541614D01*
X3349630D02*
X3428370D01*
X3349630Y1368386D02*
Y1541614D01*
X3246454Y4320346D02*
Y4363654D01*
Y4320346D02*
X3333546D01*
Y4363654D01*
X3246454D02*
X3333546D01*
X3246454Y4252346D02*
Y4295654D01*
Y4252346D02*
X3333546D01*
Y4295654D01*
X3246454D02*
X3333546D01*
X3366347Y1773546D02*
X3409653D01*
X3366347Y1686454D02*
Y1773546D01*
Y1686454D02*
X3409653D01*
Y1773546D01*
X3874139Y3469347D02*
Y3512653D01*
Y3469347D02*
X3961231D01*
Y3512653D01*
X3874139D02*
X3961231D01*
X3873454Y3413347D02*
Y3456653D01*
Y3413347D02*
X3960546D01*
Y3456653D01*
X3873454D02*
X3960546D01*
X3195835Y1452193D02*
X3350165D01*
Y1641807D01*
X3195835D02*
X3350165D01*
X3195835Y1452193D02*
Y1641807D01*
X3948071Y1513132D02*
X4081929D01*
X3948071Y1352868D02*
Y1513132D01*
Y1352868D02*
X4081929D01*
Y1513132D01*
X4093362Y1354724D02*
X4138638D01*
Y1445276D01*
X4093362D02*
X4138638D01*
X4093362Y1354724D02*
Y1445276D01*
X3543284Y3144284D02*
X3828716D01*
Y3429716D01*
X3543284D02*
X3828716D01*
X3543284Y3144284D02*
Y3429716D01*
X3878233Y3039295D02*
Y3096705D01*
X3761767D02*
X3878233D01*
X3761767Y3039295D02*
Y3096705D01*
Y3039295D02*
X3878233D01*
X3878614Y3336260D02*
X3955386D01*
X3878614Y3243740D02*
Y3336260D01*
Y3243740D02*
X3955386D01*
Y3336260D01*
X3960546Y3358347D02*
Y3401653D01*
X3873454D02*
X3960546D01*
X3873454Y3358347D02*
Y3401653D01*
Y3358347D02*
X3960546D01*
X3873454Y3190347D02*
Y3233653D01*
Y3190347D02*
X3960546D01*
Y3233653D01*
X3873454D02*
X3960546D01*
X3488767Y3038295D02*
Y3095705D01*
Y3038295D02*
X3605233D01*
Y3095705D01*
X3488767D02*
X3605233D01*
X3879391Y3121894D02*
X3958609D01*
X3879391Y2968106D02*
Y3121894D01*
Y2968106D02*
X3958609D01*
Y3121894D01*
X3894378Y2852756D02*
X3941622D01*
Y2947244D01*
X3894378D02*
X3941622D01*
X3894378Y2852756D02*
Y2947244D01*
X3695378Y2831756D02*
X3742622D01*
Y2926244D01*
X3695378D02*
X3742622D01*
X3695378Y2831756D02*
Y2926244D01*
X3696378Y3026630D02*
X3743622D01*
Y3105370D01*
X3696378D02*
X3743622D01*
X3696378Y3026630D02*
Y3105370D01*
X3627378Y3026630D02*
X3674622D01*
Y3105370D01*
X3627378D02*
X3674622D01*
X3627378Y3026630D02*
Y3105370D01*
X3628378Y2926244D02*
X3675622D01*
X3628378Y2831756D02*
Y2926244D01*
Y2831756D02*
X3675622D01*
Y2926244D01*
X4006260Y3988457D02*
X4163740D01*
Y4295543D01*
X4006260D02*
X4163740D01*
X4006260Y3988457D02*
Y4295543D01*
X3239787Y3954084D02*
X3338213D01*
Y4119916D01*
X3239787D02*
X3338213D01*
X3239787Y3954084D02*
Y4119916D01*
X3635276Y1673362D02*
Y1718638D01*
X3544724D02*
X3635276D01*
X3544724Y1673362D02*
Y1718638D01*
Y1673362D02*
X3635276D01*
X3734724D02*
Y1718638D01*
Y1673362D02*
X3825276D01*
Y1718638D01*
X3734724D02*
X3825276D01*
D99*
X4190315Y1734000D02*
X4229685D01*
X4210000Y1714315D02*
Y1753685D01*
X3369315Y1455000D02*
X3408685D01*
X3389000Y1435315D02*
Y1474685D01*
X3194000Y1758315D02*
Y1797685D01*
X3174315Y1778000D02*
X3213685D01*
X3389000Y1611756D02*
Y1649158D01*
X3370299Y1630457D02*
X3407701D01*
X3999000Y1524299D02*
Y1561701D01*
X3980299Y1543000D02*
X4017701D01*
X3513000Y3169299D02*
Y3206701D01*
X3494299Y3188000D02*
X3531701D01*
X3794299Y2877000D02*
X3831701D01*
X3813000Y2858299D02*
Y2895701D01*
X3727000Y2657315D02*
Y2696685D01*
X3707315Y2677000D02*
X3746685D01*
X3753000Y2955299D02*
Y2992701D01*
X3734299Y2974000D02*
X3771701D01*
X3753000Y2757299D02*
Y2794701D01*
X3734299Y2776000D02*
X3771701D01*
X3619000Y2955299D02*
Y2992701D01*
X3600299Y2974000D02*
X3637701D01*
X3619000Y2757299D02*
Y2794701D01*
X3600299Y2776000D02*
X3637701D01*
X3644000Y2657315D02*
Y2696685D01*
X3624315Y2677000D02*
X3663685D01*
X3415000Y1923299D02*
Y1960701D01*
X3396299Y1942000D02*
X3433701D01*
X3539000Y1888315D02*
Y1927685D01*
X3519315Y1908000D02*
X3558685D01*
X4030299Y4333000D02*
X4067701D01*
X4049000Y4314299D02*
Y4351701D01*
X3271299Y4171000D02*
X3308701D01*
X3290000Y4152299D02*
Y4189701D01*
X3271299Y4223000D02*
X3308701D01*
X3290000Y4204299D02*
Y4241701D01*
D100*
X4371417Y1568646D02*
Y1899354D01*
X4001339D02*
X4371417D01*
X4001339Y1568646D02*
Y1899354D01*
Y1568646D02*
X4371417D01*
X3973339Y1692661D02*
Y2025339D01*
X3640661Y1692661D02*
X3973339D01*
X3640661D02*
Y2025339D01*
X3973339D01*
X3040457Y1913827D02*
X3347543D01*
X3040457Y1642173D02*
X3347543D01*
X3040457D02*
Y1913827D01*
X3347543Y1642173D02*
Y1913827D01*
X3347661Y1697386D02*
X3430339D01*
X3347661Y1563528D02*
X3430339D01*
Y1697386D01*
X3347661Y1563528D02*
Y1697386D01*
X3932071Y1584339D02*
X4065929D01*
X3932071Y1501661D02*
X4065929D01*
X3932071D02*
Y1584339D01*
X4065929Y1501661D02*
Y1584339D01*
X3489378Y3233276D02*
X3536622D01*
X3489378Y3142724D02*
X3536622D01*
Y3233276D01*
X3489378Y3142724D02*
Y3233276D01*
X3866150Y2847472D02*
Y2906528D01*
X3759850Y2847472D02*
Y2906528D01*
Y2847472D02*
X3866150D01*
X3759850Y2906528D02*
X3866150D01*
X3703378Y2633693D02*
X3750622D01*
X3703378Y2720307D02*
X3750622D01*
X3703378Y2633693D02*
Y2720307D01*
X3750622Y2633693D02*
Y2720307D01*
X3686071Y3015339D02*
X3819929D01*
X3686071Y2932662D02*
X3819929D01*
X3686071D02*
Y3015339D01*
X3819929Y2932662D02*
Y3015339D01*
X3686071Y2817339D02*
X3819929D01*
X3686071Y2734662D02*
X3819929D01*
X3686071D02*
Y2817339D01*
X3819929Y2734662D02*
Y2817339D01*
X3552071Y3015339D02*
X3685929D01*
X3552071Y2932662D02*
X3685929D01*
X3552071D02*
Y3015339D01*
X3685929Y2932662D02*
Y3015339D01*
X3552071Y2817339D02*
X3685929D01*
X3552071Y2734662D02*
X3685929D01*
X3552071D02*
Y2817339D01*
X3685929Y2734662D02*
Y2817339D01*
X3620378Y2633693D02*
X3667622D01*
X3620378Y2720307D02*
X3667622D01*
X3620378Y2633693D02*
Y2720307D01*
X3667622Y2633693D02*
Y2720307D01*
X3391378Y1987276D02*
X3438622D01*
X3391378Y1896725D02*
X3438622D01*
Y1987276D01*
X3391378Y1896725D02*
Y1987276D01*
X3445496Y1829260D02*
X3632504D01*
X3445496Y1986740D02*
X3632504D01*
Y1829260D02*
Y1986740D01*
X3445496Y1829260D02*
Y1986740D01*
X4094276Y4309378D02*
Y4356622D01*
X4003724Y4309378D02*
Y4356622D01*
Y4309378D02*
X4094276D01*
X4003724Y4356622D02*
X4094276D01*
X3369543Y4696205D02*
X3995528D01*
Y3869433D02*
Y4696205D01*
X3369543Y3869433D02*
X3995528D01*
X3369543D02*
Y4696205D01*
X3335276Y4147378D02*
Y4194622D01*
X3244724Y4147378D02*
Y4194622D01*
Y4147378D02*
X3335276D01*
X3244724Y4194622D02*
X3335276D01*
Y4199378D02*
Y4246622D01*
X3244724Y4199378D02*
Y4246622D01*
Y4199378D02*
X3335276D01*
X3244724Y4246622D02*
X3335276D01*
M02*
