G04*
G04 #@! TF.GenerationSoftware,Altium Limited,Altium Designer,24.3.1 (35)*
G04*
G04 Layer_Physical_Order=1*
G04 Layer_Color=255*
%FSLAX26Y26*%
%MOIN*%
G70*
G04*
G04 #@! TF.SameCoordinates,DB0C34DD-40E0-41A4-B204-7B3182439FE1*
G04*
G04*
G04 #@! TF.FilePolarity,Positive*
G04*
G01*
G75*
%ADD12C,0.010000*%
%ADD13C,0.005000*%
%ADD27R,0.137795X0.039370*%
%ADD28R,0.133858X0.059055*%
%ADD29R,0.070866X0.070866*%
%ADD30R,0.011811X0.045276*%
%ADD31R,0.023622X0.045276*%
%ADD32R,0.085827X0.078740*%
%ADD33R,0.029848X0.031974*%
%ADD34R,0.048032X0.049213*%
%ADD35R,0.031974X0.029848*%
G04:AMPARAMS|DCode=36|XSize=64.41mil|YSize=24.609mil|CornerRadius=12.304mil|HoleSize=0mil|Usage=FLASHONLY|Rotation=90.000|XOffset=0mil|YOffset=0mil|HoleType=Round|Shape=RoundedRectangle|*
%AMROUNDEDRECTD36*
21,1,0.064410,0.000000,0,0,90.0*
21,1,0.039802,0.024609,0,0,90.0*
1,1,0.024609,0.000000,0.019901*
1,1,0.024609,0.000000,-0.019901*
1,1,0.024609,0.000000,-0.019901*
1,1,0.024609,0.000000,0.019901*
%
%ADD36ROUNDEDRECTD36*%
%ADD37R,0.024609X0.064410*%
G04:AMPARAMS|DCode=38|XSize=124.016mil|YSize=57.087mil|CornerRadius=1.998mil|HoleSize=0mil|Usage=FLASHONLY|Rotation=270.000|XOffset=0mil|YOffset=0mil|HoleType=Round|Shape=RoundedRectangle|*
%AMROUNDEDRECTD38*
21,1,0.124016,0.053091,0,0,270.0*
21,1,0.120020,0.057087,0,0,270.0*
1,1,0.003996,-0.026545,-0.060010*
1,1,0.003996,-0.026545,0.060010*
1,1,0.003996,0.026545,0.060010*
1,1,0.003996,0.026545,-0.060010*
%
%ADD38ROUNDEDRECTD38*%
G04:AMPARAMS|DCode=39|XSize=35.433mil|YSize=57.087mil|CornerRadius=1.949mil|HoleSize=0mil|Usage=FLASHONLY|Rotation=270.000|XOffset=0mil|YOffset=0mil|HoleType=Round|Shape=RoundedRectangle|*
%AMROUNDEDRECTD39*
21,1,0.035433,0.053189,0,0,270.0*
21,1,0.031535,0.057087,0,0,270.0*
1,1,0.003898,-0.026594,-0.015768*
1,1,0.003898,-0.026594,0.015768*
1,1,0.003898,0.026594,0.015768*
1,1,0.003898,0.026594,-0.015768*
%
%ADD39ROUNDEDRECTD39*%
%ADD40R,0.041339X0.035433*%
G04:AMPARAMS|DCode=41|XSize=52.688mil|YSize=22.754mil|CornerRadius=11.377mil|HoleSize=0mil|Usage=FLASHONLY|Rotation=270.000|XOffset=0mil|YOffset=0mil|HoleType=Round|Shape=RoundedRectangle|*
%AMROUNDEDRECTD41*
21,1,0.052688,0.000000,0,0,270.0*
21,1,0.029934,0.022754,0,0,270.0*
1,1,0.022754,0.000000,-0.014967*
1,1,0.022754,0.000000,0.014967*
1,1,0.022754,0.000000,0.014967*
1,1,0.022754,0.000000,-0.014967*
%
%ADD41ROUNDEDRECTD41*%
%ADD42R,0.022754X0.052688*%
%ADD43R,0.035433X0.025591*%
%ADD44R,0.041339X0.043307*%
%ADD45R,0.043545X0.037725*%
%ADD46R,0.025591X0.029528*%
%ADD47R,0.033785X0.031974*%
%ADD48R,0.033465X0.029528*%
%ADD49R,0.039848X0.045498*%
%ADD50R,0.035433X0.029528*%
%ADD51R,0.031496X0.037402*%
%ADD52R,0.035433X0.027559*%
%ADD53R,0.039370X0.021654*%
%ADD54R,0.053150X0.023622*%
%ADD55R,0.029528X0.033465*%
%ADD56R,0.047244X0.047244*%
%ADD57R,0.015748X0.031496*%
%ADD58R,0.031496X0.015748*%
%ADD59R,0.031496X0.031496*%
%ADD60R,0.086614X0.110236*%
G04:AMPARAMS|DCode=61|XSize=33.9mil|YSize=9.421mil|CornerRadius=4.71mil|HoleSize=0mil|Usage=FLASHONLY|Rotation=90.000|XOffset=0mil|YOffset=0mil|HoleType=Round|Shape=RoundedRectangle|*
%AMROUNDEDRECTD61*
21,1,0.033900,0.000000,0,0,90.0*
21,1,0.024480,0.009421,0,0,90.0*
1,1,0.009421,0.000000,0.012240*
1,1,0.009421,0.000000,-0.012240*
1,1,0.009421,0.000000,-0.012240*
1,1,0.009421,0.000000,0.012240*
%
%ADD61ROUNDEDRECTD61*%
%ADD62R,0.009421X0.033900*%
%ADD63R,0.025591X0.035433*%
%ADD71R,0.161417X0.161417*%
%ADD72R,0.035433X0.011417*%
%ADD73R,0.011417X0.035433*%
%ADD81R,0.015748X0.015748*%
%ADD85R,0.062992X0.055118*%
%ADD86C,0.025591*%
%ADD90C,0.030984*%
%ADD91C,0.020000*%
%ADD92C,0.015000*%
%ADD93C,0.008000*%
%ADD94C,0.196850*%
%ADD95C,0.039016*%
%ADD96C,0.023622*%
G36*
X4274522Y4480585D02*
X4288460Y4476850D01*
X4301793Y4471327D01*
X4314289Y4464113D01*
X4325738Y4455328D01*
X4335942Y4445124D01*
X4344727Y4433676D01*
X4351941Y4421179D01*
X4357464Y4407846D01*
X4359104Y4401725D01*
X4354309Y4400305D01*
X4351580Y4408702D01*
X4344190Y4423207D01*
X4334621Y4436377D01*
X4323109Y4447888D01*
X4309939Y4457457D01*
X4295434Y4464848D01*
X4279951Y4469878D01*
X4263872Y4472425D01*
X4258232D01*
Y4369000D01*
Y4265575D01*
X4263872D01*
X4279951Y4268122D01*
X4295434Y4273152D01*
X4309939Y4280543D01*
X4323109Y4290112D01*
X4334621Y4301623D01*
X4344190Y4314793D01*
X4351580Y4329298D01*
X4356611Y4344781D01*
X4358082Y4354072D01*
X4363082Y4353679D01*
Y1900417D01*
X4303051D01*
Y1865890D01*
Y1831362D01*
X4363082D01*
Y1636638D01*
X4303051D01*
Y1602110D01*
Y1567583D01*
X4363082D01*
Y1470935D01*
X4358082Y1470542D01*
X4356611Y1479833D01*
X4351580Y1495316D01*
X4344190Y1509821D01*
X4334621Y1522991D01*
X4323109Y1534503D01*
X4309939Y1544071D01*
X4295434Y1551462D01*
X4279951Y1556493D01*
X4263872Y1559039D01*
X4258232D01*
Y1455614D01*
X4255732D01*
Y1453114D01*
X4152307D01*
Y1447475D01*
X4154854Y1431395D01*
X4159884Y1415913D01*
X4167275Y1401408D01*
X4176844Y1388237D01*
X4188355Y1376726D01*
X4201526Y1367157D01*
X4216031Y1359766D01*
X4231514Y1354736D01*
X4236679Y1353918D01*
X4236285Y1348918D01*
X4139335D01*
X4138717Y1353661D01*
X4138717Y1353918D01*
Y1389252D01*
X4093284D01*
Y1381653D01*
X4069100D01*
Y1404021D01*
X4067829Y1410411D01*
X4064209Y1415829D01*
X4058792Y1419448D01*
X4052402Y1420719D01*
X4046012Y1419448D01*
X4040594Y1415829D01*
X4036975Y1410411D01*
X4035704Y1404021D01*
Y1374088D01*
X4036975Y1367698D01*
X4040594Y1362280D01*
X4046012Y1358661D01*
X4052402Y1357390D01*
X4058792Y1358661D01*
X4062683Y1361261D01*
X4093284D01*
Y1353918D01*
X4093283Y1353661D01*
X4092665Y1348918D01*
X3133447D01*
X3133054Y1353918D01*
X3138219Y1354736D01*
X3153702Y1359766D01*
X3168207Y1367157D01*
X3181377Y1376726D01*
X3192888Y1388237D01*
X3202457Y1401408D01*
X3209848Y1415913D01*
X3214878Y1431395D01*
X3217425Y1447475D01*
Y1453114D01*
X3010575D01*
Y1447475D01*
X3013122Y1431395D01*
X3018152Y1415913D01*
X3025543Y1401408D01*
X3035112Y1388237D01*
X3046623Y1376726D01*
X3058300Y1368242D01*
X3055573Y1364043D01*
X3049978Y1367273D01*
X3038530Y1376058D01*
X3028325Y1386262D01*
X3019541Y1397710D01*
X3012326Y1410207D01*
X3006803Y1423540D01*
X3003069Y1437478D01*
X3001185Y1451784D01*
Y1459000D01*
Y4372386D01*
Y4379601D01*
X3003069Y4393908D01*
X3006803Y4407846D01*
X3012326Y4421179D01*
X3019541Y4433675D01*
X3028325Y4445124D01*
X3038530Y4455328D01*
X3049978Y4464113D01*
X3062475Y4471327D01*
X3075807Y4476850D01*
X3089745Y4480585D01*
X3104052Y4482468D01*
X3382323D01*
X3386197Y4479748D01*
X3386197Y4477468D01*
Y4461500D01*
X3427693D01*
Y4477468D01*
X3427693Y4479748D01*
X3431551Y4482458D01*
X3435409Y4479748D01*
X3435409Y4477468D01*
Y4461500D01*
X3461157D01*
Y4477468D01*
X3461157Y4479748D01*
X3465016Y4482458D01*
X3468874Y4479748D01*
X3468874Y4477468D01*
Y4461500D01*
X3494622D01*
Y4477468D01*
X3494622Y4479748D01*
X3498480Y4482458D01*
X3502338Y4479748D01*
X3502339Y4477468D01*
Y4461500D01*
X3528087D01*
Y4477468D01*
X3528087Y4479748D01*
X3531945Y4482458D01*
X3535803Y4479748D01*
X3535803Y4477468D01*
Y4461500D01*
X3561551D01*
Y4477468D01*
X3561551Y4479748D01*
X3565409Y4482458D01*
X3569268Y4479748D01*
X3569268Y4477468D01*
Y4461500D01*
X3595016D01*
Y4477468D01*
X3595016Y4479748D01*
X3598874Y4482458D01*
X3602732Y4479748D01*
X3602732Y4477468D01*
Y4461500D01*
X3628480D01*
Y4477468D01*
X3628480Y4479748D01*
X3632338Y4482458D01*
X3636197Y4479748D01*
X3636197Y4477468D01*
Y4461500D01*
X3661945D01*
Y4477468D01*
X3661945Y4479748D01*
X3665803Y4482458D01*
X3669661Y4479748D01*
X3669661Y4477468D01*
Y4461500D01*
X3695409D01*
Y4477468D01*
X3695410Y4479748D01*
X3699268Y4482458D01*
X3703126Y4479748D01*
X3703126Y4477468D01*
Y4461500D01*
X3728874D01*
Y4477468D01*
X3728874Y4479748D01*
X3732732Y4482458D01*
X3736590Y4479748D01*
X3736590Y4477468D01*
Y4461500D01*
X3762338D01*
Y4477468D01*
X3762339Y4479748D01*
X3766197Y4482458D01*
X3770055Y4479748D01*
X3770055Y4477468D01*
Y4461500D01*
X3795803D01*
Y4477468D01*
X3795803Y4479748D01*
X3799661Y4482458D01*
X3803520Y4479748D01*
X3803520Y4477468D01*
Y4461500D01*
X3829268D01*
Y4477468D01*
X3829268Y4479748D01*
X3833126Y4482458D01*
X3836984Y4479748D01*
X3836984Y4477468D01*
Y4461500D01*
X3862732D01*
Y4477468D01*
X3862732Y4479748D01*
X3866590Y4482458D01*
X3870449Y4479748D01*
X3870449Y4477468D01*
Y4461500D01*
X3896197D01*
Y4477468D01*
X3896197Y4479748D01*
X3900055Y4482458D01*
X3903913Y4479748D01*
X3903913Y4477468D01*
Y4461500D01*
X3929661D01*
Y4477468D01*
X3929662Y4479748D01*
X3933520Y4482458D01*
X3937378Y4479748D01*
X3937378Y4477468D01*
Y4461500D01*
X3978874D01*
Y4477468D01*
X3978874Y4479748D01*
X3982747Y4482468D01*
X4260215D01*
X4274522Y4480585D01*
D02*
G37*
%LPC*%
G36*
X3978874Y4456500D02*
X3960626D01*
Y4438252D01*
X3978874D01*
Y4456500D01*
D02*
G37*
G36*
X3955626D02*
X3937378D01*
Y4438252D01*
X3955626D01*
Y4456500D01*
D02*
G37*
G36*
X3929661D02*
X3919287D01*
Y4438252D01*
X3929661D01*
Y4456500D01*
D02*
G37*
G36*
X3914287D02*
X3903913D01*
Y4438252D01*
X3914287D01*
Y4456500D01*
D02*
G37*
G36*
X3896197D02*
X3885823D01*
Y4438252D01*
X3896197D01*
Y4456500D01*
D02*
G37*
G36*
X3880823D02*
X3870449D01*
Y4438252D01*
X3880823D01*
Y4456500D01*
D02*
G37*
G36*
X3862732D02*
X3852358D01*
Y4438252D01*
X3862732D01*
Y4456500D01*
D02*
G37*
G36*
X3847358D02*
X3836984D01*
Y4438252D01*
X3847358D01*
Y4456500D01*
D02*
G37*
G36*
X3829268D02*
X3818894D01*
Y4438252D01*
X3829268D01*
Y4456500D01*
D02*
G37*
G36*
X3813894D02*
X3803520D01*
Y4438252D01*
X3813894D01*
Y4456500D01*
D02*
G37*
G36*
X3795803D02*
X3785429D01*
Y4438252D01*
X3795803D01*
Y4456500D01*
D02*
G37*
G36*
X3780429D02*
X3770055D01*
Y4438252D01*
X3780429D01*
Y4456500D01*
D02*
G37*
G36*
X3762338D02*
X3751965D01*
Y4438252D01*
X3762338D01*
Y4456500D01*
D02*
G37*
G36*
X3746965D02*
X3736590D01*
Y4438252D01*
X3746965D01*
Y4456500D01*
D02*
G37*
G36*
X3728874D02*
X3718500D01*
Y4438252D01*
X3728874D01*
Y4456500D01*
D02*
G37*
G36*
X3713500D02*
X3703126D01*
Y4438252D01*
X3713500D01*
Y4456500D01*
D02*
G37*
G36*
X3695409D02*
X3685035D01*
Y4438252D01*
X3695409D01*
Y4456500D01*
D02*
G37*
G36*
X3680035D02*
X3669661D01*
Y4438252D01*
X3680035D01*
Y4456500D01*
D02*
G37*
G36*
X3661945D02*
X3651571D01*
Y4438252D01*
X3661945D01*
Y4456500D01*
D02*
G37*
G36*
X3646571D02*
X3636197D01*
Y4438252D01*
X3646571D01*
Y4456500D01*
D02*
G37*
G36*
X3628480D02*
X3618106D01*
Y4438252D01*
X3628480D01*
Y4456500D01*
D02*
G37*
G36*
X3613106D02*
X3602732D01*
Y4438252D01*
X3613106D01*
Y4456500D01*
D02*
G37*
G36*
X3595016D02*
X3584642D01*
Y4438252D01*
X3595016D01*
Y4456500D01*
D02*
G37*
G36*
X3579642D02*
X3569268D01*
Y4438252D01*
X3579642D01*
Y4456500D01*
D02*
G37*
G36*
X3561551D02*
X3551177D01*
Y4438252D01*
X3561551D01*
Y4456500D01*
D02*
G37*
G36*
X3546177D02*
X3535803D01*
Y4438252D01*
X3546177D01*
Y4456500D01*
D02*
G37*
G36*
X3528087D02*
X3517713D01*
Y4438252D01*
X3528087D01*
Y4456500D01*
D02*
G37*
G36*
X3512713D02*
X3502339D01*
Y4438252D01*
X3512713D01*
Y4456500D01*
D02*
G37*
G36*
X3494622D02*
X3484248D01*
Y4438252D01*
X3494622D01*
Y4456500D01*
D02*
G37*
G36*
X3479248D02*
X3468874D01*
Y4438252D01*
X3479248D01*
Y4456500D01*
D02*
G37*
G36*
X3461157D02*
X3450783D01*
Y4438252D01*
X3461157D01*
Y4456500D01*
D02*
G37*
G36*
X3445783D02*
X3435409D01*
Y4438252D01*
X3445783D01*
Y4456500D01*
D02*
G37*
G36*
X3427693D02*
X3409445D01*
Y4438252D01*
X3427693D01*
Y4456500D01*
D02*
G37*
G36*
X3404445D02*
X3386197D01*
Y4438252D01*
X3404445D01*
Y4456500D01*
D02*
G37*
G36*
X3427693Y4430535D02*
X3409445D01*
Y4420161D01*
X3427693D01*
Y4430535D01*
D02*
G37*
G36*
X3404445D02*
X3386197D01*
Y4420161D01*
X3404445D01*
Y4430535D01*
D02*
G37*
G36*
X3427693Y4415161D02*
X3409445D01*
Y4404787D01*
X3427693D01*
Y4415161D01*
D02*
G37*
G36*
X3404445D02*
X3386197D01*
Y4404787D01*
X3404445D01*
Y4415161D01*
D02*
G37*
G36*
X3427693Y4397071D02*
X3409445D01*
Y4386697D01*
X3427693D01*
Y4397071D01*
D02*
G37*
G36*
X3404445D02*
X3386197D01*
Y4386697D01*
X3404445D01*
Y4397071D01*
D02*
G37*
G36*
X3351344Y4408811D02*
X3344656D01*
X3338477Y4406252D01*
X3334422Y4402196D01*
X3314252D01*
X3310351Y4401420D01*
X3307043Y4399210D01*
X3270820Y4362987D01*
X3245391D01*
Y4321013D01*
X3253804D01*
Y4313858D01*
X3254166Y4312036D01*
Y4294987D01*
X3245391D01*
Y4253013D01*
X3254166D01*
Y4244732D01*
X3244646D01*
Y4219292D01*
X3028988Y4003634D01*
X3026225Y3999499D01*
X3025255Y3994622D01*
Y2264000D01*
X3026225Y2259123D01*
X3028988Y2254988D01*
X3040255Y2243721D01*
Y2050722D01*
X3041225Y2045845D01*
X3043988Y2041710D01*
X3060192Y2025506D01*
Y1845145D01*
X3046392D01*
X3043661Y1844602D01*
X3041346Y1843055D01*
X3039800Y1840740D01*
X3039257Y1838010D01*
Y1717990D01*
X3039800Y1715260D01*
X3041346Y1712945D01*
X3043661Y1711398D01*
X3046392Y1710855D01*
X3099482D01*
X3102213Y1711398D01*
X3104528Y1712945D01*
X3106074Y1715260D01*
X3106617Y1717990D01*
Y1767804D01*
X3281384D01*
Y1762232D01*
X3281923Y1759521D01*
X3283459Y1757223D01*
X3285757Y1755687D01*
X3288468Y1755147D01*
X3341657D01*
X3344369Y1755687D01*
X3346667Y1757223D01*
X3348203Y1759521D01*
X3348742Y1762232D01*
Y1767804D01*
X3359399D01*
X3367013Y1760190D01*
Y1734761D01*
X3408987D01*
Y1744489D01*
X3469836D01*
X3473738Y1745265D01*
X3477046Y1747475D01*
X3538374Y1808804D01*
X3670783D01*
X3674685Y1809580D01*
X3677993Y1811790D01*
X3836070Y1969867D01*
X3887630D01*
Y1939630D01*
X3968496D01*
Y2020496D01*
X3887630D01*
Y1990259D01*
X3831846D01*
X3827945Y1989483D01*
X3824637Y1987273D01*
X3666560Y1829196D01*
X3534151D01*
X3530249Y1828420D01*
X3526941Y1826210D01*
X3465613Y1764881D01*
X3408987D01*
Y1774609D01*
X3381432D01*
X3370832Y1785210D01*
X3367524Y1787420D01*
X3363622Y1788196D01*
X3348742D01*
Y1793768D01*
X3348203Y1796479D01*
X3346667Y1798777D01*
X3344369Y1800313D01*
X3341657Y1800853D01*
X3288468D01*
X3285757Y1800313D01*
X3283459Y1798777D01*
X3281923Y1796479D01*
X3281384Y1793768D01*
Y1788196D01*
X3106617D01*
Y1838010D01*
X3106074Y1840740D01*
X3104528Y1843055D01*
X3102213Y1844602D01*
X3099482Y1845145D01*
X3085682D01*
Y1975114D01*
X3090272Y1976036D01*
X3090682Y1975946D01*
X3092790Y1972790D01*
X3105200Y1960381D01*
X3108508Y1958171D01*
X3112409Y1957395D01*
X3393268D01*
Y1947827D01*
X3436732D01*
Y1987354D01*
X3393268D01*
Y1977786D01*
X3116633D01*
X3110196Y1984223D01*
Y2116657D01*
X3109420Y2120559D01*
X3107210Y2123867D01*
X3095196Y2135880D01*
Y2258422D01*
X3099252Y2262477D01*
X3101811Y2268656D01*
Y2275344D01*
X3099252Y2281523D01*
X3094523Y2286252D01*
X3088344Y2288811D01*
X3081656D01*
X3075477Y2286252D01*
X3070748Y2281523D01*
X3068189Y2275344D01*
Y2268656D01*
X3070748Y2262477D01*
X3074804Y2258422D01*
Y2131657D01*
X3075580Y2127755D01*
X3077790Y2124447D01*
X3089804Y2112434D01*
Y2035691D01*
X3084804Y2035199D01*
X3084712Y2035663D01*
X3081949Y2039797D01*
X3065745Y2056002D01*
Y2249000D01*
X3064775Y2253877D01*
X3062012Y2258012D01*
X3050745Y2269279D01*
Y3989343D01*
X3207920Y4146518D01*
X3212159Y4143686D01*
X3211189Y4141344D01*
Y4134656D01*
X3213748Y4128477D01*
X3218477Y4123748D01*
X3224656Y4121189D01*
X3231344D01*
X3237523Y4123748D01*
X3242252Y4128477D01*
X3244811Y4134656D01*
X3246707Y4134420D01*
X3249566Y4133236D01*
Y4094580D01*
X3249277Y4093123D01*
X3249572Y4091638D01*
Y4080883D01*
X3250326Y4077095D01*
X3252125Y4074402D01*
X3252501Y4069594D01*
X3252504Y4069192D01*
X3252504Y4067848D01*
Y4039500D01*
X3289000D01*
X3325496D01*
Y4067848D01*
X3325496Y4069192D01*
X3325499Y4069594D01*
X3325875Y4074402D01*
X3327675Y4077095D01*
X3328428Y4080883D01*
Y4105363D01*
X3327704Y4109004D01*
Y4137408D01*
X3332323Y4139322D01*
X3361653Y4109992D01*
X3364630Y4108002D01*
X3368142Y4107304D01*
X3386197D01*
Y4103606D01*
X3414950D01*
X3416933Y4099034D01*
X3414377Y4095890D01*
X3386197D01*
Y4070142D01*
X3427693D01*
Y4082912D01*
X3454489Y4109708D01*
X3456478Y4112685D01*
X3457176Y4116197D01*
Y4133605D01*
X3457523Y4133748D01*
X3462252Y4138477D01*
X3464811Y4144656D01*
Y4151344D01*
X3462252Y4157523D01*
X3457523Y4162252D01*
X3451344Y4164811D01*
X3444656D01*
X3438477Y4162252D01*
X3433748Y4157523D01*
X3432693Y4154974D01*
X3427693Y4155969D01*
Y4162819D01*
X3386197D01*
Y4137071D01*
X3427693D01*
Y4140031D01*
X3432693Y4141026D01*
X3433748Y4138477D01*
X3438477Y4133748D01*
X3438824Y4133605D01*
Y4119998D01*
X3432312Y4113486D01*
X3427693Y4115400D01*
Y4129354D01*
X3386197D01*
Y4125657D01*
X3371943D01*
X3347111Y4150488D01*
X3349944Y4154727D01*
X3353656Y4153189D01*
X3360344D01*
X3366523Y4155748D01*
X3371252Y4160477D01*
X3373811Y4166656D01*
Y4173344D01*
X3371252Y4179523D01*
X3366523Y4184252D01*
X3366176Y4184395D01*
Y4208000D01*
X3365478Y4211512D01*
X3363489Y4214489D01*
X3350457Y4227520D01*
X3347480Y4229509D01*
X3343968Y4230208D01*
X3335354D01*
Y4244732D01*
X3295827D01*
Y4216213D01*
X3288793Y4209179D01*
X3284173Y4211093D01*
Y4244732D01*
X3274558D01*
Y4253013D01*
X3285239D01*
Y4294987D01*
X3289072Y4297804D01*
X3290928D01*
X3294761Y4294987D01*
X3294761Y4292804D01*
Y4276500D01*
X3334609D01*
Y4292804D01*
X3334609Y4294987D01*
X3338442Y4297804D01*
X3356338D01*
X3360240Y4298580D01*
X3363548Y4300790D01*
X3381577Y4318820D01*
X3386197Y4316906D01*
Y4304394D01*
X3427693D01*
Y4330142D01*
X3400382D01*
X3398399Y4334714D01*
X3400955Y4337858D01*
X3427693D01*
Y4363606D01*
X3386197D01*
Y4352278D01*
X3352115Y4318196D01*
X3338442D01*
X3334609Y4321013D01*
Y4339500D01*
X3314685D01*
Y4342000D01*
X3312185D01*
Y4362987D01*
X3306191D01*
X3304278Y4367606D01*
X3318476Y4381804D01*
X3334422D01*
X3338477Y4377748D01*
X3344656Y4375189D01*
X3351344D01*
X3357523Y4377748D01*
X3362252Y4382477D01*
X3364811Y4388656D01*
Y4395344D01*
X3362252Y4401523D01*
X3357523Y4406252D01*
X3351344Y4408811D01*
D02*
G37*
G36*
X4253232Y4472425D02*
X4247593D01*
X4231514Y4469878D01*
X4216031Y4464848D01*
X4201526Y4457457D01*
X4188355Y4447888D01*
X4176844Y4436377D01*
X4167275Y4423207D01*
X4159884Y4408702D01*
X4154854Y4393219D01*
X4152307Y4377140D01*
Y4371500D01*
X4253232D01*
Y4472425D01*
D02*
G37*
G36*
X3122140D02*
X3116500D01*
Y4371500D01*
X3217425D01*
Y4377140D01*
X3214878Y4393219D01*
X3209848Y4408702D01*
X3202457Y4423207D01*
X3192888Y4436377D01*
X3181377Y4447888D01*
X3168207Y4457457D01*
X3153702Y4464848D01*
X3138219Y4469878D01*
X3122140Y4472425D01*
D02*
G37*
G36*
X3111500D02*
X3105860D01*
X3089781Y4469878D01*
X3074298Y4464848D01*
X3059793Y4457457D01*
X3046623Y4447888D01*
X3035112Y4436377D01*
X3025543Y4423207D01*
X3018152Y4408702D01*
X3013122Y4393219D01*
X3010575Y4377140D01*
Y4371500D01*
X3111500D01*
Y4472425D01*
D02*
G37*
G36*
X3978874Y4397071D02*
X3937378D01*
Y4371323D01*
X3978874D01*
Y4397071D01*
D02*
G37*
G36*
X3427693Y4381697D02*
X3409445D01*
Y4371323D01*
X3427693D01*
Y4381697D01*
D02*
G37*
G36*
X3404445D02*
X3386197D01*
Y4371323D01*
X3404445D01*
Y4381697D01*
D02*
G37*
G36*
X3978874Y4363606D02*
X3960626D01*
Y4353232D01*
X3978874D01*
Y4363606D01*
D02*
G37*
G36*
X3955626D02*
X3937378D01*
Y4353232D01*
X3955626D01*
Y4363606D01*
D02*
G37*
G36*
X3334609Y4362987D02*
X3317185D01*
Y4344500D01*
X3334609D01*
Y4362987D01*
D02*
G37*
G36*
X3978874Y4348232D02*
X3960626D01*
Y4337858D01*
X3978874D01*
Y4348232D01*
D02*
G37*
G36*
X3955626D02*
X3937378D01*
Y4337858D01*
X3955626D01*
Y4348232D01*
D02*
G37*
G36*
X3978874Y4330142D02*
X3960626D01*
Y4319768D01*
X3978874D01*
Y4330142D01*
D02*
G37*
G36*
X3955626D02*
X3937378D01*
Y4319768D01*
X3955626D01*
Y4330142D01*
D02*
G37*
G36*
X3978874Y4314768D02*
X3960626D01*
Y4304394D01*
X3978874D01*
Y4314768D01*
D02*
G37*
G36*
X3955626D02*
X3937378D01*
Y4304394D01*
X3955626D01*
Y4314768D01*
D02*
G37*
G36*
X3978874Y4430535D02*
X3937378D01*
Y4404787D01*
X3978874D01*
Y4407466D01*
X4043115D01*
X4064395Y4386186D01*
Y4354732D01*
X4054827D01*
Y4311268D01*
X4064395D01*
Y4296606D01*
X4038606D01*
X4036693Y4296606D01*
X4033605Y4300328D01*
Y4311268D01*
X4043173D01*
Y4354732D01*
X4003646D01*
Y4311268D01*
X4013214D01*
Y4298319D01*
X4008706Y4293811D01*
X4006656D01*
X4000477Y4291252D01*
X3995748Y4286523D01*
X3993189Y4280344D01*
Y4273656D01*
X3995748Y4267477D01*
X4000477Y4262748D01*
X4006656Y4260189D01*
X4013344D01*
X4019523Y4262748D01*
X4024252Y4267477D01*
X4026811Y4273656D01*
Y4280344D01*
X4026010Y4282277D01*
X4030619Y4286886D01*
X4031693Y4288493D01*
X4036693Y4286976D01*
Y4181566D01*
X3982263D01*
X3978874Y4184955D01*
Y4196283D01*
X3937378D01*
Y4170535D01*
X3963355D01*
X3965682Y4167578D01*
X3963572Y4162819D01*
X3937378D01*
Y4137071D01*
X3978874D01*
Y4139749D01*
X4201832D01*
X4210508Y4131073D01*
Y4124924D01*
X4213628Y4117392D01*
X4209759Y4114660D01*
X4206816Y4117603D01*
X4206088Y4118090D01*
X4204252Y4122523D01*
X4199523Y4127252D01*
X4193344Y4129811D01*
X4186656D01*
X4180477Y4127252D01*
X4175748Y4122523D01*
X4173189Y4116344D01*
Y4109656D01*
X4175748Y4103477D01*
X4180477Y4098748D01*
X4186656Y4096189D01*
X4193344D01*
X4197620Y4097960D01*
X4211093Y4084488D01*
X4210508Y4083076D01*
Y4074924D01*
X4213628Y4067392D01*
X4219392Y4061628D01*
X4225557Y4059074D01*
Y4048926D01*
X4219855Y4046564D01*
X4207210Y4059210D01*
X4203902Y4061420D01*
X4200000Y4062196D01*
X4196098Y4061420D01*
X4192790Y4059210D01*
X4190580Y4055902D01*
X4189804Y4052000D01*
X4190580Y4048098D01*
X4192790Y4044790D01*
X4208936Y4028645D01*
X4210508Y4027595D01*
Y4024924D01*
X4213628Y4017392D01*
X4217669Y4013350D01*
X4215598Y4008350D01*
X4212136D01*
X4204671Y4006350D01*
X4197979Y4002486D01*
X4192514Y3997021D01*
X4188650Y3990329D01*
X4186650Y3982864D01*
Y3981262D01*
X4181650Y3979191D01*
X4175381Y3985460D01*
Y4079894D01*
X4174605Y4083796D01*
X4172395Y4087103D01*
X4135808Y4123690D01*
X4132501Y4125900D01*
X4128599Y4126676D01*
X3978874D01*
Y4129354D01*
X3937378D01*
Y4103606D01*
X3978874D01*
Y4106284D01*
X4036693D01*
Y4050012D01*
X4085000D01*
X4133307D01*
Y4090820D01*
X4137926Y4092733D01*
X4154989Y4075671D01*
Y3981236D01*
X4155766Y3977335D01*
X4157976Y3974027D01*
X4187538Y3944465D01*
X4185624Y3939845D01*
X4094518D01*
X4051589Y3982774D01*
X4053503Y3987394D01*
X4082500D01*
Y4045012D01*
X4036693D01*
Y4004204D01*
X4032073Y4002290D01*
X4010196Y4024168D01*
Y4067000D01*
X4009420Y4070902D01*
X4007210Y4074210D01*
X3991194Y4090225D01*
X3987886Y4092436D01*
X3983984Y4093212D01*
X3978874D01*
Y4095890D01*
X3937378D01*
Y4070142D01*
X3978874D01*
Y4070142D01*
X3983454Y4069127D01*
X3989804Y4062777D01*
Y4019945D01*
X3990580Y4016043D01*
X3992790Y4012735D01*
X4083085Y3922440D01*
X4086393Y3920230D01*
X4090295Y3919454D01*
X4316442D01*
X4320343Y3920230D01*
X4323651Y3922440D01*
X4352560Y3951349D01*
X4354770Y3954657D01*
X4355546Y3958558D01*
Y4014650D01*
X4354770Y4018551D01*
X4352560Y4021859D01*
X4300907Y4073512D01*
X4301492Y4074924D01*
Y4083076D01*
X4298372Y4090608D01*
X4292608Y4096372D01*
X4286412Y4098939D01*
Y4109061D01*
X4292608Y4111628D01*
X4298372Y4117392D01*
X4301492Y4124924D01*
Y4133076D01*
X4300907Y4134488D01*
X4312210Y4145790D01*
X4314420Y4149098D01*
X4315196Y4153000D01*
Y4190000D01*
X4314420Y4193902D01*
X4312210Y4197210D01*
X4288210Y4221210D01*
X4284902Y4223420D01*
X4281000Y4224196D01*
X4175079D01*
X4171177Y4223420D01*
X4167869Y4221210D01*
X4137926Y4191267D01*
X4133307Y4193180D01*
Y4223667D01*
X4138307Y4224919D01*
X4141477Y4221748D01*
X4147656Y4219189D01*
X4154344D01*
X4160523Y4221748D01*
X4165252Y4226477D01*
X4167811Y4232656D01*
Y4239344D01*
X4165252Y4245523D01*
X4160523Y4250252D01*
X4154344Y4252811D01*
X4147656D01*
X4141477Y4250252D01*
X4138307Y4247081D01*
X4133307Y4248333D01*
Y4296606D01*
X4084787D01*
Y4311268D01*
X4094354D01*
Y4354732D01*
X4084787D01*
Y4390409D01*
X4084010Y4394311D01*
X4081800Y4397619D01*
X4054548Y4424871D01*
X4051240Y4427081D01*
X4047339Y4427857D01*
X3978874D01*
Y4430535D01*
D02*
G37*
G36*
Y4296677D02*
X3937378D01*
Y4270929D01*
X3978874D01*
Y4296677D01*
D02*
G37*
G36*
X3427693D02*
X3386197D01*
Y4270929D01*
X3427693D01*
Y4296677D01*
D02*
G37*
G36*
X4253232Y4366500D02*
X4152307D01*
Y4360860D01*
X4154854Y4344781D01*
X4159884Y4329298D01*
X4167275Y4314793D01*
X4176844Y4301623D01*
X4188355Y4290112D01*
X4201526Y4280543D01*
X4216031Y4273152D01*
X4231514Y4268122D01*
X4247593Y4265575D01*
X4253232D01*
Y4366500D01*
D02*
G37*
G36*
X3217425D02*
X3116500D01*
Y4265575D01*
X3122140D01*
X3138219Y4268122D01*
X3153702Y4273152D01*
X3168207Y4280543D01*
X3181377Y4290112D01*
X3192888Y4301623D01*
X3202457Y4314793D01*
X3209848Y4329298D01*
X3214878Y4344781D01*
X3217425Y4360860D01*
Y4366500D01*
D02*
G37*
G36*
X3111500D02*
X3010575D01*
Y4360860D01*
X3013122Y4344781D01*
X3018152Y4329298D01*
X3025543Y4314793D01*
X3035112Y4301623D01*
X3046623Y4290112D01*
X3059793Y4280543D01*
X3074298Y4273152D01*
X3089781Y4268122D01*
X3105860Y4265575D01*
X3111500D01*
Y4366500D01*
D02*
G37*
G36*
X3334609Y4271500D02*
X3317185D01*
Y4253013D01*
X3334609D01*
Y4271500D01*
D02*
G37*
G36*
X3312185D02*
X3294761D01*
Y4253013D01*
X3312185D01*
Y4271500D01*
D02*
G37*
G36*
X3776118Y4276992D02*
X3749996D01*
Y4250870D01*
X3776118D01*
Y4276992D01*
D02*
G37*
G36*
X3744996D02*
X3718874D01*
Y4250870D01*
X3744996D01*
Y4276992D01*
D02*
G37*
G36*
X3711157D02*
X3685035D01*
Y4250870D01*
X3711157D01*
Y4276992D01*
D02*
G37*
G36*
X3680035D02*
X3653913D01*
Y4250870D01*
X3680035D01*
Y4276992D01*
D02*
G37*
G36*
X3630449Y4261244D02*
X3620075D01*
Y4250870D01*
X3630449D01*
Y4261244D01*
D02*
G37*
G36*
X3615075D02*
X3604701D01*
Y4250870D01*
X3615075D01*
Y4261244D01*
D02*
G37*
G36*
X3978874Y4263212D02*
X3937378D01*
Y4237465D01*
X3978874D01*
Y4263212D01*
D02*
G37*
G36*
X3427693D02*
X3386197D01*
Y4237465D01*
X3427693D01*
Y4263212D01*
D02*
G37*
G36*
X3630449Y4245870D02*
X3620075D01*
Y4235496D01*
X3630449D01*
Y4245870D01*
D02*
G37*
G36*
X3615075D02*
X3604701D01*
Y4235496D01*
X3615075D01*
Y4245870D01*
D02*
G37*
G36*
X3776118D02*
X3749996D01*
Y4219748D01*
X3776118D01*
Y4245870D01*
D02*
G37*
G36*
X3744996D02*
X3718874D01*
Y4219748D01*
X3744996D01*
Y4245870D01*
D02*
G37*
G36*
X3711157D02*
X3685035D01*
Y4219748D01*
X3711157D01*
Y4245870D01*
D02*
G37*
G36*
X3680035D02*
X3653913D01*
Y4219748D01*
X3680035D01*
Y4245870D01*
D02*
G37*
G36*
X3978874Y4229748D02*
X3937378D01*
Y4204000D01*
X3978874D01*
Y4229748D01*
D02*
G37*
G36*
X3427693D02*
X3386197D01*
Y4204000D01*
X3427693D01*
Y4229748D01*
D02*
G37*
G36*
X3776118Y4212031D02*
X3749996D01*
Y4185909D01*
X3776118D01*
Y4212031D01*
D02*
G37*
G36*
X3744996D02*
X3718874D01*
Y4185909D01*
X3744996D01*
Y4212031D01*
D02*
G37*
G36*
X3711157D02*
X3685035D01*
Y4185909D01*
X3711157D01*
Y4212031D01*
D02*
G37*
G36*
X3680035D02*
X3653913D01*
Y4185909D01*
X3680035D01*
Y4212031D01*
D02*
G37*
G36*
X3646197D02*
X3620075D01*
Y4185909D01*
X3646197D01*
Y4212031D01*
D02*
G37*
G36*
X3615075D02*
X3588953D01*
Y4185909D01*
X3615075D01*
Y4212031D01*
D02*
G37*
G36*
X3427693Y4196283D02*
X3386197D01*
Y4170535D01*
X3427693D01*
Y4196283D01*
D02*
G37*
G36*
X3776118Y4180909D02*
X3749996D01*
Y4154787D01*
X3776118D01*
Y4180909D01*
D02*
G37*
G36*
X3744996D02*
X3718874D01*
Y4154787D01*
X3744996D01*
Y4180909D01*
D02*
G37*
G36*
X3711157D02*
X3685035D01*
Y4154787D01*
X3711157D01*
Y4180909D01*
D02*
G37*
G36*
X3680035D02*
X3653913D01*
Y4154787D01*
X3680035D01*
Y4180909D01*
D02*
G37*
G36*
X3646197D02*
X3620075D01*
Y4154787D01*
X3646197D01*
Y4180909D01*
D02*
G37*
G36*
X3615075D02*
X3588953D01*
Y4154787D01*
X3615075D01*
Y4180909D01*
D02*
G37*
G36*
X3776118Y4147071D02*
X3749996D01*
Y4120949D01*
X3776118D01*
Y4147071D01*
D02*
G37*
G36*
X3744996D02*
X3718874D01*
Y4120949D01*
X3744996D01*
Y4147071D01*
D02*
G37*
G36*
X3711157D02*
X3685035D01*
Y4120949D01*
X3711157D01*
Y4147071D01*
D02*
G37*
G36*
X3680035D02*
X3653913D01*
Y4120949D01*
X3680035D01*
Y4147071D01*
D02*
G37*
G36*
X3646197D02*
X3620075D01*
Y4120949D01*
X3646197D01*
Y4147071D01*
D02*
G37*
G36*
X3615075D02*
X3588953D01*
Y4120949D01*
X3615075D01*
Y4147071D01*
D02*
G37*
G36*
X3776118Y4115949D02*
X3749996D01*
Y4089827D01*
X3776118D01*
Y4115949D01*
D02*
G37*
G36*
X3744996D02*
X3718874D01*
Y4089827D01*
X3744996D01*
Y4115949D01*
D02*
G37*
G36*
X3711157D02*
X3685035D01*
Y4089827D01*
X3711157D01*
Y4115949D01*
D02*
G37*
G36*
X3680035D02*
X3653913D01*
Y4089827D01*
X3680035D01*
Y4115949D01*
D02*
G37*
G36*
X3646197D02*
X3620075D01*
Y4089827D01*
X3646197D01*
Y4115949D01*
D02*
G37*
G36*
X3978874Y4062425D02*
X3937378D01*
Y4036677D01*
X3978874D01*
Y4062425D01*
D02*
G37*
G36*
X3491344Y4120811D02*
X3484656D01*
X3478477Y4118252D01*
X3473748Y4113523D01*
X3471189Y4107344D01*
Y4100656D01*
X3473748Y4094477D01*
X3477804Y4090422D01*
Y4037223D01*
X3466863Y4026282D01*
X3427693D01*
Y4028961D01*
X3400382D01*
X3398399Y4033532D01*
X3400955Y4036677D01*
X3427693D01*
Y4062425D01*
X3386197D01*
Y4051096D01*
X3338790Y4003690D01*
X3336580Y4000382D01*
X3335804Y3996480D01*
Y3819000D01*
X3336580Y3815098D01*
X3338790Y3811790D01*
X3347866Y3802715D01*
X3345954Y3798095D01*
X3116213Y3797893D01*
Y2028893D01*
X4256213D01*
X4257000Y2049106D01*
Y3798893D01*
X3574128Y3798295D01*
X3572055Y3803293D01*
X3581210Y3812447D01*
X3583420Y3815755D01*
X3584196Y3819657D01*
Y3864000D01*
X3583420Y3867902D01*
X3581210Y3871210D01*
X3577902Y3873420D01*
X3574000Y3874196D01*
X3570098Y3873420D01*
X3566790Y3871210D01*
X3564580Y3867902D01*
X3563804Y3864000D01*
Y3823880D01*
X3554196Y3814272D01*
X3549196Y3816343D01*
Y3848199D01*
X3550523Y3848748D01*
X3555252Y3853477D01*
X3557811Y3859656D01*
Y3866344D01*
X3555252Y3872523D01*
X3550523Y3877252D01*
X3544344Y3879811D01*
X3537656D01*
X3531477Y3877252D01*
X3530409Y3876183D01*
X3525409Y3878254D01*
Y3887071D01*
X3528087D01*
Y3928567D01*
X3502339D01*
Y3887071D01*
X3505017D01*
Y3798234D01*
X3495481Y3798226D01*
X3491944Y3801760D01*
Y3887071D01*
X3494622D01*
Y3928567D01*
X3468874D01*
Y3887071D01*
X3471552D01*
Y3798205D01*
X3462016Y3798197D01*
X3458479Y3801731D01*
Y3887071D01*
X3461157D01*
Y3928567D01*
X3435409D01*
Y3887071D01*
X3438088D01*
Y3798176D01*
X3425468Y3798164D01*
X3386196Y3837436D01*
Y3882071D01*
X3386197Y3887071D01*
X3391196Y3887071D01*
X3404445D01*
Y3907819D01*
Y3928567D01*
X3389397Y3928567D01*
X3387204Y3932425D01*
X3389397Y3936283D01*
X3427693D01*
Y3962031D01*
X3386197D01*
Y3959353D01*
X3381858D01*
X3377956Y3958577D01*
X3376196Y3957401D01*
X3371196Y3959515D01*
Y3972426D01*
X3386197D01*
Y3969748D01*
X3427693D01*
Y3995496D01*
X3386197D01*
Y3992818D01*
X3366858D01*
X3362956Y3992042D01*
X3360057Y3996118D01*
X3381577Y4017639D01*
X3386197Y4015725D01*
Y4003213D01*
X3427693D01*
Y4005891D01*
X3471087D01*
X3474988Y4006667D01*
X3478296Y4008877D01*
X3495210Y4025790D01*
X3497420Y4029098D01*
X3498196Y4033000D01*
Y4090422D01*
X3502252Y4094477D01*
X3504811Y4100656D01*
Y4107344D01*
X3502252Y4113523D01*
X3497523Y4118252D01*
X3491344Y4120811D01*
D02*
G37*
G36*
X3978874Y4028961D02*
X3937378D01*
Y4003213D01*
X3978874D01*
Y4028961D01*
D02*
G37*
G36*
X4133307Y4045012D02*
X4087500D01*
Y3987394D01*
X4133307D01*
Y4045012D01*
D02*
G37*
G36*
X3716923Y3985811D02*
X3710235D01*
X3704056Y3983252D01*
X3702534Y3981730D01*
X3699268Y3978580D01*
X3696001Y3981730D01*
X3694479Y3983252D01*
X3688301Y3985811D01*
X3681613D01*
X3675434Y3983252D01*
X3670705Y3978523D01*
X3668146Y3972344D01*
Y3965656D01*
X3670705Y3959477D01*
X3675434Y3954748D01*
X3681572Y3952206D01*
Y3928648D01*
X3681490Y3928567D01*
X3669661D01*
Y3887071D01*
X3695409D01*
Y3913647D01*
X3695880Y3914117D01*
X3699268Y3916971D01*
X3702656Y3914117D01*
X3703126Y3913647D01*
Y3887071D01*
X3728874D01*
Y3928567D01*
X3717045D01*
X3716964Y3928648D01*
Y3952206D01*
X3723101Y3954748D01*
X3727830Y3959477D01*
X3730390Y3965656D01*
Y3972344D01*
X3727830Y3978523D01*
X3723101Y3983252D01*
X3716923Y3985811D01*
D02*
G37*
G36*
X3978874Y3995496D02*
X3937378D01*
Y3969748D01*
X3978874D01*
Y3995496D01*
D02*
G37*
G36*
X3328428Y3978377D02*
X3321028D01*
Y3959234D01*
X3322316Y3959490D01*
X3325528Y3961636D01*
X3327675Y3964848D01*
X3328428Y3968637D01*
Y3978377D01*
D02*
G37*
G36*
X3325496Y4034500D02*
X3289000D01*
X3252504D01*
X3252504Y4006691D01*
X3249762Y4002827D01*
X3249762Y4000577D01*
Y3958927D01*
X3269183Y3958927D01*
X3274183Y3960282D01*
X3275369Y3959490D01*
X3279157Y3958736D01*
X3282946Y3959490D01*
X3286158Y3961636D01*
X3291842D01*
X3295054Y3959490D01*
X3298843Y3958736D01*
X3302631Y3959490D01*
X3305843Y3961636D01*
X3311527D01*
X3314739Y3959490D01*
X3316028Y3959234D01*
Y3980877D01*
X3318528D01*
Y3983377D01*
X3328428D01*
Y3993117D01*
X3327675Y3996905D01*
X3325875Y3999598D01*
X3325499Y4004406D01*
X3325496Y4004808D01*
X3325496Y4006152D01*
Y4034500D01*
D02*
G37*
G36*
X3615075Y4115949D02*
X3588953D01*
Y4089827D01*
X3591804D01*
Y3959000D01*
X3592580Y3955098D01*
X3594790Y3951790D01*
X3598098Y3949580D01*
X3602000Y3948804D01*
X3605902Y3949580D01*
X3609210Y3951790D01*
X3611420Y3955098D01*
X3612196Y3959000D01*
Y4089827D01*
X3615075D01*
Y4115949D01*
D02*
G37*
G36*
X3978874Y3962031D02*
X3937378D01*
Y3936283D01*
X3978874D01*
Y3962031D01*
D02*
G37*
G36*
Y3928567D02*
X3960626D01*
Y3910319D01*
X3978874D01*
Y3928567D01*
D02*
G37*
G36*
X3955626D02*
X3937378D01*
Y3910319D01*
X3955626D01*
Y3928567D01*
D02*
G37*
G36*
X3409445D02*
Y3910319D01*
X3427693D01*
Y3928567D01*
X3409445D01*
D02*
G37*
G36*
X3978874Y3905319D02*
X3960626D01*
Y3887071D01*
X3978874D01*
Y3905319D01*
D02*
G37*
G36*
X3955626D02*
X3937378D01*
Y3887071D01*
X3955626D01*
Y3905319D01*
D02*
G37*
G36*
X3929661Y3928567D02*
X3903913D01*
Y3887071D01*
X3929661D01*
Y3928567D01*
D02*
G37*
G36*
X3896197D02*
X3870449D01*
Y3887071D01*
X3896197D01*
Y3928567D01*
D02*
G37*
G36*
X3862732D02*
X3836984D01*
Y3887071D01*
X3862732D01*
Y3928567D01*
D02*
G37*
G36*
X3829268D02*
X3803520D01*
Y3887071D01*
X3829268D01*
Y3928567D01*
D02*
G37*
G36*
X3795803D02*
X3770055D01*
Y3887071D01*
X3795803D01*
Y3928567D01*
D02*
G37*
G36*
X3762338D02*
X3736590D01*
Y3887071D01*
X3762338D01*
Y3928567D01*
D02*
G37*
G36*
X3661945D02*
X3636197D01*
Y3887071D01*
X3661945D01*
Y3928567D01*
D02*
G37*
G36*
X3628480D02*
X3602732D01*
Y3887071D01*
X3628480D01*
Y3928567D01*
D02*
G37*
G36*
X3458344Y3990811D02*
X3451656D01*
X3445477Y3988252D01*
X3440748Y3983523D01*
X3438189Y3977344D01*
Y3970656D01*
X3440748Y3964477D01*
X3445477Y3959748D01*
X3451656Y3957189D01*
X3458344D01*
X3464523Y3959748D01*
X3468578Y3963804D01*
X3519611D01*
X3550229Y3933186D01*
X3548316Y3928567D01*
X3535803D01*
Y3887071D01*
X3561551D01*
Y3914382D01*
X3566123Y3916365D01*
X3569268Y3913809D01*
Y3887071D01*
X3595016D01*
Y3928567D01*
X3583687D01*
X3531044Y3981210D01*
X3527736Y3983420D01*
X3523835Y3984196D01*
X3468578D01*
X3464523Y3988252D01*
X3458344Y3990811D01*
D02*
G37*
G36*
X3427693Y3905319D02*
X3409445D01*
Y3887071D01*
X3427693D01*
Y3905319D01*
D02*
G37*
G36*
X3523331Y1962213D02*
X3460181D01*
Y1943010D01*
X3443777Y1926605D01*
X3436732D01*
Y1936173D01*
X3393268D01*
Y1896646D01*
X3436732D01*
Y1906214D01*
X3448000D01*
X3451902Y1906990D01*
X3455210Y1909200D01*
X3474600Y1928591D01*
X3523331D01*
Y1962213D01*
D02*
G37*
G36*
X3726370Y2020496D02*
X3645504D01*
Y1959826D01*
X3642638D01*
X3638736Y1959050D01*
X3635428Y1956840D01*
X3603400Y1924811D01*
X3554669D01*
Y1891189D01*
X3617819D01*
Y1910392D01*
X3646861Y1939434D01*
X3655504D01*
X3656489Y1939630D01*
X3726370D01*
Y2020496D01*
D02*
G37*
G36*
X3523331Y1887409D02*
X3494256D01*
Y1873098D01*
X3523331D01*
Y1887409D01*
D02*
G37*
G36*
X3489256D02*
X3460181D01*
Y1873098D01*
X3489256D01*
Y1887409D01*
D02*
G37*
G36*
X4298051Y1900417D02*
X4228622D01*
Y1868390D01*
X4298051D01*
Y1900417D01*
D02*
G37*
G36*
X3523331Y1868098D02*
X3494256D01*
Y1853787D01*
X3523331D01*
Y1868098D01*
D02*
G37*
G36*
X3489256D02*
X3460181D01*
Y1853787D01*
X3489256D01*
Y1868098D01*
D02*
G37*
G36*
X3341657Y1891404D02*
X3288468D01*
X3285757Y1890864D01*
X3283459Y1889329D01*
X3281923Y1887030D01*
X3281384Y1884319D01*
Y1852784D01*
X3281923Y1850072D01*
X3283459Y1847774D01*
X3285757Y1846238D01*
X3288468Y1845699D01*
X3341657D01*
X3344369Y1846238D01*
X3346667Y1847774D01*
X3348203Y1850072D01*
X3348742Y1852784D01*
Y1852982D01*
X3379328D01*
X3383656Y1851189D01*
X3390344D01*
X3396523Y1853748D01*
X3401252Y1858477D01*
X3403811Y1864656D01*
Y1871344D01*
X3401252Y1877523D01*
X3396523Y1882252D01*
X3390344Y1884811D01*
X3383656D01*
X3380659Y1883570D01*
X3348742D01*
Y1884319D01*
X3348203Y1887030D01*
X3346667Y1889329D01*
X3344369Y1890864D01*
X3341657Y1891404D01*
D02*
G37*
G36*
X4298051Y1863390D02*
X4228622D01*
Y1831362D01*
X4298051D01*
Y1863390D01*
D02*
G37*
G36*
X4148071Y1798055D02*
X4076673D01*
Y1775870D01*
X4148071D01*
Y1798055D01*
D02*
G37*
G36*
X4071673D02*
X4000276D01*
Y1775870D01*
X4071673D01*
Y1798055D01*
D02*
G37*
G36*
X4148071Y1770870D02*
X4076673D01*
Y1748685D01*
X4148071D01*
Y1770870D01*
D02*
G37*
G36*
X4071673D02*
X4000276D01*
Y1748685D01*
X4071673D01*
Y1770870D01*
D02*
G37*
G36*
X3408987Y1725239D02*
X3390500D01*
Y1707815D01*
X3408987D01*
Y1725239D01*
D02*
G37*
G36*
X3385500D02*
X3367013D01*
Y1707815D01*
X3385500D01*
Y1725239D01*
D02*
G37*
G36*
X3826339Y1718716D02*
X3811043D01*
Y1698500D01*
X3826339D01*
Y1718716D01*
D02*
G37*
G36*
X3558957D02*
X3543661D01*
Y1698500D01*
X3558957D01*
Y1718716D01*
D02*
G37*
G36*
X3341657Y1710301D02*
X3317563D01*
Y1689949D01*
X3348742D01*
Y1703216D01*
X3348203Y1705928D01*
X3346667Y1708226D01*
X3344369Y1709762D01*
X3341657Y1710301D01*
D02*
G37*
G36*
X3312563D02*
X3288468D01*
X3285757Y1709762D01*
X3283459Y1708226D01*
X3281923Y1705928D01*
X3281384Y1703216D01*
Y1689949D01*
X3312563D01*
Y1710301D01*
D02*
G37*
G36*
X3826339Y1693500D02*
X3811043D01*
Y1673284D01*
X3826339D01*
Y1693500D01*
D02*
G37*
G36*
X3558957D02*
X3543661D01*
Y1673284D01*
X3558957D01*
Y1693500D01*
D02*
G37*
G36*
X3968496Y1778370D02*
X3887630D01*
Y1697504D01*
X3957962D01*
X3959808Y1692504D01*
X3957311Y1688767D01*
X3956147Y1682914D01*
Y1569653D01*
X3945772D01*
Y1558294D01*
X3918980D01*
X3913127Y1557130D01*
X3908166Y1553814D01*
X3907813Y1553462D01*
X3902477Y1551252D01*
X3897748Y1546523D01*
X3895189Y1540344D01*
Y1533656D01*
X3897748Y1527477D01*
X3902477Y1522748D01*
X3908656Y1520189D01*
X3915344D01*
X3921523Y1522748D01*
X3926252Y1527477D01*
X3926346Y1527706D01*
X3945772D01*
Y1516347D01*
X3956147D01*
Y1498815D01*
X3957311Y1492962D01*
X3960627Y1488001D01*
X3960900Y1487727D01*
Y1461978D01*
X3962171Y1455589D01*
X3965791Y1450171D01*
X3971208Y1446552D01*
X3977598Y1445281D01*
X3983988Y1446552D01*
X3989406Y1450171D01*
X3993025Y1455589D01*
X3993750Y1459233D01*
X3998848D01*
X3999573Y1455589D01*
X4003193Y1450171D01*
X4008610Y1446552D01*
X4012500Y1445778D01*
Y1476945D01*
Y1508113D01*
X4008610Y1507339D01*
X4003193Y1503720D01*
X3999573Y1498302D01*
X3998848Y1494658D01*
X3993750D01*
X3993025Y1498302D01*
X3989406Y1503720D01*
X3986735Y1505504D01*
Y1516347D01*
X3995890D01*
X3997110Y1516346D01*
X4000890D01*
X4002110Y1516347D01*
X4024059D01*
Y1543000D01*
Y1569653D01*
X4002110D01*
X4000890Y1569654D01*
X3997110D01*
X3995890Y1569653D01*
X3986735D01*
Y1676579D01*
X3989492Y1679336D01*
X4000276D01*
Y1669945D01*
X4148071D01*
Y1719315D01*
X4000276D01*
Y1709924D01*
X3983157D01*
X3977304Y1708760D01*
X3973496Y1706215D01*
X3968496Y1708003D01*
Y1778370D01*
D02*
G37*
G36*
X3348742Y1684949D02*
X3317563D01*
Y1664596D01*
X3341657D01*
X3344369Y1665136D01*
X3346667Y1666671D01*
X3348203Y1668970D01*
X3348742Y1671681D01*
Y1684949D01*
D02*
G37*
G36*
X3312563D02*
X3281384D01*
Y1671681D01*
X3281923Y1668970D01*
X3283459Y1666671D01*
X3285757Y1665136D01*
X3288468Y1664596D01*
X3312563D01*
Y1684949D01*
D02*
G37*
G36*
X3827795Y1666520D02*
X3813484D01*
Y1641382D01*
X3827795D01*
Y1666520D01*
D02*
G37*
G36*
X3556516D02*
X3542205D01*
Y1641382D01*
X3556516D01*
Y1666520D01*
D02*
G37*
G36*
X3386500Y1656500D02*
X3363331D01*
Y1636284D01*
X3386500D01*
Y1656500D01*
D02*
G37*
G36*
X3934095Y1660614D02*
X3888681D01*
Y1618744D01*
X3934095D01*
Y1660614D01*
D02*
G37*
G36*
X3883681D02*
X3838268D01*
Y1618744D01*
X3883681D01*
Y1660614D01*
D02*
G37*
G36*
X3531732D02*
X3486319D01*
Y1618744D01*
X3531732D01*
Y1660614D01*
D02*
G37*
G36*
X4298051Y1636638D02*
X4228622D01*
Y1604610D01*
X4298051D01*
Y1636638D01*
D02*
G37*
G36*
X3727583Y1803664D02*
X3552448D01*
X3546595Y1802500D01*
X3541634Y1799185D01*
X3419669Y1677220D01*
X3414669Y1679291D01*
Y1681716D01*
X3412186D01*
X3408987Y1685391D01*
X3408987Y1686717D01*
Y1702815D01*
X3388000D01*
X3367013D01*
Y1686717D01*
X3367013Y1685391D01*
X3363814Y1681716D01*
X3363331D01*
Y1661500D01*
X3389000D01*
Y1659000D01*
X3391500D01*
Y1636284D01*
X3397721D01*
X3399634Y1631664D01*
X3392600Y1624630D01*
X3363331D01*
Y1579197D01*
X3373706D01*
Y1557117D01*
X3369087Y1555204D01*
X3362187Y1562103D01*
X3357226Y1565418D01*
X3352638Y1566331D01*
X3351709Y1568271D01*
X3351363Y1569689D01*
X3351357Y1571582D01*
X3355252Y1575477D01*
X3357811Y1581656D01*
Y1588344D01*
X3355252Y1594523D01*
X3350523Y1599252D01*
X3344344Y1601811D01*
X3344302D01*
X3340956Y1604046D01*
X3335103Y1605211D01*
X3290643D01*
Y1609818D01*
X3289300Y1616570D01*
X3285476Y1622293D01*
X3279752Y1626118D01*
X3273000Y1627461D01*
X3266248Y1626118D01*
X3260524Y1622293D01*
X3256700Y1616570D01*
X3255357Y1609818D01*
Y1570016D01*
X3256700Y1563264D01*
X3260524Y1557540D01*
X3266248Y1553716D01*
X3271729Y1552626D01*
X3273482Y1549027D01*
X3273698Y1547524D01*
X3267757Y1541582D01*
X3237903D01*
X3236425Y1541288D01*
X3218294D01*
Y1485501D01*
X3213294Y1484709D01*
X3209848Y1495316D01*
X3202457Y1509821D01*
X3192888Y1522991D01*
X3181377Y1534503D01*
X3168207Y1544071D01*
X3153702Y1551462D01*
X3138219Y1556493D01*
X3122140Y1559039D01*
X3116500D01*
Y1458114D01*
X3217425D01*
Y1462238D01*
X3217751Y1463977D01*
X3221993Y1466878D01*
X3252903D01*
Y1510995D01*
X3274092D01*
X3279944Y1512159D01*
X3284906Y1515474D01*
X3288139Y1518707D01*
X3292758Y1516793D01*
Y1488777D01*
X3262181Y1458200D01*
X3257477Y1456252D01*
X3252748Y1451523D01*
X3250189Y1445344D01*
Y1438656D01*
X3252748Y1432477D01*
X3257477Y1427748D01*
X3263656Y1425189D01*
X3270344D01*
X3276523Y1427748D01*
X3281252Y1432477D01*
X3282338Y1435099D01*
X3306065Y1458826D01*
X3359984Y1404907D01*
Y1367323D01*
X3418016D01*
Y1426535D01*
X3381613D01*
X3327368Y1480780D01*
X3328045Y1484182D01*
Y1523984D01*
X3326702Y1530736D01*
X3326135Y1531585D01*
X3328492Y1535995D01*
X3345038D01*
X3359984Y1521048D01*
Y1483465D01*
X3418016D01*
Y1497777D01*
X3431873D01*
X3432040Y1497810D01*
X3435905Y1494638D01*
Y1464020D01*
X3531732D01*
Y1500596D01*
X3643504D01*
X3765860Y1378240D01*
X3770821Y1374925D01*
X3776674Y1373761D01*
X3960965D01*
X3962171Y1367698D01*
X3965791Y1362280D01*
X3971208Y1358661D01*
X3977598Y1357390D01*
X3983988Y1358661D01*
X3989406Y1362280D01*
X3993025Y1367698D01*
X3994296Y1374088D01*
Y1404021D01*
X3993025Y1410411D01*
X3989406Y1415829D01*
X3983988Y1419448D01*
X3977598Y1420719D01*
X3971208Y1419448D01*
X3965791Y1415829D01*
X3962171Y1410411D01*
X3960965Y1404348D01*
X3783009D01*
X3660653Y1526704D01*
X3655691Y1530020D01*
X3649839Y1531184D01*
X3434692D01*
X3428840Y1530020D01*
X3426363Y1528365D01*
X3418016D01*
Y1542677D01*
X3404294D01*
Y1579197D01*
X3414669D01*
Y1603441D01*
X3431286Y1620058D01*
X3434459Y1618744D01*
X3481319D01*
Y1660614D01*
X3452854D01*
X3450941Y1665234D01*
X3552448Y1766741D01*
X3575218Y1743972D01*
Y1718716D01*
X3563957D01*
Y1696000D01*
Y1673284D01*
X3575218D01*
Y1666520D01*
X3561516D01*
Y1638882D01*
X3559016D01*
Y1636382D01*
X3542205D01*
Y1611244D01*
X3547388D01*
X3550729Y1606244D01*
X3548583Y1601062D01*
Y1592056D01*
X3552029Y1583736D01*
X3558397Y1577368D01*
X3566718Y1573921D01*
X3575723D01*
X3584044Y1577368D01*
X3590412Y1583736D01*
X3593858Y1592056D01*
Y1601062D01*
X3591712Y1606244D01*
X3595053Y1611244D01*
X3666609D01*
X3666643Y1611074D01*
X3668853Y1607766D01*
X3677585Y1599034D01*
X3680893Y1596824D01*
X3684795Y1596048D01*
X3704890D01*
X3708792Y1596824D01*
X3712100Y1599034D01*
X3717958Y1604892D01*
X3720168Y1608200D01*
X3720773Y1611244D01*
X3774947D01*
X3778288Y1606244D01*
X3776142Y1601062D01*
Y1592056D01*
X3779588Y1583736D01*
X3785956Y1577368D01*
X3794277Y1573921D01*
X3803282D01*
X3811603Y1577368D01*
X3817971Y1583736D01*
X3821417Y1592056D01*
Y1601062D01*
X3819271Y1606244D01*
X3822612Y1611244D01*
X3827795D01*
Y1636382D01*
X3810984D01*
Y1638882D01*
X3808484D01*
Y1666520D01*
X3794782D01*
Y1673284D01*
X3806043D01*
Y1696000D01*
Y1718716D01*
X3794782D01*
Y1736465D01*
X3793618Y1742318D01*
X3790303Y1747280D01*
X3738398Y1799185D01*
X3733436Y1802500D01*
X3727583Y1803664D01*
D02*
G37*
G36*
X3934095Y1613744D02*
X3888681D01*
Y1571874D01*
X3934095D01*
Y1613744D01*
D02*
G37*
G36*
X3883681D02*
X3838268D01*
Y1571874D01*
X3883681D01*
Y1613744D01*
D02*
G37*
G36*
X3531732D02*
X3486319D01*
Y1571874D01*
X3531732D01*
Y1613744D01*
D02*
G37*
G36*
X3481319D02*
X3435905D01*
Y1571874D01*
X3481319D01*
Y1613744D01*
D02*
G37*
G36*
X4298051Y1599610D02*
X4228622D01*
Y1567583D01*
X4298051D01*
Y1599610D01*
D02*
G37*
G36*
X4029059Y1569653D02*
Y1545500D01*
X4052228D01*
Y1569653D01*
X4029059D01*
D02*
G37*
G36*
X4052228Y1540500D02*
X4029059D01*
Y1516347D01*
X4052228D01*
Y1540500D01*
D02*
G37*
G36*
X4068779Y1508290D02*
X4036024D01*
Y1495791D01*
X4031024Y1495299D01*
X4030427Y1498302D01*
X4026807Y1503720D01*
X4021390Y1507339D01*
X4017500Y1508113D01*
Y1476945D01*
Y1445778D01*
X4021390Y1446552D01*
X4026807Y1450171D01*
X4030427Y1455589D01*
X4031024Y1458592D01*
X4036024Y1458100D01*
Y1445601D01*
X4068779D01*
Y1508290D01*
D02*
G37*
G36*
X3934095Y1505890D02*
X3888681D01*
Y1464020D01*
X3934095D01*
Y1505890D01*
D02*
G37*
G36*
X3883681D02*
X3838268D01*
Y1464020D01*
X3883681D01*
Y1505890D01*
D02*
G37*
G36*
X4253232Y1559039D02*
X4247593D01*
X4231514Y1556493D01*
X4216031Y1551462D01*
X4201526Y1544071D01*
X4188355Y1534503D01*
X4176844Y1522991D01*
X4167275Y1509821D01*
X4159884Y1495316D01*
X4154854Y1479833D01*
X4152307Y1463754D01*
Y1458114D01*
X4253232D01*
Y1559039D01*
D02*
G37*
G36*
X3111500D02*
X3105860D01*
X3089781Y1556493D01*
X3074298Y1551462D01*
X3059793Y1544071D01*
X3046623Y1534503D01*
X3035112Y1522991D01*
X3025543Y1509821D01*
X3018152Y1495316D01*
X3013122Y1479833D01*
X3010575Y1463754D01*
Y1458114D01*
X3111500D01*
Y1559039D01*
D02*
G37*
G36*
X4138717Y1446339D02*
X4118500D01*
Y1431043D01*
X4138717D01*
Y1446339D01*
D02*
G37*
G36*
X4113500D02*
X4093284D01*
Y1431043D01*
X4113500D01*
Y1446339D01*
D02*
G37*
G36*
X3934095Y1459020D02*
X3888681D01*
Y1417150D01*
X3934095D01*
Y1459020D01*
D02*
G37*
G36*
X3883681D02*
X3838268D01*
Y1417150D01*
X3883681D01*
Y1459020D01*
D02*
G37*
G36*
X3531732D02*
X3486319D01*
Y1417150D01*
X3531732D01*
Y1459020D01*
D02*
G37*
G36*
X3481319D02*
X3435905D01*
Y1417150D01*
X3481319D01*
Y1459020D01*
D02*
G37*
G36*
X4138717Y1426043D02*
X4118500D01*
Y1410748D01*
X4138717D01*
Y1426043D01*
D02*
G37*
G36*
X4113500D02*
X4093284D01*
Y1410748D01*
X4113500D01*
Y1426043D01*
D02*
G37*
%LPD*%
G36*
X4234297Y4198804D02*
X4232514Y4197021D01*
X4228650Y4190329D01*
X4226650Y4182864D01*
Y4175136D01*
X4228650Y4167671D01*
X4232514Y4160979D01*
X4237979Y4155514D01*
X4244671Y4151650D01*
X4252136Y4149650D01*
X4259864D01*
X4267329Y4151650D01*
X4274021Y4155514D01*
X4279486Y4160979D01*
X4283350Y4167671D01*
X4285350Y4175136D01*
Y4182864D01*
X4283350Y4190329D01*
X4287583Y4192998D01*
X4294804Y4185777D01*
Y4157223D01*
X4286488Y4148907D01*
X4285076Y4149492D01*
X4276924D01*
X4269392Y4146372D01*
X4263628Y4140608D01*
X4261087Y4134474D01*
X4250913D01*
X4248372Y4140608D01*
X4242608Y4146372D01*
X4235076Y4149492D01*
X4226924D01*
X4222684Y4147736D01*
X4213265Y4157154D01*
X4209957Y4159365D01*
X4206055Y4160141D01*
X4142529D01*
X4141706Y4161293D01*
X4140639Y4165141D01*
X4179302Y4203804D01*
X4232225D01*
X4234297Y4198804D01*
D02*
G37*
G36*
X3645504Y1697504D02*
X3667618D01*
X3668713Y1692949D01*
X3668723Y1692504D01*
X3664072Y1687853D01*
X3661513Y1681675D01*
Y1681000D01*
X3661208Y1680939D01*
X3657900Y1678729D01*
X3650078Y1670907D01*
X3646526Y1671821D01*
X3645078Y1672820D01*
Y1674740D01*
X3644302Y1678642D01*
X3642091Y1681950D01*
X3636339Y1687703D01*
Y1718716D01*
X3605806D01*
Y1750306D01*
X3604642Y1756159D01*
X3601326Y1761121D01*
X3593990Y1768457D01*
X3595904Y1773076D01*
X3645504D01*
Y1697504D01*
D02*
G37*
D12*
X4200000Y4052000D02*
X4216146Y4035854D01*
X4224146D02*
X4231000Y4029000D01*
X4216146Y4035854D02*
X4224146D01*
X3764890Y2958331D02*
X3780559Y2974000D01*
X3755000Y2936686D02*
X3764890Y2946576D01*
Y2958331D01*
X3755000Y2933000D02*
Y2936686D01*
X3591441Y2776000D02*
X3601524Y2786083D01*
Y2806524D02*
X3619000Y2824000D01*
X3601524Y2786083D02*
Y2806524D01*
X3619000Y2824000D02*
Y2824000D01*
X3591441Y2974000D02*
X3606000Y2959441D01*
Y2935000D02*
Y2959441D01*
X3728000Y2277000D02*
Y2650409D01*
X3727000Y2651409D02*
X3728000Y2650409D01*
X3630188Y2130986D02*
X3644000Y2144798D01*
X3630188Y2127300D02*
Y2130986D01*
X3644000Y2144798D02*
Y2651409D01*
X3642638Y1949630D02*
X3655504D01*
X3685937Y1980063D01*
X3586244Y1908000D02*
X3601008D01*
X3642638Y1949630D01*
X3448000Y1916409D02*
X3476992Y1945402D01*
X3491756D01*
X3415000Y1916409D02*
X3448000D01*
X3112409Y1967591D02*
X3415000D01*
X3100000Y1980000D02*
X3112409Y1967591D01*
X3085000Y2131657D02*
X3100000Y2116657D01*
Y1980000D02*
Y2116657D01*
X3085000Y2131657D02*
Y2272000D01*
X3670783Y1819000D02*
X3831846Y1980063D01*
X3928063D01*
X3534151Y1819000D02*
X3670783D01*
X3388000Y1754685D02*
X3469836D01*
X3534151Y1819000D01*
X3706847Y1677029D02*
Y1680715D01*
X3665110Y1671520D02*
X3679216D01*
X3691063Y1665653D02*
X3693937Y1662779D01*
X3679216Y1671520D02*
Y1677439D01*
X3685205Y1671520D02*
X3691063Y1665662D01*
X3713622Y1623055D02*
X3714528Y1622150D01*
X3706847Y1677029D02*
X3713622Y1670253D01*
X3655472Y1638882D02*
X3656378Y1639787D01*
X3713622Y1623055D02*
Y1670253D01*
X3656378Y1662788D02*
X3665110Y1671520D01*
X3678324Y1678331D02*
X3679216Y1677439D01*
Y1671520D02*
X3685205D01*
X3693937Y1639787D02*
X3694843Y1638882D01*
X3656378Y1639787D02*
Y1662788D01*
X3693937Y1639787D02*
Y1662779D01*
X3691063Y1665653D02*
Y1665662D01*
X3710748Y1618370D02*
X3714528Y1622150D01*
X3264362Y4223000D02*
Y4313495D01*
X3538205Y3393016D02*
X3577000Y3431811D01*
Y3588000D01*
X3346000Y3819000D02*
X3577000Y3588000D01*
X3538205Y3237787D02*
Y3393016D01*
X3264362Y4171000D02*
Y4220984D01*
X3386937Y1754685D02*
X3388000D01*
X3676063Y1614976D02*
Y1637976D01*
Y1614976D02*
X3684795Y1606244D01*
X3704890D01*
X3710748Y1612102D01*
X3675157Y1638882D02*
X3676063Y1637976D01*
X3710748Y1612102D02*
Y1618370D01*
X3634882Y1639787D02*
Y1674740D01*
X3618543Y1691079D02*
X3634882Y1674740D01*
X3072937Y1778000D02*
X3315063D01*
X3363622D01*
X3386937Y1754685D01*
X4058484Y1371457D02*
X4116000D01*
X4052402Y1377539D02*
X4058484Y1371457D01*
X4052402Y1377539D02*
Y1389054D01*
X3751457Y1658055D02*
X3753898Y1655614D01*
Y1638882D02*
Y1655614D01*
X3751457Y1658055D02*
Y1696000D01*
X3634882Y1639787D02*
X3635787Y1638882D01*
X3618543Y1691079D02*
Y1696000D01*
X3942370Y3382653D02*
Y3491000D01*
X3602000Y4102874D02*
X3617575Y4118449D01*
X3602000Y3959000D02*
Y4102874D01*
X3557607Y3803264D02*
X3574000Y3819657D01*
Y3864000D01*
X3557607Y3762607D02*
Y3803264D01*
Y3762607D02*
X3803226Y3516987D01*
X3917445D02*
X3942370Y3492063D01*
X3803226Y3516987D02*
X3917445D01*
X3942370Y3491000D02*
Y3492063D01*
X3808000Y3491000D02*
X3893000D01*
X3773658Y3490658D02*
X3892658D01*
X3539000Y3760000D02*
Y3861000D01*
X3541000Y3863000D01*
X3539000Y3760000D02*
X3808000Y3491000D01*
X3656472Y3407079D02*
Y3596741D01*
X3481748Y3771465D02*
X3656472Y3596741D01*
X3617102Y3407079D02*
Y3592111D01*
X3636787Y3407079D02*
Y3595213D01*
X3361000Y3827000D02*
X3592417Y3595583D01*
X3695843Y3407079D02*
Y3578584D01*
X3592417Y3412079D02*
Y3595583D01*
X3515213Y3759214D02*
X3695843Y3578584D01*
X3448283Y3783717D02*
X3636787Y3595213D01*
X3376000Y3833213D02*
X3617102Y3592111D01*
X3519850Y3218472D02*
X3538205Y3236827D01*
Y3237787D02*
X3565921D01*
X3538205Y3236827D02*
Y3237787D01*
X3346000Y3996480D02*
X3399071Y4049551D01*
X3346000Y3819000D02*
Y3996480D01*
X3399071Y4049551D02*
X3406945D01*
X3361000Y3827000D02*
Y3976764D01*
X3366858Y3982622D02*
X3406945D01*
X3361000Y3976764D02*
X3366858Y3982622D01*
X3523835Y3974000D02*
X3582142Y3915693D01*
X3455000Y3974000D02*
X3523835D01*
X3582142Y3907819D02*
Y3915693D01*
X3691768Y3924425D02*
Y3958503D01*
X3706768Y3924425D02*
Y3958503D01*
X3713579Y3965314D01*
X3706768Y3924425D02*
X3712626Y3918567D01*
X3716000Y3907819D02*
Y3915693D01*
X3685409Y3918567D02*
X3685910D01*
X3684957Y3965314D02*
X3691768Y3958503D01*
X3682535Y3915693D02*
X3685409Y3918567D01*
X3713579Y3965314D02*
Y3969000D01*
X3712626Y3918567D02*
X3713126D01*
X3716000Y3915693D01*
X3682535Y3907819D02*
Y3915693D01*
X3684957Y3965314D02*
Y3969000D01*
X3685910Y3918567D02*
X3691768Y3924425D01*
X3265315Y4342000D02*
Y4343063D01*
X3314252Y4392000D01*
X3348000D01*
X4010000Y4280686D02*
X4023410Y4294096D01*
X4010000Y4277000D02*
Y4280686D01*
X4023410Y4294096D02*
Y4333000D01*
X3264362Y4153953D02*
Y4168984D01*
X3235984Y4140606D02*
X3264362Y4168984D01*
X3230606Y4140606D02*
X3235984D01*
X3228000Y4138000D02*
X3230606Y4140606D01*
X3406945Y4016087D02*
X3471087D01*
X3488000Y4033000D02*
Y4104000D01*
X3471087Y4016087D02*
X3488000Y4033000D01*
X3259472Y4093123D02*
X3259762Y4093413D01*
Y4149353D01*
X3264362Y4313495D02*
X3269858Y4308000D01*
X3264000Y4313858D02*
X3264362Y4313495D01*
X3264000Y4340685D02*
X3264362Y4341047D01*
Y4313495D02*
Y4341047D01*
X3265315Y4342000D01*
X3259762Y4149353D02*
X3264362Y4153953D01*
X3264000Y4313858D02*
Y4340685D01*
X3269858Y4308000D02*
X3356338D01*
X3399071Y4350732D02*
X3406945D01*
X3356338Y4308000D02*
X3399071Y4350732D01*
X4074591Y4333000D02*
Y4390409D01*
X3958126Y4417661D02*
X4047339D01*
X4074591Y4390409D01*
Y4246898D02*
X4085000Y4236488D01*
X4074591Y4246898D02*
Y4333000D01*
X4085000Y4236488D02*
X4085488Y4236000D01*
X4151000D01*
X4190000Y4113000D02*
X4192606Y4110394D01*
X4199606D02*
X4231000Y4079000D01*
X4192606Y4110394D02*
X4199606D01*
X4175079Y4214000D02*
X4281000D01*
X4132449Y4171370D02*
X4175079Y4214000D01*
X4281000D02*
X4305000Y4190000D01*
Y4153000D02*
Y4190000D01*
X4281000Y4129000D02*
X4305000Y4153000D01*
X4345350Y3958558D02*
Y4014650D01*
X4281000Y4079000D02*
X4345350Y4014650D01*
X3958126Y4083016D02*
X3983984D01*
X4000000Y4067000D01*
Y4019945D02*
Y4067000D01*
X4090295Y3929650D02*
X4316442D01*
X4345350Y3958558D01*
X4000000Y4019945D02*
X4090295Y3929650D01*
X4297000Y4029000D02*
X4298000Y4030000D01*
X4281000Y4029000D02*
X4297000D01*
X4128599Y4116480D02*
X4165185Y4079894D01*
Y3981236D02*
Y4079894D01*
X4330350Y3964772D02*
Y3997650D01*
X3958126Y4116480D02*
X4128599D01*
X4165185Y3981236D02*
X4201772Y3944650D01*
X4310228D01*
X4330350Y3964772D01*
X4298000Y4030000D02*
X4330350Y3997650D01*
X3958126Y4183409D02*
X3966000D01*
X3978039Y4171370D01*
X4132449D01*
X4274146Y4135854D02*
X4281000Y4129000D01*
X4206055Y4149945D02*
X4218000Y4138000D01*
X3958126Y4149945D02*
X4206055D01*
X3515213Y3759214D02*
Y3907819D01*
X3481748Y3771465D02*
Y3907819D01*
X3448283Y3783717D02*
Y3907819D01*
X3376000Y3833213D02*
Y3943300D01*
X3381858Y3949157D01*
X3406945D01*
X3592417Y3412079D02*
X3597417Y3407079D01*
X3966609Y3191871D02*
Y3283698D01*
X3906176Y3180571D02*
X3955309D01*
X3936685Y3313622D02*
Y3315591D01*
Y3313622D02*
X3966609Y3283698D01*
X3955309Y3180571D02*
X3966609Y3191871D01*
X3906176Y3180571D02*
Y3201013D01*
X3895189Y3212000D02*
X3906176Y3201013D01*
X3942685Y3143000D02*
Y3144063D01*
X3906176Y3180571D02*
X3942685Y3144063D01*
X3894284Y3212000D02*
X3895189D01*
X3781000Y2776441D02*
Y2820000D01*
X3780559Y2776000D02*
X3781000Y2776441D01*
X3939716Y3380000D02*
X3942370Y3382653D01*
X3936685Y3376969D02*
X3939716Y3380000D01*
X3879795Y3198417D02*
X3893378Y3212000D01*
X3806079Y3198417D02*
X3879795D01*
X3893378Y3212000D02*
X3894284D01*
X3725378Y3326378D02*
X3778362D01*
X3686000Y3287000D02*
X3725378Y3326378D01*
X3787488Y3335504D02*
X3805370D01*
X3778362Y3326378D02*
X3787488Y3335504D01*
X3778362Y3287008D02*
Y3326378D01*
X3805370Y3335504D02*
X3806079Y3336213D01*
X3780000Y3198417D02*
X3806079D01*
X3709473D02*
X3780000D01*
X3778362Y3200055D02*
X3780000Y3198417D01*
X3778362Y3200055D02*
Y3287008D01*
X3787488Y3296134D01*
X3805370D01*
X3806079Y3296843D01*
X3705693Y3194638D02*
X3709473Y3198417D01*
X3714819Y3167630D02*
X3715528Y3166921D01*
X3714819Y3167630D02*
Y3185512D01*
X3705693Y3194638D02*
X3714819Y3185512D01*
X3626953Y3194638D02*
X3705693D01*
X3636079Y3167630D02*
X3636787Y3166921D01*
X3598126Y3185512D02*
X3607252Y3194638D01*
X3626953D02*
X3636079Y3185512D01*
Y3167630D02*
Y3185512D01*
X3598126Y3167630D02*
Y3185512D01*
X3607252Y3194638D02*
X3626953D01*
X3597417Y3166921D02*
X3598126Y3167630D01*
X3539732Y3164108D02*
X3577840Y3126000D01*
X3539732Y3164108D02*
Y3187173D01*
Y3198721D02*
Y3210268D01*
Y3187173D02*
Y3198721D01*
X3565618D02*
X3565921Y3198417D01*
X3539732Y3198721D02*
X3565618D01*
X3546858Y3217394D02*
X3565213D01*
X3513000Y3162410D02*
X3514968D01*
X3539732Y3187173D01*
Y3210268D02*
X3546858Y3217394D01*
X3565213D02*
X3565921Y3218102D01*
X3849000Y3408000D02*
Y3452000D01*
X3848000Y3453000D02*
X3849000Y3452000D01*
X3831000Y3014686D02*
X3846617Y3030303D01*
X3831000Y3011000D02*
Y3014686D01*
X3846617Y3030303D02*
Y3068000D01*
X3523293Y3067000D02*
X3541845Y3085552D01*
X3520383Y3067000D02*
X3523293D01*
X3541845Y3085552D02*
Y3090005D01*
X3577840Y3126000D01*
X3627000D01*
X3735213Y3452213D02*
X3773658Y3490658D01*
X3735213Y3407079D02*
Y3452213D01*
X3891315Y3434000D02*
X3892315Y3435000D01*
X3875000Y3434000D02*
X3891315D01*
X3849000Y3408000D02*
X3875000Y3434000D01*
X3806787Y3317236D02*
X3824670D01*
X3849000Y3341566D02*
Y3408000D01*
X3806079Y3316528D02*
X3806787Y3317236D01*
X3824670D02*
X3849000Y3341566D01*
X3892658Y3435342D02*
Y3490658D01*
X3892315Y3435000D02*
X3892658Y3435342D01*
X3897315Y3215031D02*
Y3264409D01*
X3894284Y3212000D02*
X3897315Y3215031D01*
X3936685Y3315591D02*
Y3376969D01*
X3840197Y2876378D02*
X3918000D01*
X3839575Y2877000D02*
X3840197Y2876378D01*
X3918000Y3009540D02*
X3919000Y3010540D01*
X3918000Y2923622D02*
Y3009540D01*
X3917540Y3012000D02*
X3919000Y3010540D01*
X3872000Y3012000D02*
X3917540D01*
X3775000Y3141000D02*
X3787000Y3129000D01*
X3827000D01*
X3774583Y3166921D02*
X3775000Y3166504D01*
Y3141000D02*
Y3166504D01*
X3790472Y3068000D02*
X3793383D01*
X3735213Y3123260D02*
Y3166921D01*
Y3123260D02*
X3790472Y3068000D01*
X3725441Y2704149D02*
Y2776000D01*
Y2704149D02*
X3727000Y2702590D01*
X3646559Y2705150D02*
Y2776000D01*
X3644000Y2702590D02*
X3646559Y2705150D01*
X3719000Y2782441D02*
Y2855378D01*
Y2782441D02*
X3725441Y2776000D01*
X3652000Y2781441D02*
Y2855378D01*
X3646559Y2776000D02*
X3652000Y2781441D01*
X3719000Y2902622D02*
X3763756D01*
X3786425Y2879953D01*
Y2877000D02*
Y2879953D01*
X3719000Y2902622D02*
X3725441Y2909063D01*
Y2974000D01*
X3652000Y2902622D02*
Y2968559D01*
X3646559Y2974000D02*
X3652000Y2968559D01*
X3725441Y2974000D02*
Y3035953D01*
X3720000Y3041394D02*
X3725441Y3035953D01*
X3646559Y2974000D02*
Y3036953D01*
X3651000Y3041394D01*
X3695843Y3105905D02*
X3711142Y3090606D01*
X3720000D01*
X3695843Y3105905D02*
Y3166921D01*
X3651000Y3090606D02*
X3656472Y3096079D01*
Y3166921D01*
D13*
X3897315Y3315591D02*
Y3376969D01*
X3894284Y3380000D02*
X3897315Y3376969D01*
X3936685Y3215031D02*
X3939716Y3212000D01*
X3936685Y3215031D02*
Y3264409D01*
X3806079Y3257472D02*
X3852212D01*
X3881413Y3286673D01*
X3916390D01*
X3936685Y3266378D01*
Y3264409D02*
Y3266378D01*
X3806079Y3277157D02*
X3833337D01*
X3871770Y3315591D01*
X3897315D01*
D27*
X4074173Y1694630D02*
D03*
Y1773370D02*
D03*
D28*
X4300551Y1602110D02*
D03*
Y1865890D02*
D03*
D29*
X3928063Y1980063D02*
D03*
Y1737937D02*
D03*
X3685937D02*
D03*
Y1980063D02*
D03*
D30*
X3753898Y1638882D02*
D03*
X3734213D02*
D03*
X3714528D02*
D03*
X3694843D02*
D03*
X3675157D02*
D03*
X3655472D02*
D03*
X3635787D02*
D03*
X3616102D02*
D03*
D31*
X3779488D02*
D03*
X3590512D02*
D03*
X3810984D02*
D03*
X3559016D02*
D03*
D32*
X3886181Y1616244D02*
D03*
X3483819D02*
D03*
X3886181Y1461520D02*
D03*
X3483819D02*
D03*
D33*
X3893315Y3143000D02*
D03*
X3942685D02*
D03*
X3314685Y4342000D02*
D03*
X3265315D02*
D03*
X3314685Y4274000D02*
D03*
X3265315D02*
D03*
X3942370Y3491000D02*
D03*
X3893000D02*
D03*
X3941685Y3435000D02*
D03*
X3892315D02*
D03*
D34*
X3389000Y1513071D02*
D03*
Y1396929D02*
D03*
D35*
X3388000Y1705315D02*
D03*
Y1754685D02*
D03*
D36*
X3273000Y1589917D02*
D03*
X3310402Y1504083D02*
D03*
D37*
X3235598D02*
D03*
D38*
X3072937Y1778000D02*
D03*
D39*
X3315063Y1868551D02*
D03*
Y1778000D02*
D03*
Y1687449D02*
D03*
D40*
X3389000Y1659000D02*
D03*
Y1601913D02*
D03*
D41*
X4052402Y1389054D02*
D03*
X3977598D02*
D03*
Y1476945D02*
D03*
X4015000D02*
D03*
D42*
X4052402D02*
D03*
D43*
X4116000Y1428543D02*
D03*
Y1371457D02*
D03*
D44*
X3971441Y1543000D02*
D03*
X4026559D02*
D03*
X3725441Y2974000D02*
D03*
X3780559D02*
D03*
X3725441Y2776000D02*
D03*
X3780559D02*
D03*
X3591441Y2974000D02*
D03*
X3646559D02*
D03*
X3591441Y2776000D02*
D03*
X3646559D02*
D03*
D45*
X3793383Y3068000D02*
D03*
X3846617D02*
D03*
X3573617Y3067000D02*
D03*
X3520383D02*
D03*
D46*
X3936685Y3315591D02*
D03*
Y3264409D02*
D03*
X3897315D02*
D03*
Y3315591D02*
D03*
D47*
X3894284Y3380000D02*
D03*
X3939716D02*
D03*
Y3212000D02*
D03*
X3894284D02*
D03*
D48*
X3513000Y3213591D02*
D03*
Y3162410D02*
D03*
X3415000Y1967591D02*
D03*
Y1916409D02*
D03*
D49*
X3919000Y3010540D02*
D03*
Y3079460D02*
D03*
D50*
X3918000Y2923622D02*
D03*
Y2876378D02*
D03*
X3719000Y2902622D02*
D03*
Y2855378D02*
D03*
X3652000D02*
D03*
Y2902622D02*
D03*
D51*
X3839575Y2877000D02*
D03*
X3786425D02*
D03*
D52*
X3727000Y2651409D02*
D03*
Y2702590D02*
D03*
X3644000Y2651409D02*
D03*
Y2702590D02*
D03*
D53*
X3720000Y3090606D02*
D03*
Y3041394D02*
D03*
X3651000Y3090606D02*
D03*
Y3041394D02*
D03*
D54*
X3586244Y1908000D02*
D03*
X3491756Y1870599D02*
D03*
Y1945402D02*
D03*
D55*
X4074591Y4333000D02*
D03*
X4023410D02*
D03*
X3315591Y4171000D02*
D03*
X3264410D02*
D03*
X3315591Y4223000D02*
D03*
X3264410D02*
D03*
D56*
X3617575Y4183409D02*
D03*
Y4118449D02*
D03*
X3682535D02*
D03*
X3747496D02*
D03*
Y4183409D02*
D03*
Y4248370D02*
D03*
X3682535D02*
D03*
Y4183409D02*
D03*
D57*
X3448283Y4459000D02*
D03*
X3481748D02*
D03*
X3515213D02*
D03*
X3548677D02*
D03*
X3582142D02*
D03*
X3615606D02*
D03*
X3649071D02*
D03*
X3682535D02*
D03*
X3716000D02*
D03*
X3749465D02*
D03*
X3782929D02*
D03*
X3816394D02*
D03*
X3849858D02*
D03*
X3883323D02*
D03*
X3916787D02*
D03*
Y3907819D02*
D03*
X3883323D02*
D03*
X3849858D02*
D03*
X3816394D02*
D03*
X3782929D02*
D03*
X3749465D02*
D03*
X3716000D02*
D03*
X3682535D02*
D03*
X3649071D02*
D03*
X3615606D02*
D03*
X3582142D02*
D03*
X3548677D02*
D03*
X3515213D02*
D03*
X3481748D02*
D03*
X3448283D02*
D03*
D58*
X3958126Y4417661D02*
D03*
Y4384197D02*
D03*
Y4350732D02*
D03*
Y4317268D02*
D03*
Y4283803D02*
D03*
Y4250338D02*
D03*
Y4216874D02*
D03*
Y4183409D02*
D03*
Y4149945D02*
D03*
Y4116480D02*
D03*
Y4083016D02*
D03*
Y4049551D02*
D03*
Y4016087D02*
D03*
Y3982622D02*
D03*
Y3949157D02*
D03*
X3406945D02*
D03*
Y3982622D02*
D03*
Y4016087D02*
D03*
Y4049551D02*
D03*
Y4083016D02*
D03*
Y4116480D02*
D03*
Y4149945D02*
D03*
Y4183409D02*
D03*
Y4216874D02*
D03*
Y4250338D02*
D03*
Y4283803D02*
D03*
Y4317268D02*
D03*
Y4350732D02*
D03*
Y4384197D02*
D03*
Y4417661D02*
D03*
D59*
X3958126Y3907819D02*
D03*
Y4459000D02*
D03*
X3406945Y3907819D02*
D03*
Y4459000D02*
D03*
D60*
X4085000Y4236488D02*
D03*
Y4047512D02*
D03*
D61*
X3259472Y4093123D02*
D03*
X3279157D02*
D03*
X3298843D02*
D03*
X3318528D02*
D03*
Y3980877D02*
D03*
X3298843D02*
D03*
X3279157D02*
D03*
D62*
X3259472D02*
D03*
D63*
X3561457Y1696000D02*
D03*
X3618543D02*
D03*
X3808543D02*
D03*
X3751457D02*
D03*
D71*
X3686000Y3287000D02*
D03*
D72*
X3565921Y3198417D02*
D03*
Y3218102D02*
D03*
Y3237787D02*
D03*
Y3257472D02*
D03*
Y3277157D02*
D03*
Y3296843D02*
D03*
Y3316528D02*
D03*
Y3336213D02*
D03*
Y3355898D02*
D03*
Y3375583D02*
D03*
X3806079D02*
D03*
Y3355898D02*
D03*
Y3336213D02*
D03*
Y3316528D02*
D03*
Y3296843D02*
D03*
Y3277157D02*
D03*
Y3257472D02*
D03*
Y3237787D02*
D03*
Y3218102D02*
D03*
Y3198417D02*
D03*
D73*
X3597417Y3407079D02*
D03*
X3617102D02*
D03*
X3636787D02*
D03*
X3656472D02*
D03*
X3676157D02*
D03*
X3695843D02*
D03*
X3715528D02*
D03*
X3735213D02*
D03*
X3754898D02*
D03*
X3774583D02*
D03*
Y3166921D02*
D03*
X3754898D02*
D03*
X3735213D02*
D03*
X3715528D02*
D03*
X3695843D02*
D03*
X3676157D02*
D03*
X3656472D02*
D03*
X3636787D02*
D03*
X3617102D02*
D03*
X3597417D02*
D03*
D81*
X3617575Y4248370D02*
D03*
D85*
X3289000Y4037000D02*
D03*
D86*
X3798780Y1596559D02*
D03*
X3571220D02*
D03*
D90*
X4281000Y4029000D02*
D03*
X4231000D02*
D03*
X4281000Y4079000D02*
D03*
X4231000D02*
D03*
X4281000Y4129000D02*
D03*
X4231000D02*
D03*
D91*
X3552448Y1788370D02*
X3590512Y1750306D01*
Y1638882D02*
Y1750306D01*
X3552448Y1788370D02*
X3727583D01*
X3425905Y1661827D02*
X3552448Y1788370D01*
X3727583D02*
X3779488Y1736465D01*
X3776674Y1389054D02*
X3977598D01*
X3649839Y1515890D02*
X3776674Y1389054D01*
X3434692Y1515890D02*
X3649839D01*
X3431873Y1513071D02*
X3434692Y1515890D01*
X3389000Y1513071D02*
X3431873D01*
X3779488Y1638882D02*
Y1736465D01*
X3315339Y1868276D02*
X3386724D01*
X3387000Y1868000D01*
X3315063Y1868551D02*
X3315339Y1868276D01*
X3340020Y1585000D02*
X3341000D01*
X3273000Y1589917D02*
X3335103D01*
X3340020Y1585000D01*
X3267000Y1442000D02*
X3267610D01*
X3310402Y1484792D02*
Y1504083D01*
X3267610Y1442000D02*
X3310402Y1484792D01*
X3971441Y1498815D02*
Y1543000D01*
Y1498815D02*
X3977598Y1492658D01*
Y1476945D02*
Y1492658D01*
X3983157Y1694630D02*
X4074173D01*
X3971441Y1543000D02*
Y1682914D01*
X3983157Y1694630D01*
X3912980Y1537000D02*
X3918980Y1543000D01*
X3912000Y1537000D02*
X3912980D01*
X3918980Y1543000D02*
X3971441D01*
X3299092Y1551289D02*
X3351373D01*
X3389000Y1513661D01*
Y1599401D01*
Y1513071D02*
Y1513661D01*
X3274092Y1526289D02*
X3299092Y1551289D01*
X3237903Y1526289D02*
X3274092D01*
X3235598Y1523984D02*
X3237903Y1526289D01*
X3235598Y1504083D02*
Y1523984D01*
X3389000Y1396929D02*
Y1397520D01*
X3311283Y1475236D02*
X3389000Y1397520D01*
Y1599401D02*
X3425905Y1636306D01*
Y1661827D01*
D92*
X3053000Y2050722D02*
Y2249000D01*
Y2050722D02*
X3072937Y2030785D01*
X3038000Y2264000D02*
X3053000Y2249000D01*
X3072937Y1778000D02*
Y2030785D01*
X3264362Y4220984D02*
Y4223000D01*
X3038000Y3994622D02*
X3264362Y4220984D01*
X3038000Y2264000D02*
Y3994622D01*
D93*
X3290000Y4146431D02*
Y4197409D01*
X3302858Y4210268D02*
X3304827D01*
X3315591Y4221032D01*
X3290000Y4197409D02*
X3302858Y4210268D01*
X3315591Y4221032D02*
X3343968D01*
X3357000Y4208000D01*
Y4170000D02*
Y4208000D01*
X3414819Y4083016D02*
X3448000Y4116197D01*
Y4148000D01*
X3406945Y4083016D02*
X3414819D01*
X3318528Y4166095D02*
X3368142Y4116480D01*
X3406945D01*
X3318528Y4093123D02*
Y4166095D01*
X3315591Y4169032D02*
X3318528Y4166095D01*
X3315591Y4169032D02*
Y4171000D01*
X3290000Y4146431D02*
X3298843Y4137588D01*
Y4093123D02*
Y4137588D01*
X3903076Y3098209D02*
X3919000Y3082285D01*
X3893315Y3107970D02*
X3903076Y3098209D01*
X3893315Y3107970D02*
Y3143000D01*
X3919000Y3079460D02*
Y3082285D01*
X3756000Y3132686D02*
X3790478Y3098209D01*
X3756000Y3132686D02*
Y3165819D01*
X3790478Y3098209D02*
X3903076D01*
X3754898Y3166921D02*
X3756000Y3165819D01*
X3676000Y3133000D02*
Y3166764D01*
X3676157Y3166921D01*
X3679685Y3076052D02*
Y3129315D01*
X3676000Y3133000D02*
X3679685Y3129315D01*
X3573617Y3067000D02*
X3670633D01*
X3679685Y3076052D01*
D94*
X4255732Y1455614D02*
D03*
X3114000Y4369000D02*
D03*
Y1455614D02*
D03*
X4255732Y4369000D02*
D03*
D95*
X4216000Y3979000D02*
D03*
X4296000D02*
D03*
X4256000Y4179000D02*
D03*
D96*
X3755000Y2933000D02*
D03*
X3619000Y2824000D02*
D03*
X3606000Y2935000D02*
D03*
X3728000Y2277000D02*
D03*
X3630188Y2127300D02*
D03*
X3678324Y1678331D02*
D03*
X3706847Y1680715D02*
D03*
X3085000Y2272000D02*
D03*
X3387000Y1868000D02*
D03*
X3341000Y1585000D02*
D03*
X3267000Y1442000D02*
D03*
X3912000Y1537000D02*
D03*
X3602000Y3959000D02*
D03*
X3574000Y3864000D02*
D03*
X3541000Y3863000D02*
D03*
X3455000Y3974000D02*
D03*
X3713579Y3969000D02*
D03*
X3684957D02*
D03*
X3348000Y4392000D02*
D03*
X4010000Y4277000D02*
D03*
X3228000Y4138000D02*
D03*
X3488000Y4104000D02*
D03*
X3357000Y4170000D02*
D03*
X3448000Y4148000D02*
D03*
X4151000Y4236000D02*
D03*
X4190000Y4113000D02*
D03*
X3626000Y3228000D02*
D03*
X3781000Y2820000D02*
D03*
X3848000Y3453000D02*
D03*
X3831000Y3011000D02*
D03*
X3627000Y3126000D02*
D03*
X3872000Y3012000D02*
D03*
X3827000Y3129000D02*
D03*
M02*
