G04*
G04 #@! TF.GenerationSoftware,Altium Limited,Altium Designer,24.3.1 (35)*
G04*
G04 Layer_Color=65535*
%FSLAX26Y26*%
%MOIN*%
G70*
G04*
G04 #@! TF.SameCoordinates,DB0C34DD-40E0-41A4-B204-7B3182439FE1*
G04*
G04*
G04 #@! TF.FilePolarity,Positive*
G04*
G01*
G75*
%ADD10C,0.009842*%
%ADD11C,0.007874*%
%ADD12C,0.010000*%
%ADD13C,0.005000*%
G36*
X4158383Y1889000D02*
X4057000D01*
Y1944494D01*
X4158383D01*
Y1889000D01*
D02*
G37*
G36*
X3189412Y4098260D02*
X3189633Y4098242D01*
X3189909Y4098205D01*
X3190222Y4098168D01*
X3190571Y4098131D01*
X3190958Y4098058D01*
X3191344Y4097984D01*
X3191767Y4097874D01*
X3192190Y4097763D01*
X3192632Y4097616D01*
X3193092Y4097450D01*
X3193552Y4097266D01*
X3193994Y4097046D01*
X3194030Y4097027D01*
X3194104Y4096990D01*
X3194233Y4096917D01*
X3194417Y4096806D01*
X3194638Y4096659D01*
X3194895Y4096475D01*
X3195208Y4096273D01*
X3195558Y4096015D01*
X3195926Y4095739D01*
X3196330Y4095408D01*
X3196754Y4095040D01*
X3197214Y4094635D01*
X3197674Y4094175D01*
X3198170Y4093678D01*
X3198686Y4093145D01*
X3199201Y4092556D01*
X3194214Y4088140D01*
Y4088158D01*
X3194178Y4088177D01*
X3194141Y4088232D01*
X3194104Y4088306D01*
X3193957Y4088471D01*
X3193754Y4088710D01*
X3193515Y4088986D01*
X3193239Y4089299D01*
X3192908Y4089630D01*
X3192558Y4089980D01*
X3192172Y4090311D01*
X3191749Y4090642D01*
X3191307Y4090955D01*
X3190847Y4091231D01*
X3190369Y4091470D01*
X3189872Y4091636D01*
X3189614Y4091710D01*
X3189375Y4091765D01*
X3189118Y4091783D01*
X3188860Y4091802D01*
X3188731D01*
X3188639Y4091783D01*
X3188529D01*
X3188400Y4091765D01*
X3188087Y4091710D01*
X3187738Y4091636D01*
X3187370Y4091507D01*
X3187002Y4091323D01*
X3186670Y4091084D01*
X3186634Y4091047D01*
X3186542Y4090955D01*
X3186413Y4090808D01*
X3186266Y4090624D01*
X3186100Y4090385D01*
X3185971Y4090109D01*
X3185879Y4089814D01*
X3185861Y4089649D01*
X3185842Y4089483D01*
Y4089465D01*
Y4089446D01*
X3185861Y4089336D01*
X3185879Y4089170D01*
X3185916Y4088950D01*
X3185990Y4088692D01*
X3186100Y4088398D01*
X3186229Y4088103D01*
X3186431Y4087809D01*
X3186450Y4087790D01*
X3186468Y4087754D01*
X3186542Y4087680D01*
X3186634Y4087588D01*
X3186744Y4087459D01*
X3186910Y4087294D01*
X3187112Y4087091D01*
X3187370Y4086834D01*
X3187664Y4086558D01*
X3187995Y4086226D01*
X3188400Y4085858D01*
X3188878Y4085435D01*
X3189394Y4084957D01*
X3189982Y4084442D01*
X3190314Y4084166D01*
X3190645Y4083871D01*
X3191013Y4083558D01*
X3191381Y4083246D01*
X3191399D01*
X3191418Y4083209D01*
X3191473Y4083172D01*
X3191546Y4083098D01*
X3191749Y4082933D01*
X3192006Y4082730D01*
X3192301Y4082473D01*
X3192650Y4082178D01*
X3193018Y4081866D01*
X3193423Y4081516D01*
X3194233Y4080817D01*
X3194619Y4080486D01*
X3194987Y4080154D01*
X3195337Y4079860D01*
X3195631Y4079584D01*
X3195889Y4079345D01*
X3196073Y4079161D01*
X3196091Y4079142D01*
X3196165Y4079069D01*
X3196275Y4078958D01*
X3196404Y4078811D01*
X3196570Y4078627D01*
X3196772Y4078406D01*
X3196974Y4078149D01*
X3197195Y4077891D01*
X3197434Y4077597D01*
X3197674Y4077284D01*
X3198170Y4076603D01*
X3198612Y4075904D01*
X3198814Y4075536D01*
X3198980Y4075186D01*
X3198998Y4075168D01*
X3199017Y4075094D01*
X3199054Y4075002D01*
X3199109Y4074855D01*
X3199182Y4074671D01*
X3199256Y4074469D01*
X3199330Y4074230D01*
X3199422Y4073954D01*
X3199495Y4073659D01*
X3199569Y4073346D01*
X3199642Y4072997D01*
X3199716Y4072647D01*
X3199808Y4071874D01*
X3199845Y4071470D01*
Y4071046D01*
Y4071028D01*
Y4070991D01*
Y4070936D01*
Y4070862D01*
X3199826Y4070752D01*
Y4070623D01*
X3199808Y4070476D01*
X3199790Y4070329D01*
X3199753Y4069942D01*
X3199679Y4069519D01*
X3199587Y4069041D01*
X3199477Y4068507D01*
X3199311Y4067955D01*
X3199109Y4067366D01*
X3198870Y4066778D01*
X3198575Y4066170D01*
X3198226Y4065563D01*
X3197821Y4064956D01*
X3197361Y4064386D01*
X3196827Y4063834D01*
X3196790Y4063797D01*
X3196680Y4063705D01*
X3196514Y4063576D01*
X3196275Y4063392D01*
X3195981Y4063171D01*
X3195613Y4062932D01*
X3195190Y4062674D01*
X3194711Y4062417D01*
X3194178Y4062159D01*
X3193570Y4061902D01*
X3192926Y4061662D01*
X3192227Y4061442D01*
X3191491Y4061258D01*
X3190682Y4061129D01*
X3189835Y4061037D01*
X3188952Y4061000D01*
X3188694D01*
X3188584Y4061018D01*
X3188308Y4061037D01*
X3187995Y4061055D01*
X3187609Y4061092D01*
X3187167Y4061147D01*
X3186707Y4061239D01*
X3186210Y4061331D01*
X3185677Y4061442D01*
X3185125Y4061607D01*
X3184573Y4061773D01*
X3184002Y4061994D01*
X3183432Y4062233D01*
X3182880Y4062509D01*
X3182346Y4062840D01*
X3182310Y4062858D01*
X3182218Y4062932D01*
X3182070Y4063042D01*
X3181868Y4063190D01*
X3181629Y4063392D01*
X3181353Y4063631D01*
X3181040Y4063926D01*
X3180690Y4064275D01*
X3180322Y4064643D01*
X3179936Y4065085D01*
X3179531Y4065563D01*
X3179126Y4066078D01*
X3178722Y4066667D01*
X3178317Y4067274D01*
X3177912Y4067955D01*
X3177526Y4068673D01*
X3183211Y4072114D01*
Y4072095D01*
X3183248Y4072058D01*
X3183285Y4072003D01*
X3183322Y4071911D01*
X3183395Y4071801D01*
X3183469Y4071672D01*
X3183671Y4071378D01*
X3183910Y4071028D01*
X3184205Y4070623D01*
X3184536Y4070200D01*
X3184904Y4069758D01*
X3185327Y4069317D01*
X3185769Y4068894D01*
X3186266Y4068489D01*
X3186781Y4068139D01*
X3187314Y4067845D01*
X3187609Y4067716D01*
X3187885Y4067606D01*
X3188179Y4067514D01*
X3188492Y4067458D01*
X3188786Y4067422D01*
X3189099Y4067403D01*
X3189265D01*
X3189394Y4067422D01*
X3189541Y4067440D01*
X3189706Y4067458D01*
X3189909Y4067495D01*
X3190111Y4067532D01*
X3190571Y4067642D01*
X3191050Y4067826D01*
X3191307Y4067955D01*
X3191546Y4068084D01*
X3191786Y4068231D01*
X3192006Y4068415D01*
X3192025Y4068434D01*
X3192062Y4068470D01*
X3192117Y4068526D01*
X3192190Y4068599D01*
X3192282Y4068691D01*
X3192393Y4068802D01*
X3192614Y4069096D01*
X3192816Y4069427D01*
X3193018Y4069832D01*
X3193092Y4070053D01*
X3193147Y4070274D01*
X3193184Y4070513D01*
X3193202Y4070752D01*
Y4070770D01*
Y4070807D01*
Y4070881D01*
X3193184Y4070954D01*
Y4071065D01*
X3193147Y4071194D01*
X3193092Y4071506D01*
X3192982Y4071874D01*
X3192816Y4072279D01*
X3192724Y4072500D01*
X3192595Y4072721D01*
X3192466Y4072942D01*
X3192301Y4073162D01*
X3192282Y4073181D01*
X3192264Y4073218D01*
X3192209Y4073291D01*
X3192117Y4073383D01*
X3192006Y4073512D01*
X3191859Y4073678D01*
X3191694Y4073862D01*
X3191473Y4074082D01*
X3191234Y4074322D01*
X3190958Y4074598D01*
X3190626Y4074910D01*
X3190277Y4075242D01*
X3189854Y4075591D01*
X3189412Y4075996D01*
X3188915Y4076419D01*
X3188363Y4076861D01*
X3188345Y4076879D01*
X3188290Y4076916D01*
X3188216Y4076971D01*
X3188106Y4077063D01*
X3187977Y4077174D01*
X3187811Y4077321D01*
X3187646Y4077468D01*
X3187443Y4077634D01*
X3187204Y4077836D01*
X3186965Y4078038D01*
X3186450Y4078498D01*
X3185879Y4078995D01*
X3185272Y4079547D01*
X3184628Y4080118D01*
X3184002Y4080725D01*
X3183377Y4081332D01*
X3182770Y4081939D01*
X3182218Y4082528D01*
X3181702Y4083117D01*
X3181463Y4083393D01*
X3181261Y4083669D01*
X3181058Y4083926D01*
X3180893Y4084166D01*
X3180874Y4084202D01*
X3180819Y4084276D01*
X3180746Y4084423D01*
X3180635Y4084607D01*
X3180506Y4084846D01*
X3180359Y4085122D01*
X3180212Y4085435D01*
X3180046Y4085766D01*
X3179881Y4086153D01*
X3179734Y4086558D01*
X3179586Y4086981D01*
X3179458Y4087422D01*
X3179366Y4087882D01*
X3179274Y4088342D01*
X3179218Y4088821D01*
X3179200Y4089299D01*
Y4089318D01*
Y4089336D01*
Y4089391D01*
Y4089465D01*
X3179218Y4089667D01*
X3179237Y4089925D01*
X3179292Y4090238D01*
X3179347Y4090606D01*
X3179439Y4091029D01*
X3179550Y4091470D01*
X3179697Y4091967D01*
X3179881Y4092464D01*
X3180120Y4092998D01*
X3180396Y4093531D01*
X3180709Y4094065D01*
X3181095Y4094598D01*
X3181518Y4095132D01*
X3182015Y4095629D01*
X3182052Y4095666D01*
X3182144Y4095739D01*
X3182310Y4095868D01*
X3182512Y4096052D01*
X3182788Y4096236D01*
X3183119Y4096475D01*
X3183506Y4096714D01*
X3183947Y4096954D01*
X3184426Y4097193D01*
X3184941Y4097432D01*
X3185511Y4097671D01*
X3186137Y4097874D01*
X3186781Y4098039D01*
X3187480Y4098168D01*
X3188198Y4098242D01*
X3188952Y4098278D01*
X3189210D01*
X3189412Y4098260D01*
D02*
G37*
G36*
X3225715Y4090771D02*
X3213038D01*
Y4084350D01*
X3225715D01*
Y4077854D01*
X3213038D01*
Y4068507D01*
X3225715D01*
Y4061883D01*
X3206322D01*
Y4097377D01*
X3225715D01*
Y4090771D01*
D02*
G37*
G36*
X3161002Y4088802D02*
X3161186D01*
X3161389Y4088784D01*
X3161610Y4088766D01*
X3161867Y4088729D01*
X3162143Y4088692D01*
X3162438Y4088655D01*
X3162750Y4088618D01*
X3163431Y4088490D01*
X3164167Y4088324D01*
X3164958Y4088122D01*
X3165786Y4087846D01*
X3166614Y4087533D01*
X3167461Y4087146D01*
X3167884Y4086926D01*
X3168307Y4086686D01*
X3168730Y4086429D01*
X3169135Y4086153D01*
X3169540Y4085858D01*
X3169926Y4085546D01*
X3170313Y4085214D01*
X3170681Y4084846D01*
X3170699Y4084828D01*
X3170718Y4084810D01*
X3170773Y4084736D01*
X3170846Y4084662D01*
X3170938Y4084570D01*
X3171049Y4084442D01*
X3171159Y4084294D01*
X3171288Y4084129D01*
X3171435Y4083945D01*
X3171582Y4083724D01*
X3171748Y4083503D01*
X3171914Y4083246D01*
X3172079Y4082970D01*
X3172263Y4082694D01*
X3172447Y4082381D01*
X3172631Y4082050D01*
X3172797Y4081700D01*
X3172981Y4081332D01*
X3173165Y4080946D01*
X3173330Y4080541D01*
X3173662Y4079676D01*
X3173956Y4078738D01*
X3174214Y4077744D01*
X3174398Y4076677D01*
X3174471Y4076125D01*
X3174526Y4075554D01*
X3174545Y4074966D01*
X3174563Y4074358D01*
X3174545Y4073107D01*
X3153366D01*
Y4073070D01*
X3153385Y4072978D01*
X3153422Y4072831D01*
X3153477Y4072647D01*
X3153532Y4072408D01*
X3153624Y4072132D01*
X3153716Y4071819D01*
X3153845Y4071488D01*
X3153992Y4071138D01*
X3154158Y4070770D01*
X3154360Y4070402D01*
X3154599Y4070034D01*
X3154857Y4069666D01*
X3155133Y4069298D01*
X3155464Y4068967D01*
X3155814Y4068636D01*
X3155832Y4068618D01*
X3155906Y4068562D01*
X3156016Y4068489D01*
X3156182Y4068378D01*
X3156366Y4068250D01*
X3156605Y4068121D01*
X3156881Y4067974D01*
X3157194Y4067826D01*
X3157543Y4067661D01*
X3157930Y4067514D01*
X3158353Y4067385D01*
X3158794Y4067256D01*
X3159273Y4067146D01*
X3159788Y4067072D01*
X3160322Y4067017D01*
X3160892Y4066998D01*
X3161058D01*
X3161260Y4067017D01*
X3161518Y4067035D01*
X3161830Y4067072D01*
X3162198Y4067127D01*
X3162622Y4067219D01*
X3163082Y4067330D01*
X3163560Y4067458D01*
X3164075Y4067624D01*
X3164590Y4067845D01*
X3165124Y4068084D01*
X3165676Y4068378D01*
X3166210Y4068728D01*
X3166725Y4069114D01*
X3167240Y4069574D01*
X3172797Y4066962D01*
X3172778Y4066925D01*
X3172705Y4066833D01*
X3172594Y4066686D01*
X3172429Y4066483D01*
X3172226Y4066244D01*
X3171987Y4065950D01*
X3171711Y4065655D01*
X3171398Y4065324D01*
X3171049Y4064974D01*
X3170662Y4064606D01*
X3170258Y4064238D01*
X3169816Y4063889D01*
X3169356Y4063539D01*
X3168859Y4063208D01*
X3168344Y4062895D01*
X3167810Y4062619D01*
X3167774Y4062601D01*
X3167682Y4062564D01*
X3167516Y4062490D01*
X3167295Y4062398D01*
X3167019Y4062288D01*
X3166688Y4062178D01*
X3166302Y4062049D01*
X3165878Y4061920D01*
X3165382Y4061791D01*
X3164866Y4061662D01*
X3164296Y4061552D01*
X3163689Y4061442D01*
X3163063Y4061350D01*
X3162382Y4061276D01*
X3161683Y4061239D01*
X3160947Y4061221D01*
X3160671D01*
X3160524Y4061239D01*
X3160358D01*
X3160156Y4061258D01*
X3159917Y4061276D01*
X3159678Y4061313D01*
X3159402Y4061331D01*
X3159107Y4061386D01*
X3158794Y4061423D01*
X3158114Y4061552D01*
X3157378Y4061699D01*
X3156586Y4061920D01*
X3155777Y4062178D01*
X3154930Y4062490D01*
X3154102Y4062858D01*
X3153679Y4063079D01*
X3153256Y4063300D01*
X3152833Y4063558D01*
X3152428Y4063815D01*
X3152023Y4064110D01*
X3151637Y4064422D01*
X3151250Y4064754D01*
X3150882Y4065103D01*
X3150864Y4065122D01*
X3150846Y4065140D01*
X3150790Y4065214D01*
X3150717Y4065287D01*
X3150625Y4065379D01*
X3150533Y4065508D01*
X3150404Y4065637D01*
X3150275Y4065802D01*
X3150128Y4065986D01*
X3149981Y4066189D01*
X3149815Y4066410D01*
X3149650Y4066649D01*
X3149484Y4066906D01*
X3149300Y4067182D01*
X3148950Y4067790D01*
X3148582Y4068452D01*
X3148233Y4069206D01*
X3147902Y4069998D01*
X3147607Y4070862D01*
X3147368Y4071782D01*
X3147166Y4072758D01*
X3147092Y4073254D01*
X3147037Y4073788D01*
X3147018Y4074322D01*
X3147000Y4074855D01*
Y4074874D01*
Y4074929D01*
Y4075002D01*
Y4075131D01*
X3147018Y4075260D01*
Y4075444D01*
X3147037Y4075628D01*
X3147055Y4075867D01*
X3147092Y4076106D01*
X3147110Y4076364D01*
X3147166Y4076658D01*
X3147202Y4076971D01*
X3147331Y4077634D01*
X3147478Y4078370D01*
X3147681Y4079124D01*
X3147938Y4079934D01*
X3148251Y4080762D01*
X3148638Y4081608D01*
X3148840Y4082031D01*
X3149079Y4082454D01*
X3149318Y4082859D01*
X3149594Y4083282D01*
X3149870Y4083687D01*
X3150183Y4084074D01*
X3150514Y4084460D01*
X3150864Y4084846D01*
X3150882Y4084865D01*
X3150901Y4084883D01*
X3150974Y4084938D01*
X3151048Y4085012D01*
X3151140Y4085104D01*
X3151269Y4085214D01*
X3151398Y4085343D01*
X3151563Y4085472D01*
X3151747Y4085619D01*
X3151950Y4085766D01*
X3152170Y4085932D01*
X3152410Y4086098D01*
X3152649Y4086282D01*
X3152925Y4086466D01*
X3153532Y4086834D01*
X3154213Y4087202D01*
X3154949Y4087570D01*
X3155740Y4087901D01*
X3156605Y4088195D01*
X3157525Y4088453D01*
X3158482Y4088655D01*
X3158997Y4088729D01*
X3159512Y4088784D01*
X3160046Y4088802D01*
X3160579Y4088821D01*
X3160855D01*
X3161002Y4088802D01*
D02*
G37*
G36*
X4315294Y3930278D02*
Y3873000D01*
X4196706D01*
Y3930278D01*
X4315294D01*
D02*
G37*
G36*
X4130049Y3979278D02*
Y3922000D01*
X4040000D01*
Y3979278D01*
X4130049D01*
D02*
G37*
G36*
X4093040Y1647040D02*
X4108055D01*
Y1637015D01*
X4093040D01*
Y1622000D01*
X4083015D01*
Y1637015D01*
X4068000D01*
Y1647040D01*
X4083015D01*
Y1662102D01*
X4093040D01*
Y1647040D01*
D02*
G37*
G36*
X3543019Y3430000D02*
X3288000D01*
Y3512047D01*
X3543019D01*
Y3430000D01*
D02*
G37*
%LPC*%
G36*
X4148383Y1934494D02*
X4128769D01*
Y1927833D01*
X4135062D01*
Y1899000D01*
X4128769D01*
D01*
X4148383D01*
Y1934494D01*
D02*
G37*
G36*
X4113350D02*
X4106505D01*
X4092815Y1899000D01*
D01*
X4127021D01*
X4113350Y1934494D01*
D02*
G37*
G36*
X4073366D02*
X4067000D01*
Y1899000D01*
X4089209D01*
Y1909341D01*
X4089190Y1909911D01*
X4089154Y1910463D01*
X4089062Y1910997D01*
X4088970Y1911512D01*
X4088859Y1911990D01*
X4088730Y1912432D01*
X4088602Y1912837D01*
X4088454Y1913223D01*
X4088307Y1913554D01*
X4088178Y1913867D01*
X4088050Y1914125D01*
X4087939Y1914346D01*
X4087847Y1914511D01*
X4087774Y1914640D01*
X4087718Y1914732D01*
X4087700Y1914750D01*
X4087406Y1915174D01*
X4087074Y1915560D01*
X4086706Y1915946D01*
X4086338Y1916314D01*
X4085952Y1916646D01*
X4085547Y1916958D01*
X4085161Y1917234D01*
X4084774Y1917510D01*
X4084406Y1917731D01*
X4084075Y1917952D01*
X4083762Y1918118D01*
X4083505Y1918265D01*
X4083284Y1918394D01*
X4083118Y1918467D01*
X4083008Y1918522D01*
X4082990Y1918541D01*
X4082971D01*
X4083321Y1918817D01*
X4083652Y1919093D01*
X4083946Y1919369D01*
X4084222Y1919645D01*
X4084480Y1919902D01*
X4084701Y1920160D01*
X4084903Y1920418D01*
X4085087Y1920638D01*
X4085253Y1920859D01*
X4085400Y1921043D01*
X4085510Y1921227D01*
X4085602Y1921374D01*
X4085676Y1921485D01*
X4085731Y1921577D01*
X4085750Y1921632D01*
X4085768Y1921650D01*
X4085915Y1921963D01*
X4086062Y1922276D01*
X4086265Y1922920D01*
X4086430Y1923546D01*
X4086486Y1923840D01*
X4086522Y1924116D01*
X4086559Y1924374D01*
X4086596Y1924594D01*
X4086614Y1924815D01*
Y1924981D01*
X4086633Y1925128D01*
Y1925238D01*
Y1925312D01*
Y1925330D01*
X4086614Y1925901D01*
X4086559Y1926453D01*
X4086467Y1926986D01*
X4086338Y1927483D01*
X4086191Y1927962D01*
X4086026Y1928403D01*
X4085860Y1928808D01*
X4085694Y1929194D01*
X4085510Y1929526D01*
X4085345Y1929838D01*
X4085179Y1930096D01*
X4085032Y1930317D01*
X4084922Y1930482D01*
X4084811Y1930611D01*
X4084756Y1930703D01*
X4084738Y1930722D01*
X4084370Y1931145D01*
X4083983Y1931513D01*
X4083578Y1931862D01*
X4083155Y1932175D01*
X4082732Y1932470D01*
X4082309Y1932727D01*
X4081904Y1932948D01*
X4081499Y1933150D01*
X4081131Y1933334D01*
X4080782Y1933482D01*
X4080469Y1933610D01*
X4080211Y1933702D01*
X4079990Y1933776D01*
X4079825Y1933831D01*
X4079714Y1933850D01*
X4079696Y1933868D01*
X4079678D01*
X4079236Y1933978D01*
X4078721Y1934070D01*
X4078187Y1934162D01*
X4077617Y1934236D01*
X4076439Y1934346D01*
X4075850Y1934383D01*
X4075280Y1934420D01*
X4074746Y1934438D01*
X4074231Y1934457D01*
X4073771Y1934475D01*
X4073366Y1934494D01*
D02*
G37*
%LPD*%
G36*
X4148383Y1899000D02*
X4141925D01*
Y1927833D01*
X4148383D01*
Y1899000D01*
D02*
G37*
G36*
X4114674Y1912892D02*
X4105235D01*
X4109982Y1925091D01*
X4114674Y1912892D01*
D02*
G37*
G36*
X4119992Y1899000D02*
X4099844D01*
X4102733Y1906305D01*
X4117214D01*
X4119992Y1899000D01*
D02*
G37*
G36*
X4075924Y1928035D02*
X4076310Y1928017D01*
X4076678Y1927962D01*
X4077010Y1927906D01*
X4077322Y1927833D01*
X4077617Y1927741D01*
X4077856Y1927649D01*
X4078095Y1927575D01*
X4078298Y1927483D01*
X4078463Y1927391D01*
X4078610Y1927299D01*
X4078739Y1927226D01*
X4078831Y1927170D01*
X4078886Y1927115D01*
X4078923Y1927097D01*
X4078942Y1927078D01*
X4079144Y1926894D01*
X4079310Y1926692D01*
X4079475Y1926471D01*
X4079604Y1926250D01*
X4079714Y1926030D01*
X4079806Y1925809D01*
X4079935Y1925386D01*
X4080027Y1925018D01*
X4080046Y1924852D01*
X4080064Y1924705D01*
X4080082Y1924594D01*
Y1924502D01*
Y1924447D01*
Y1924429D01*
X4080064Y1924098D01*
X4080027Y1923803D01*
X4079972Y1923509D01*
X4079898Y1923233D01*
X4079806Y1922975D01*
X4079696Y1922754D01*
X4079604Y1922534D01*
X4079494Y1922350D01*
X4079365Y1922166D01*
X4079273Y1922018D01*
X4079162Y1921890D01*
X4079070Y1921779D01*
X4078997Y1921706D01*
X4078942Y1921650D01*
X4078905Y1921614D01*
X4078886Y1921595D01*
X4078647Y1921411D01*
X4078390Y1921264D01*
X4078114Y1921117D01*
X4077819Y1921006D01*
X4077212Y1920822D01*
X4076605Y1920694D01*
X4076329Y1920657D01*
X4076071Y1920620D01*
X4075832Y1920602D01*
X4075630Y1920583D01*
X4075464Y1920565D01*
X4073753D01*
Y1928054D01*
X4075501D01*
X4075924Y1928035D01*
D02*
G37*
G36*
X4075869Y1914511D02*
X4076550Y1914474D01*
X4077157Y1914401D01*
X4077727Y1914327D01*
X4078242Y1914217D01*
X4078702Y1914106D01*
X4079126Y1913996D01*
X4079494Y1913867D01*
X4079825Y1913738D01*
X4080101Y1913628D01*
X4080340Y1913518D01*
X4080524Y1913407D01*
X4080671Y1913334D01*
X4080782Y1913260D01*
X4080837Y1913223D01*
X4080855Y1913205D01*
X4081150Y1912947D01*
X4081426Y1912671D01*
X4081646Y1912377D01*
X4081849Y1912082D01*
X4082014Y1911770D01*
X4082143Y1911475D01*
X4082254Y1911181D01*
X4082346Y1910905D01*
X4082419Y1910629D01*
X4082474Y1910371D01*
X4082511Y1910150D01*
X4082548Y1909966D01*
Y1909801D01*
X4082566Y1909690D01*
Y1909598D01*
Y1909580D01*
X4082548Y1909212D01*
X4082511Y1908862D01*
X4082438Y1908550D01*
X4082346Y1908237D01*
X4082217Y1907961D01*
X4082106Y1907722D01*
X4081959Y1907482D01*
X4081830Y1907280D01*
X4081702Y1907096D01*
X4081554Y1906930D01*
X4081444Y1906802D01*
X4081334Y1906691D01*
X4081223Y1906599D01*
X4081150Y1906544D01*
X4081113Y1906507D01*
X4081094Y1906489D01*
X4080800Y1906305D01*
X4080432Y1906139D01*
X4080027Y1906010D01*
X4079604Y1905882D01*
X4079144Y1905790D01*
X4078666Y1905698D01*
X4077727Y1905569D01*
X4077267Y1905532D01*
X4076844Y1905495D01*
X4076458Y1905477D01*
X4076126Y1905458D01*
X4075850Y1905440D01*
X4073753D01*
Y1914530D01*
X4075151D01*
X4075869Y1914511D01*
D02*
G37*
G36*
X4089209Y1899000D02*
X4076936D01*
X4077727Y1899018D01*
X4078463Y1899055D01*
X4079162Y1899110D01*
X4079806Y1899184D01*
X4080414Y1899276D01*
X4080966Y1899386D01*
X4081462Y1899497D01*
X4081922Y1899607D01*
X4082327Y1899718D01*
X4082677Y1899828D01*
X4082971Y1899938D01*
X4083229Y1900030D01*
X4083413Y1900104D01*
X4083560Y1900159D01*
X4083634Y1900196D01*
X4083670Y1900214D01*
X4084112Y1900454D01*
X4084554Y1900730D01*
X4084940Y1901006D01*
X4085326Y1901300D01*
X4085676Y1901613D01*
X4086007Y1901907D01*
X4086320Y1902220D01*
X4086578Y1902514D01*
X4086835Y1902790D01*
X4087038Y1903048D01*
X4087222Y1903287D01*
X4087387Y1903490D01*
X4087498Y1903655D01*
X4087590Y1903784D01*
X4087645Y1903876D01*
X4087663Y1903894D01*
X4087939Y1904354D01*
X4088178Y1904833D01*
X4088381Y1905311D01*
X4088565Y1905790D01*
X4088712Y1906250D01*
X4088841Y1906710D01*
X4088933Y1907133D01*
X4089025Y1907538D01*
X4089080Y1907924D01*
X4089135Y1908274D01*
X4089154Y1908568D01*
X4089190Y1908844D01*
Y1909046D01*
X4089209Y1909212D01*
Y1899000D01*
D02*
G37*
%LPC*%
G36*
X3160892Y4083246D02*
X3160763D01*
X3160634Y4083227D01*
X3160432D01*
X3160193Y4083190D01*
X3159917Y4083172D01*
X3159604Y4083117D01*
X3159254Y4083062D01*
X3158905Y4082970D01*
X3158518Y4082878D01*
X3158114Y4082749D01*
X3157709Y4082602D01*
X3157286Y4082418D01*
X3156881Y4082215D01*
X3156476Y4081976D01*
X3156071Y4081700D01*
X3156053Y4081682D01*
X3156016Y4081645D01*
X3155942Y4081590D01*
X3155850Y4081516D01*
X3155740Y4081406D01*
X3155593Y4081258D01*
X3155446Y4081093D01*
X3155280Y4080909D01*
X3155096Y4080688D01*
X3154912Y4080449D01*
X3154710Y4080154D01*
X3154507Y4079860D01*
X3154286Y4079510D01*
X3154084Y4079142D01*
X3153863Y4078738D01*
X3153661Y4078296D01*
X3167921D01*
Y4078314D01*
X3167884Y4078388D01*
X3167847Y4078517D01*
X3167792Y4078664D01*
X3167718Y4078848D01*
X3167608Y4079069D01*
X3167498Y4079308D01*
X3167350Y4079566D01*
X3167203Y4079842D01*
X3167001Y4080136D01*
X3166798Y4080430D01*
X3166559Y4080725D01*
X3166302Y4081019D01*
X3166007Y4081314D01*
X3165694Y4081590D01*
X3165345Y4081866D01*
X3165326Y4081884D01*
X3165253Y4081921D01*
X3165161Y4081994D01*
X3165014Y4082086D01*
X3164830Y4082178D01*
X3164609Y4082307D01*
X3164351Y4082436D01*
X3164075Y4082565D01*
X3163762Y4082694D01*
X3163413Y4082804D01*
X3163045Y4082933D01*
X3162658Y4083025D01*
X3162254Y4083117D01*
X3161812Y4083190D01*
X3161352Y4083227D01*
X3160892Y4083246D01*
D02*
G37*
G36*
X4287758Y3920278D02*
X4287446D01*
X4286618Y3920260D01*
X4285826Y3920205D01*
X4285035Y3920131D01*
X4284281Y3920021D01*
X4283545Y3919874D01*
X4282827Y3919708D01*
X4282128Y3919524D01*
X4281466Y3919303D01*
X4280803Y3919082D01*
X4280178Y3918843D01*
X4279570Y3918586D01*
X4279000Y3918310D01*
X4278448Y3918034D01*
X4277914Y3917758D01*
X4277399Y3917463D01*
X4276921Y3917187D01*
X4276479Y3916893D01*
X4276038Y3916598D01*
X4275651Y3916322D01*
X4275265Y3916046D01*
X4274934Y3915770D01*
X4274602Y3915513D01*
X4274326Y3915274D01*
X4274050Y3915053D01*
X4273830Y3914832D01*
X4273627Y3914648D01*
X4273462Y3914482D01*
X4273314Y3914354D01*
X4273204Y3914225D01*
X4273130Y3914151D01*
X4273075Y3914096D01*
X4273057Y3914078D01*
X4272634Y3913581D01*
X4272229Y3913084D01*
X4271861Y3912569D01*
X4271511Y3912054D01*
X4271198Y3911520D01*
X4270886Y3911005D01*
X4270610Y3910471D01*
X4270352Y3909956D01*
X4270113Y3909441D01*
X4269910Y3908907D01*
X4269708Y3908410D01*
X4269524Y3907895D01*
X4269211Y3906920D01*
X4268972Y3905982D01*
X4268862Y3905540D01*
X4268770Y3905117D01*
X4268696Y3904694D01*
X4268622Y3904307D01*
X4268567Y3903939D01*
X4268530Y3903608D01*
X4268494Y3903277D01*
X4268457Y3902982D01*
X4268438Y3902725D01*
X4268420Y3902486D01*
X4268402Y3902283D01*
Y3902118D01*
X4268383Y3901989D01*
Y3901805D01*
X4268420Y3900848D01*
X4268494Y3899928D01*
X4268622Y3899008D01*
X4268770Y3898143D01*
X4268972Y3897315D01*
X4269174Y3896524D01*
X4269414Y3895770D01*
X4269653Y3895089D01*
X4269874Y3894463D01*
X4270113Y3893893D01*
X4270223Y3893635D01*
X4270315Y3893414D01*
X4270426Y3893194D01*
X4270518Y3892991D01*
X4270591Y3892826D01*
X4270665Y3892660D01*
X4270738Y3892531D01*
X4270794Y3892421D01*
X4270849Y3892329D01*
X4270867Y3892274D01*
X4270904Y3892237D01*
Y3892218D01*
X4271401Y3891409D01*
X4271934Y3890654D01*
X4272486Y3889937D01*
X4273057Y3889274D01*
X4273627Y3888667D01*
X4274198Y3888115D01*
X4274750Y3887600D01*
X4275283Y3887140D01*
X4275798Y3886735D01*
X4276258Y3886386D01*
X4276682Y3886091D01*
X4277050Y3885834D01*
X4277215Y3885723D01*
X4277344Y3885650D01*
X4277473Y3885558D01*
X4277583Y3885502D01*
X4277657Y3885447D01*
X4277712Y3885429D01*
X4277749Y3885392D01*
X4277767D01*
X4278595Y3884969D01*
X4279442Y3884601D01*
X4280288Y3884288D01*
X4281134Y3884012D01*
X4281981Y3883773D01*
X4282790Y3883589D01*
X4283582Y3883423D01*
X4284336Y3883294D01*
X4285017Y3883202D01*
X4285661Y3883129D01*
X4285937Y3883092D01*
X4286213Y3883074D01*
X4286470Y3883055D01*
X4286691Y3883037D01*
X4286912Y3883018D01*
X4287243D01*
X4287390Y3883000D01*
X4268383D01*
D01*
X4305294D01*
D01*
X4287630D01*
X4288586Y3883018D01*
X4289506Y3883092D01*
X4290390Y3883202D01*
X4291218Y3883350D01*
X4292009Y3883515D01*
X4292745Y3883699D01*
X4293444Y3883883D01*
X4294070Y3884104D01*
X4294640Y3884306D01*
X4295137Y3884490D01*
X4295578Y3884674D01*
X4295781Y3884766D01*
X4295946Y3884840D01*
X4296112Y3884914D01*
X4296241Y3884987D01*
X4296351Y3885042D01*
X4296462Y3885098D01*
X4296535Y3885134D01*
X4296590Y3885171D01*
X4296609Y3885190D01*
X4296627D01*
X4297326Y3885631D01*
X4298007Y3886091D01*
X4298633Y3886588D01*
X4299222Y3887103D01*
X4299774Y3887637D01*
X4300289Y3888170D01*
X4300767Y3888686D01*
X4301190Y3889201D01*
X4301577Y3889679D01*
X4301926Y3890121D01*
X4302202Y3890526D01*
X4302442Y3890875D01*
X4302644Y3891151D01*
X4302718Y3891280D01*
X4302773Y3891372D01*
X4302828Y3891446D01*
X4302865Y3891501D01*
X4302883Y3891538D01*
Y3891556D01*
X4303306Y3892347D01*
X4303674Y3893138D01*
X4304006Y3893930D01*
X4304282Y3894702D01*
X4304502Y3895457D01*
X4304705Y3896193D01*
X4304870Y3896892D01*
X4304999Y3897536D01*
X4305091Y3898143D01*
X4305165Y3898695D01*
X4305220Y3899174D01*
X4305238Y3899394D01*
X4305257Y3899597D01*
X4305275Y3899781D01*
Y3899928D01*
X4305294Y3900075D01*
Y3900388D01*
X4305257Y3901878D01*
X4287390D01*
Y3895530D01*
X4297676D01*
X4297382Y3894960D01*
X4297087Y3894426D01*
X4296774Y3893948D01*
X4296443Y3893488D01*
X4296130Y3893083D01*
X4295799Y3892697D01*
X4295486Y3892366D01*
X4295192Y3892053D01*
X4294898Y3891795D01*
X4294640Y3891556D01*
X4294401Y3891372D01*
X4294198Y3891206D01*
X4294033Y3891096D01*
X4293904Y3891004D01*
X4293830Y3890949D01*
X4293794Y3890930D01*
X4293334Y3890673D01*
X4292855Y3890452D01*
X4292358Y3890250D01*
X4291862Y3890084D01*
X4291365Y3889937D01*
X4290868Y3889826D01*
X4290390Y3889716D01*
X4289948Y3889642D01*
X4289525Y3889587D01*
X4289120Y3889532D01*
X4288770Y3889495D01*
X4288476Y3889477D01*
X4288237D01*
X4288034Y3889458D01*
X4287887D01*
X4287390Y3889477D01*
X4286894Y3889495D01*
X4285955Y3889606D01*
X4285054Y3889790D01*
X4284207Y3890010D01*
X4283416Y3890286D01*
X4282662Y3890581D01*
X4281981Y3890912D01*
X4281355Y3891243D01*
X4280785Y3891574D01*
X4280288Y3891906D01*
X4279846Y3892200D01*
X4279662Y3892347D01*
X4279497Y3892476D01*
X4279350Y3892586D01*
X4279202Y3892697D01*
X4279092Y3892789D01*
X4279000Y3892881D01*
X4278926Y3892936D01*
X4278871Y3892991D01*
X4278853Y3893010D01*
X4278834Y3893028D01*
X4278503Y3893359D01*
X4278190Y3893709D01*
X4277896Y3894077D01*
X4277620Y3894426D01*
X4277381Y3894794D01*
X4277142Y3895162D01*
X4276718Y3895898D01*
X4276369Y3896634D01*
X4276074Y3897352D01*
X4275817Y3898051D01*
X4275633Y3898714D01*
X4275486Y3899339D01*
X4275375Y3899928D01*
X4275283Y3900425D01*
X4275246Y3900664D01*
X4275228Y3900866D01*
X4275210Y3901069D01*
X4275191Y3901234D01*
Y3901382D01*
X4275173Y3901510D01*
Y3901602D01*
Y3901676D01*
Y3901713D01*
Y3901731D01*
X4275191Y3902191D01*
X4275210Y3902651D01*
X4275320Y3903534D01*
X4275504Y3904362D01*
X4275725Y3905154D01*
X4276001Y3905908D01*
X4276295Y3906607D01*
X4276608Y3907251D01*
X4276939Y3907840D01*
X4277270Y3908355D01*
X4277583Y3908834D01*
X4277896Y3909238D01*
X4278154Y3909570D01*
X4278374Y3909846D01*
X4278466Y3909956D01*
X4278558Y3910030D01*
X4278614Y3910103D01*
X4278669Y3910158D01*
X4278687Y3910177D01*
X4278706Y3910195D01*
X4279037Y3910508D01*
X4279386Y3910802D01*
X4279736Y3911078D01*
X4280104Y3911336D01*
X4280822Y3911814D01*
X4281576Y3912201D01*
X4282312Y3912550D01*
X4283030Y3912826D01*
X4283747Y3913047D01*
X4284428Y3913231D01*
X4285054Y3913378D01*
X4285642Y3913489D01*
X4286158Y3913562D01*
X4286397Y3913599D01*
X4286618Y3913618D01*
X4286802Y3913636D01*
X4286967Y3913654D01*
X4287133D01*
X4287243Y3913673D01*
X4287482D01*
X4288034Y3913654D01*
X4288586Y3913618D01*
X4289138Y3913562D01*
X4289654Y3913470D01*
X4290187Y3913360D01*
X4290684Y3913231D01*
X4291659Y3912918D01*
X4292598Y3912569D01*
X4293462Y3912164D01*
X4294254Y3911722D01*
X4295008Y3911281D01*
X4295339Y3911060D01*
X4295670Y3910839D01*
X4295983Y3910618D01*
X4296259Y3910398D01*
X4296535Y3910195D01*
X4296774Y3909993D01*
X4297014Y3909809D01*
X4297216Y3909643D01*
X4297400Y3909478D01*
X4297547Y3909330D01*
X4297694Y3909202D01*
X4297805Y3909091D01*
X4297897Y3908999D01*
X4297952Y3908944D01*
X4297989Y3908907D01*
X4298007Y3908889D01*
X4302773Y3913599D01*
X4302166Y3914243D01*
X4301558Y3914814D01*
X4300951Y3915366D01*
X4300362Y3915862D01*
X4299792Y3916304D01*
X4299240Y3916709D01*
X4298706Y3917077D01*
X4298228Y3917408D01*
X4297768Y3917684D01*
X4297363Y3917923D01*
X4296995Y3918126D01*
X4296701Y3918291D01*
X4296443Y3918402D01*
X4296259Y3918494D01*
X4296204Y3918530D01*
X4296149Y3918549D01*
X4296130Y3918567D01*
X4296112D01*
X4295339Y3918862D01*
X4294585Y3919138D01*
X4293812Y3919358D01*
X4293058Y3919561D01*
X4292303Y3919726D01*
X4291586Y3919855D01*
X4290905Y3919966D01*
X4290261Y3920058D01*
X4289672Y3920131D01*
X4289120Y3920186D01*
X4288642Y3920223D01*
X4288421Y3920242D01*
X4288237Y3920260D01*
X4287906D01*
X4287758Y3920278D01*
D02*
G37*
G36*
X4215244Y3919377D02*
X4206706D01*
Y3883883D01*
X4234877D01*
Y3890323D01*
Y3883883D01*
X4215483D01*
X4216090Y3883902D01*
X4216679D01*
X4217250Y3883920D01*
X4217783Y3883938D01*
X4218298Y3883957D01*
X4218795Y3883994D01*
X4219274Y3884012D01*
X4219734Y3884049D01*
X4220157Y3884086D01*
X4220562Y3884122D01*
X4220948Y3884159D01*
X4221316Y3884196D01*
X4221666Y3884233D01*
X4221997Y3884270D01*
X4222291Y3884325D01*
X4222567Y3884362D01*
X4222843Y3884398D01*
X4223082Y3884435D01*
X4223303Y3884472D01*
X4223506Y3884509D01*
X4223690Y3884546D01*
X4223855Y3884582D01*
X4224002Y3884619D01*
X4224260Y3884674D01*
X4224426Y3884711D01*
X4224518Y3884748D01*
X4224554D01*
X4225070Y3884932D01*
X4225585Y3885134D01*
X4226063Y3885355D01*
X4226542Y3885594D01*
X4227002Y3885852D01*
X4227425Y3886110D01*
X4227830Y3886386D01*
X4228198Y3886643D01*
X4228529Y3886882D01*
X4228842Y3887122D01*
X4229099Y3887324D01*
X4229320Y3887508D01*
X4229504Y3887655D01*
X4229633Y3887784D01*
X4229725Y3887858D01*
X4229743Y3887876D01*
X4230185Y3888318D01*
X4230590Y3888778D01*
X4230994Y3889256D01*
X4231344Y3889734D01*
X4231694Y3890213D01*
X4231988Y3890691D01*
X4232282Y3891151D01*
X4232540Y3891593D01*
X4232761Y3892016D01*
X4232963Y3892384D01*
X4233129Y3892734D01*
X4233258Y3893028D01*
X4233368Y3893267D01*
X4233460Y3893451D01*
X4233478Y3893506D01*
X4233497Y3893562D01*
X4233515Y3893580D01*
Y3893598D01*
X4233754Y3894242D01*
X4233957Y3894905D01*
X4234141Y3895567D01*
X4234306Y3896230D01*
X4234435Y3896874D01*
X4234546Y3897499D01*
X4234638Y3898088D01*
X4234711Y3898658D01*
X4234766Y3899192D01*
X4234803Y3899670D01*
X4234840Y3900094D01*
X4234858Y3900443D01*
Y3900609D01*
X4234877Y3900738D01*
Y3890323D01*
Y3900738D01*
Y3901142D01*
X4234858Y3902210D01*
X4234766Y3903222D01*
X4234656Y3904215D01*
X4234490Y3905154D01*
X4234306Y3906037D01*
X4234104Y3906865D01*
X4233883Y3907638D01*
X4233662Y3908337D01*
X4233423Y3908981D01*
X4233313Y3909275D01*
X4233202Y3909551D01*
X4233092Y3909809D01*
X4233000Y3910048D01*
X4232908Y3910269D01*
X4232816Y3910453D01*
X4232724Y3910637D01*
X4232650Y3910784D01*
X4232595Y3910913D01*
X4232540Y3911023D01*
X4232485Y3911115D01*
X4232466Y3911170D01*
X4232430Y3911207D01*
Y3911226D01*
X4231951Y3912017D01*
X4231473Y3912734D01*
X4230958Y3913415D01*
X4230442Y3914022D01*
X4229909Y3914593D01*
X4229394Y3915108D01*
X4228897Y3915568D01*
X4228418Y3915973D01*
X4227958Y3916322D01*
X4227554Y3916635D01*
X4227186Y3916893D01*
X4226854Y3917095D01*
X4226597Y3917261D01*
X4226394Y3917371D01*
X4226321Y3917408D01*
X4226266Y3917445D01*
X4226247Y3917463D01*
X4226229D01*
X4225861Y3917629D01*
X4225474Y3917794D01*
X4225070Y3917960D01*
X4224665Y3918089D01*
X4223782Y3918346D01*
X4222843Y3918567D01*
X4221905Y3918751D01*
X4220948Y3918917D01*
X4219991Y3919046D01*
X4219071Y3919138D01*
X4218188Y3919211D01*
X4217783Y3919248D01*
X4217378Y3919285D01*
X4216992Y3919303D01*
X4216642Y3919322D01*
X4216311Y3919340D01*
X4215998D01*
X4215722Y3919358D01*
X4215465D01*
X4215244Y3919377D01*
D02*
G37*
G36*
X4247665D02*
X4241298D01*
Y3883883D01*
X4251234D01*
X4252026Y3883902D01*
X4252762Y3883938D01*
X4253461Y3883994D01*
X4254105Y3884067D01*
X4254712Y3884159D01*
X4255264Y3884270D01*
X4255761Y3884380D01*
X4256221Y3884490D01*
X4256626Y3884601D01*
X4256975Y3884711D01*
X4257270Y3884822D01*
X4257527Y3884914D01*
X4257711Y3884987D01*
X4257858Y3885042D01*
X4257932Y3885079D01*
X4257969Y3885098D01*
X4258410Y3885337D01*
X4258852Y3885613D01*
X4259238Y3885889D01*
X4259625Y3886183D01*
X4259974Y3886496D01*
X4260306Y3886790D01*
X4260618Y3887103D01*
X4260876Y3887398D01*
X4261134Y3887674D01*
X4261336Y3887931D01*
X4261520Y3888170D01*
X4261686Y3888373D01*
X4261796Y3888538D01*
X4261888Y3888667D01*
X4261943Y3888759D01*
X4261962Y3888778D01*
X4262238Y3889238D01*
X4262477Y3889716D01*
X4262679Y3890194D01*
X4262863Y3890673D01*
X4263010Y3891133D01*
X4263139Y3891593D01*
X4263231Y3892016D01*
X4263323Y3892421D01*
X4263378Y3892807D01*
X4263434Y3893157D01*
X4263452Y3893451D01*
X4263489Y3893727D01*
Y3893930D01*
X4263507Y3894095D01*
Y3888778D01*
Y3894095D01*
Y3894224D01*
X4263489Y3894794D01*
X4263452Y3895346D01*
X4263360Y3895880D01*
X4263268Y3896395D01*
X4263158Y3896874D01*
X4263029Y3897315D01*
X4262900Y3897720D01*
X4262753Y3898106D01*
X4262606Y3898438D01*
X4262477Y3898750D01*
X4262348Y3899008D01*
X4262238Y3899229D01*
X4262146Y3899394D01*
X4262072Y3899523D01*
X4262017Y3899615D01*
X4261998Y3899634D01*
X4261704Y3900057D01*
X4261373Y3900443D01*
X4261005Y3900830D01*
X4260637Y3901198D01*
X4260250Y3901529D01*
X4259846Y3901842D01*
X4259459Y3902118D01*
X4259073Y3902394D01*
X4258705Y3902614D01*
X4258374Y3902835D01*
X4258061Y3903001D01*
X4257803Y3903148D01*
X4257582Y3903277D01*
X4257417Y3903350D01*
X4257306Y3903406D01*
X4257288Y3903424D01*
X4257270D01*
X4257619Y3903700D01*
X4257950Y3903976D01*
X4258245Y3904252D01*
X4258521Y3904528D01*
X4258778Y3904786D01*
X4258999Y3905043D01*
X4259202Y3905301D01*
X4259386Y3905522D01*
X4259551Y3905742D01*
X4259698Y3905926D01*
X4259809Y3906110D01*
X4259901Y3906258D01*
X4259974Y3906368D01*
X4260030Y3906460D01*
X4260048Y3906515D01*
X4260066Y3906534D01*
X4260214Y3906846D01*
X4260361Y3907159D01*
X4260563Y3907803D01*
X4260729Y3908429D01*
X4260784Y3908723D01*
X4260821Y3908999D01*
X4260858Y3909257D01*
X4260894Y3909478D01*
X4260913Y3909698D01*
Y3909864D01*
X4260931Y3910011D01*
Y3910122D01*
Y3910195D01*
Y3910214D01*
X4260913Y3910784D01*
X4260858Y3911336D01*
X4260766Y3911870D01*
X4260637Y3912366D01*
X4260490Y3912845D01*
X4260324Y3913286D01*
X4260158Y3913691D01*
X4259993Y3914078D01*
X4259809Y3914409D01*
X4259643Y3914722D01*
X4259478Y3914979D01*
X4259330Y3915200D01*
X4259220Y3915366D01*
X4259110Y3915494D01*
X4259054Y3915586D01*
X4259036Y3915605D01*
X4258668Y3916028D01*
X4258282Y3916396D01*
X4257877Y3916746D01*
X4257454Y3917058D01*
X4257030Y3917353D01*
X4256607Y3917610D01*
X4256202Y3917831D01*
X4255798Y3918034D01*
X4255430Y3918218D01*
X4255080Y3918365D01*
X4254767Y3918494D01*
X4254510Y3918586D01*
X4254289Y3918659D01*
X4254123Y3918714D01*
X4254013Y3918733D01*
X4253994Y3918751D01*
X4253976D01*
X4253534Y3918862D01*
X4253019Y3918954D01*
X4252486Y3919046D01*
X4251915Y3919119D01*
X4250738Y3919230D01*
X4250149Y3919266D01*
X4249578Y3919303D01*
X4249045Y3919322D01*
X4248530Y3919340D01*
X4248070Y3919358D01*
X4247665Y3919377D01*
D02*
G37*
%LPD*%
G36*
X4216882Y3912826D02*
X4217415Y3912790D01*
X4217949Y3912753D01*
X4218446Y3912679D01*
X4218924Y3912606D01*
X4219384Y3912514D01*
X4219826Y3912422D01*
X4220249Y3912330D01*
X4220654Y3912219D01*
X4221040Y3912090D01*
X4221408Y3911980D01*
X4221739Y3911851D01*
X4222070Y3911722D01*
X4222383Y3911594D01*
X4222678Y3911465D01*
X4222954Y3911336D01*
X4223193Y3911207D01*
X4223653Y3910950D01*
X4224039Y3910710D01*
X4224334Y3910508D01*
X4224573Y3910324D01*
X4224757Y3910195D01*
X4224849Y3910103D01*
X4224886Y3910066D01*
X4225180Y3909772D01*
X4225438Y3909459D01*
X4225934Y3908797D01*
X4226358Y3908098D01*
X4226707Y3907380D01*
X4227020Y3906662D01*
X4227278Y3905926D01*
X4227480Y3905209D01*
X4227664Y3904528D01*
X4227793Y3903866D01*
X4227885Y3903258D01*
X4227958Y3902706D01*
X4227977Y3902467D01*
X4227995Y3902246D01*
X4228014Y3902026D01*
X4228032Y3901842D01*
Y3901694D01*
X4228050Y3901566D01*
Y3901455D01*
Y3901382D01*
Y3901326D01*
Y3901308D01*
X4228032Y3900627D01*
X4227995Y3899983D01*
X4227922Y3899376D01*
X4227848Y3898787D01*
X4227738Y3898235D01*
X4227627Y3897738D01*
X4227517Y3897260D01*
X4227388Y3896837D01*
X4227259Y3896450D01*
X4227149Y3896101D01*
X4227038Y3895806D01*
X4226928Y3895567D01*
X4226854Y3895365D01*
X4226781Y3895218D01*
X4226744Y3895144D01*
X4226726Y3895107D01*
X4226468Y3894647D01*
X4226192Y3894242D01*
X4225916Y3893856D01*
X4225640Y3893488D01*
X4225346Y3893175D01*
X4225070Y3892881D01*
X4224775Y3892623D01*
X4224518Y3892384D01*
X4224260Y3892182D01*
X4224039Y3892016D01*
X4223837Y3891869D01*
X4223653Y3891740D01*
X4223506Y3891648D01*
X4223395Y3891593D01*
X4223322Y3891556D01*
X4223303Y3891538D01*
X4222880Y3891354D01*
X4222420Y3891188D01*
X4221905Y3891059D01*
X4221371Y3890930D01*
X4220819Y3890838D01*
X4220267Y3890746D01*
X4219715Y3890673D01*
X4219163Y3890618D01*
X4218648Y3890581D01*
X4218170Y3890544D01*
X4217728Y3890526D01*
X4217342Y3890507D01*
X4217176D01*
X4217029Y3890489D01*
X4213441D01*
Y3912863D01*
X4216330D01*
X4216882Y3912826D01*
D02*
G37*
G36*
X4250222Y3912918D02*
X4250609Y3912900D01*
X4250977Y3912845D01*
X4251308Y3912790D01*
X4251621Y3912716D01*
X4251915Y3912624D01*
X4252154Y3912532D01*
X4252394Y3912458D01*
X4252596Y3912366D01*
X4252762Y3912274D01*
X4252909Y3912182D01*
X4253038Y3912109D01*
X4253130Y3912054D01*
X4253185Y3911998D01*
X4253222Y3911980D01*
X4253240Y3911962D01*
X4253442Y3911778D01*
X4253608Y3911575D01*
X4253774Y3911354D01*
X4253902Y3911134D01*
X4254013Y3910913D01*
X4254105Y3910692D01*
X4254234Y3910269D01*
X4254326Y3909901D01*
X4254344Y3909735D01*
X4254362Y3909588D01*
X4254381Y3909478D01*
Y3909386D01*
Y3909330D01*
Y3909312D01*
X4254362Y3908981D01*
X4254326Y3908686D01*
X4254270Y3908392D01*
X4254197Y3908116D01*
X4254105Y3907858D01*
X4253994Y3907638D01*
X4253902Y3907417D01*
X4253792Y3907233D01*
X4253663Y3907049D01*
X4253571Y3906902D01*
X4253461Y3906773D01*
X4253369Y3906662D01*
X4253295Y3906589D01*
X4253240Y3906534D01*
X4253203Y3906497D01*
X4253185Y3906478D01*
X4252946Y3906294D01*
X4252688Y3906147D01*
X4252412Y3906000D01*
X4252118Y3905890D01*
X4251510Y3905706D01*
X4250903Y3905577D01*
X4250627Y3905540D01*
X4250370Y3905503D01*
X4250130Y3905485D01*
X4249928Y3905466D01*
X4249762Y3905448D01*
X4248051D01*
Y3912937D01*
X4249799D01*
X4250222Y3912918D01*
D02*
G37*
G36*
X4250167Y3899394D02*
X4250848Y3899358D01*
X4251455Y3899284D01*
X4252026Y3899210D01*
X4252541Y3899100D01*
X4253001Y3898990D01*
X4253424Y3898879D01*
X4253792Y3898750D01*
X4254123Y3898622D01*
X4254399Y3898511D01*
X4254638Y3898401D01*
X4254822Y3898290D01*
X4254970Y3898217D01*
X4255080Y3898143D01*
X4255135Y3898106D01*
X4255154Y3898088D01*
X4255448Y3897830D01*
X4255724Y3897554D01*
X4255945Y3897260D01*
X4256147Y3896966D01*
X4256313Y3896653D01*
X4256442Y3896358D01*
X4256552Y3896064D01*
X4256644Y3895788D01*
X4256718Y3895512D01*
X4256773Y3895254D01*
X4256810Y3895034D01*
X4256846Y3894850D01*
Y3894684D01*
X4256865Y3894574D01*
Y3894482D01*
Y3894463D01*
X4256846Y3894095D01*
X4256810Y3893746D01*
X4256736Y3893433D01*
X4256644Y3893120D01*
X4256515Y3892844D01*
X4256405Y3892605D01*
X4256258Y3892366D01*
X4256129Y3892163D01*
X4256000Y3891979D01*
X4255853Y3891814D01*
X4255742Y3891685D01*
X4255632Y3891574D01*
X4255522Y3891482D01*
X4255448Y3891427D01*
X4255411Y3891390D01*
X4255393Y3891372D01*
X4255098Y3891188D01*
X4254730Y3891022D01*
X4254326Y3890894D01*
X4253902Y3890765D01*
X4253442Y3890673D01*
X4252964Y3890581D01*
X4252026Y3890452D01*
X4251566Y3890415D01*
X4251142Y3890378D01*
X4250756Y3890360D01*
X4250425Y3890342D01*
X4250149Y3890323D01*
X4248051D01*
Y3899413D01*
X4249450D01*
X4250167Y3899394D01*
D02*
G37*
%LPC*%
G36*
X4086837Y3969278D02*
X4086579D01*
X4085825Y3969242D01*
X4085107Y3969168D01*
X4084408Y3969039D01*
X4083764Y3968874D01*
X4083138Y3968671D01*
X4082568Y3968432D01*
X4082053Y3968193D01*
X4081574Y3967954D01*
X4081133Y3967714D01*
X4080746Y3967475D01*
X4080415Y3967236D01*
X4080139Y3967052D01*
X4079937Y3966868D01*
X4079771Y3966739D01*
X4079679Y3966666D01*
X4079642Y3966629D01*
X4079146Y3966132D01*
X4078722Y3965598D01*
X4078336Y3965065D01*
X4078023Y3964531D01*
X4077747Y3963998D01*
X4077508Y3963464D01*
X4077324Y3962967D01*
X4077177Y3962470D01*
X4077066Y3962029D01*
X4076974Y3961606D01*
X4076919Y3961238D01*
X4076864Y3960925D01*
X4076846Y3960667D01*
X4076827Y3960465D01*
Y3960391D01*
Y3960336D01*
Y3960318D01*
Y3960299D01*
X4076846Y3959821D01*
X4076901Y3959342D01*
X4076993Y3958882D01*
X4077085Y3958422D01*
X4077214Y3957981D01*
X4077361Y3957558D01*
X4077508Y3957153D01*
X4077674Y3956766D01*
X4077839Y3956435D01*
X4077986Y3956122D01*
X4078134Y3955846D01*
X4078262Y3955607D01*
X4078373Y3955423D01*
X4078446Y3955276D01*
X4078502Y3955202D01*
X4078520Y3955166D01*
X4078686Y3954926D01*
X4078888Y3954669D01*
X4079090Y3954393D01*
X4079330Y3954117D01*
X4079845Y3953528D01*
X4080397Y3952939D01*
X4081004Y3952332D01*
X4081630Y3951725D01*
X4082255Y3951118D01*
X4082899Y3950547D01*
X4083506Y3949995D01*
X4084077Y3949498D01*
X4084592Y3949038D01*
X4084831Y3948836D01*
X4085070Y3948634D01*
X4085273Y3948468D01*
X4085438Y3948321D01*
X4085604Y3948174D01*
X4085733Y3948063D01*
X4085843Y3947971D01*
X4085917Y3947916D01*
X4085972Y3947879D01*
X4085990Y3947861D01*
X4086542Y3947419D01*
X4087039Y3946996D01*
X4087481Y3946591D01*
X4087904Y3946242D01*
X4088254Y3945910D01*
X4088585Y3945598D01*
X4088861Y3945322D01*
X4089100Y3945082D01*
X4089321Y3944862D01*
X4089486Y3944678D01*
X4089634Y3944512D01*
X4089744Y3944383D01*
X4089836Y3944291D01*
X4089891Y3944218D01*
X4089910Y3944181D01*
X4089928Y3944162D01*
X4090094Y3943942D01*
X4090222Y3943721D01*
X4090351Y3943500D01*
X4090443Y3943279D01*
X4090609Y3942874D01*
X4090719Y3942506D01*
X4090774Y3942194D01*
X4090811Y3942065D01*
Y3941954D01*
X4090830Y3941881D01*
Y3941807D01*
Y3941770D01*
Y3941752D01*
X4090811Y3941513D01*
X4090774Y3941274D01*
X4090719Y3941053D01*
X4090646Y3940832D01*
X4090443Y3940427D01*
X4090241Y3940096D01*
X4090020Y3939802D01*
X4089910Y3939691D01*
X4089818Y3939599D01*
X4089744Y3939526D01*
X4089689Y3939470D01*
X4089652Y3939434D01*
X4089634Y3939415D01*
X4089413Y3939231D01*
X4089174Y3939084D01*
X4088934Y3938955D01*
X4088677Y3938826D01*
X4088198Y3938642D01*
X4087738Y3938532D01*
X4087536Y3938495D01*
X4087334Y3938458D01*
X4087168Y3938440D01*
X4087021Y3938422D01*
X4086892Y3938403D01*
X4086726D01*
X4086414Y3938422D01*
X4086119Y3938458D01*
X4085806Y3938514D01*
X4085512Y3938606D01*
X4085236Y3938716D01*
X4084942Y3938845D01*
X4084408Y3939139D01*
X4083893Y3939489D01*
X4083396Y3939894D01*
X4082954Y3940317D01*
X4082531Y3940758D01*
X4082163Y3941200D01*
X4081832Y3941623D01*
X4081538Y3942028D01*
X4081298Y3942378D01*
X4081096Y3942672D01*
X4081022Y3942801D01*
X4080949Y3942911D01*
X4080912Y3943003D01*
X4080875Y3943058D01*
X4080838Y3943095D01*
Y3943114D01*
X4075153Y3939673D01*
X4075539Y3938955D01*
X4075944Y3938274D01*
X4076349Y3937667D01*
X4076754Y3937078D01*
X4077158Y3936563D01*
X4077563Y3936085D01*
X4077950Y3935643D01*
X4078318Y3935275D01*
X4078667Y3934926D01*
X4078980Y3934631D01*
X4079256Y3934392D01*
X4079495Y3934190D01*
X4079698Y3934042D01*
X4079845Y3933932D01*
X4079937Y3933858D01*
X4079974Y3933840D01*
X4080507Y3933509D01*
X4081059Y3933233D01*
X4081630Y3932994D01*
X4082200Y3932773D01*
X4082752Y3932607D01*
X4083304Y3932442D01*
X4083838Y3932331D01*
X4084334Y3932239D01*
X4084794Y3932147D01*
X4085236Y3932092D01*
X4085622Y3932055D01*
X4085935Y3932037D01*
X4086211Y3932018D01*
X4086322Y3932000D01*
X4075153D01*
D01*
X4097472D01*
D01*
X4086579D01*
X4087462Y3932037D01*
X4088309Y3932129D01*
X4089118Y3932258D01*
X4089854Y3932442D01*
X4090554Y3932662D01*
X4091198Y3932902D01*
X4091805Y3933159D01*
X4092338Y3933417D01*
X4092817Y3933674D01*
X4093240Y3933932D01*
X4093608Y3934171D01*
X4093902Y3934392D01*
X4094142Y3934576D01*
X4094307Y3934705D01*
X4094418Y3934797D01*
X4094454Y3934834D01*
X4094988Y3935386D01*
X4095448Y3935956D01*
X4095853Y3936563D01*
X4096202Y3937170D01*
X4096497Y3937778D01*
X4096736Y3938366D01*
X4096938Y3938955D01*
X4097104Y3939507D01*
X4097214Y3940041D01*
X4097306Y3940519D01*
X4097380Y3940942D01*
X4097417Y3941329D01*
X4097435Y3941476D01*
X4097454Y3941623D01*
Y3941752D01*
X4097472Y3941862D01*
Y3943647D01*
Y3942470D01*
X4097435Y3942874D01*
X4097343Y3943647D01*
X4097270Y3943997D01*
X4097196Y3944346D01*
X4097122Y3944659D01*
X4097049Y3944954D01*
X4096957Y3945230D01*
X4096883Y3945469D01*
X4096810Y3945671D01*
X4096736Y3945855D01*
X4096681Y3946002D01*
X4096644Y3946094D01*
X4096626Y3946168D01*
X4096607Y3946186D01*
X4096442Y3946536D01*
X4096239Y3946904D01*
X4095798Y3947603D01*
X4095301Y3948284D01*
X4095062Y3948597D01*
X4094822Y3948891D01*
X4094602Y3949149D01*
X4094399Y3949406D01*
X4094197Y3949627D01*
X4094031Y3949811D01*
X4093902Y3949958D01*
X4093792Y3950069D01*
X4093718Y3950142D01*
X4093700Y3950161D01*
X4093516Y3950345D01*
X4093258Y3950584D01*
X4092964Y3950860D01*
X4092614Y3951154D01*
X4092246Y3951486D01*
X4091860Y3951817D01*
X4091050Y3952516D01*
X4090646Y3952866D01*
X4090278Y3953178D01*
X4089928Y3953473D01*
X4089634Y3953730D01*
X4089376Y3953933D01*
X4089174Y3954098D01*
X4089100Y3954172D01*
X4089045Y3954209D01*
X4089026Y3954246D01*
X4089008D01*
X4088640Y3954558D01*
X4088272Y3954871D01*
X4087941Y3955166D01*
X4087610Y3955442D01*
X4087021Y3955957D01*
X4086506Y3956435D01*
X4086027Y3956858D01*
X4085622Y3957226D01*
X4085291Y3957558D01*
X4084997Y3957834D01*
X4084739Y3958091D01*
X4084537Y3958294D01*
X4084371Y3958459D01*
X4084261Y3958588D01*
X4084169Y3958680D01*
X4084095Y3958754D01*
X4084077Y3958790D01*
X4084058Y3958809D01*
X4083856Y3959103D01*
X4083727Y3959398D01*
X4083617Y3959692D01*
X4083543Y3959950D01*
X4083506Y3960170D01*
X4083488Y3960336D01*
X4083470Y3960446D01*
Y3960465D01*
Y3960483D01*
X4083488Y3960649D01*
X4083506Y3960814D01*
X4083598Y3961109D01*
X4083727Y3961385D01*
X4083893Y3961624D01*
X4084040Y3961808D01*
X4084169Y3961955D01*
X4084261Y3962047D01*
X4084298Y3962084D01*
X4084629Y3962323D01*
X4084997Y3962507D01*
X4085365Y3962636D01*
X4085714Y3962710D01*
X4086027Y3962765D01*
X4086156Y3962783D01*
X4086266D01*
X4086358Y3962802D01*
X4086487D01*
X4086745Y3962783D01*
X4087002Y3962765D01*
X4087242Y3962710D01*
X4087499Y3962636D01*
X4087996Y3962470D01*
X4088474Y3962231D01*
X4088934Y3961955D01*
X4089376Y3961642D01*
X4089799Y3961311D01*
X4090186Y3960980D01*
X4090535Y3960630D01*
X4090866Y3960299D01*
X4091142Y3959986D01*
X4091382Y3959710D01*
X4091584Y3959471D01*
X4091731Y3959306D01*
X4091768Y3959232D01*
X4091805Y3959177D01*
X4091842Y3959158D01*
Y3959140D01*
X4096828Y3963556D01*
X4096313Y3964145D01*
X4095798Y3964678D01*
X4095301Y3965175D01*
X4094841Y3965635D01*
X4094381Y3966040D01*
X4093958Y3966408D01*
X4093553Y3966739D01*
X4093185Y3967015D01*
X4092835Y3967273D01*
X4092522Y3967475D01*
X4092265Y3967659D01*
X4092044Y3967806D01*
X4091860Y3967917D01*
X4091731Y3967990D01*
X4091658Y3968027D01*
X4091621Y3968046D01*
X4091179Y3968266D01*
X4090719Y3968450D01*
X4090259Y3968616D01*
X4089818Y3968763D01*
X4089394Y3968874D01*
X4088971Y3968984D01*
X4088585Y3969058D01*
X4088198Y3969131D01*
X4087849Y3969168D01*
X4087536Y3969205D01*
X4087260Y3969242D01*
X4087039Y3969260D01*
X4086837Y3969278D01*
D02*
G37*
G36*
X4120049Y3968377D02*
X4100434D01*
Y3961716D01*
X4106727D01*
Y3932883D01*
X4100434D01*
X4113590D01*
Y3961716D01*
X4120049D01*
Y3935275D01*
Y3968377D01*
D02*
G37*
G36*
X4057728D02*
X4050000D01*
Y3932883D01*
X4060086D01*
X4056753D01*
Y3947916D01*
X4057378D01*
X4065382Y3932883D01*
X4072761D01*
X4064370Y3948670D01*
X4064978Y3948910D01*
X4065548Y3949167D01*
X4066082Y3949443D01*
X4066578Y3949738D01*
X4067038Y3950032D01*
X4067443Y3950326D01*
X4067811Y3950621D01*
X4068161Y3950897D01*
X4068455Y3951173D01*
X4068713Y3951412D01*
X4068915Y3951633D01*
X4069099Y3951835D01*
X4069228Y3952001D01*
X4069338Y3952111D01*
X4069394Y3952203D01*
X4069412Y3952222D01*
X4069706Y3952682D01*
X4069964Y3953142D01*
X4070203Y3953638D01*
X4070387Y3954135D01*
X4070553Y3954632D01*
X4070700Y3955110D01*
X4070810Y3955589D01*
X4070902Y3956030D01*
X4070958Y3956454D01*
X4071013Y3956840D01*
X4071050Y3957190D01*
X4071086Y3957484D01*
Y3957742D01*
X4071105Y3957926D01*
Y3957981D01*
Y3958036D01*
Y3958054D01*
Y3958073D01*
X4071086Y3958680D01*
X4071031Y3959269D01*
X4070958Y3959839D01*
X4070866Y3960373D01*
X4070755Y3960888D01*
X4070626Y3961366D01*
X4070479Y3961808D01*
X4070350Y3962194D01*
X4070203Y3962562D01*
X4070056Y3962894D01*
X4069927Y3963170D01*
X4069817Y3963409D01*
X4069725Y3963593D01*
X4069651Y3963722D01*
X4069596Y3963814D01*
X4069578Y3963832D01*
X4069283Y3964274D01*
X4068970Y3964678D01*
X4068639Y3965065D01*
X4068308Y3965414D01*
X4067958Y3965727D01*
X4067627Y3966022D01*
X4067296Y3966279D01*
X4066983Y3966500D01*
X4066689Y3966702D01*
X4066413Y3966868D01*
X4066174Y3967015D01*
X4065971Y3967126D01*
X4065787Y3967218D01*
X4065658Y3967273D01*
X4065585Y3967310D01*
X4065548Y3967328D01*
X4065309Y3967420D01*
X4065051Y3967512D01*
X4064481Y3967678D01*
X4063855Y3967806D01*
X4063193Y3967935D01*
X4062512Y3968046D01*
X4061813Y3968119D01*
X4061114Y3968193D01*
X4060433Y3968248D01*
X4059770Y3968285D01*
X4059163Y3968322D01*
X4058611Y3968340D01*
X4058372Y3968358D01*
X4057930D01*
X4057728Y3968377D01*
D02*
G37*
%LPD*%
G36*
X4059550Y3961753D02*
X4059954Y3961734D01*
X4060341Y3961716D01*
X4060672Y3961679D01*
X4060985Y3961642D01*
X4061242Y3961606D01*
X4061482Y3961587D01*
X4061684Y3961550D01*
X4061868Y3961514D01*
X4062015Y3961477D01*
X4062126Y3961440D01*
X4062218Y3961422D01*
X4062273Y3961403D01*
X4062310Y3961385D01*
X4062328D01*
X4062696Y3961219D01*
X4063009Y3961035D01*
X4063285Y3960833D01*
X4063524Y3960630D01*
X4063708Y3960446D01*
X4063837Y3960299D01*
X4063929Y3960189D01*
X4063947Y3960170D01*
Y3960152D01*
X4064150Y3959821D01*
X4064297Y3959490D01*
X4064407Y3959140D01*
X4064481Y3958827D01*
X4064518Y3958551D01*
X4064536Y3958441D01*
X4064554Y3958349D01*
Y3958257D01*
Y3958202D01*
Y3958165D01*
Y3958146D01*
X4064536Y3957797D01*
X4064499Y3957466D01*
X4064444Y3957171D01*
X4064370Y3956895D01*
X4064260Y3956638D01*
X4064168Y3956398D01*
X4064058Y3956196D01*
X4063947Y3956012D01*
X4063818Y3955865D01*
X4063708Y3955718D01*
X4063616Y3955607D01*
X4063524Y3955515D01*
X4063432Y3955442D01*
X4063377Y3955386D01*
X4063340Y3955368D01*
X4063322Y3955350D01*
X4063064Y3955202D01*
X4062788Y3955074D01*
X4062457Y3954963D01*
X4062126Y3954853D01*
X4061390Y3954706D01*
X4060654Y3954614D01*
X4060304Y3954577D01*
X4059973Y3954540D01*
X4059678Y3954522D01*
X4059402D01*
X4059200Y3954503D01*
X4056753D01*
Y3961771D01*
X4059108D01*
X4059550Y3961753D01*
D02*
G37*
%LPC*%
G36*
X3310844Y3500568D02*
X3298000D01*
Y3441478D01*
X3309227D01*
Y3466519D01*
X3310797D01*
X3312183Y3466565D01*
X3313523Y3466611D01*
X3314724Y3466657D01*
X3315787Y3466704D01*
X3316757Y3466796D01*
X3317589Y3466888D01*
X3318374Y3466981D01*
X3319021Y3467027D01*
X3319575Y3467119D01*
X3320037Y3467212D01*
X3320407Y3467258D01*
X3320684Y3467304D01*
X3320915Y3467350D01*
X3321008Y3467397D01*
X3321054D01*
X3322070Y3467720D01*
X3323040Y3468090D01*
X3323918Y3468505D01*
X3324750Y3468967D01*
X3325535Y3469429D01*
X3326274Y3469938D01*
X3326921Y3470400D01*
X3327522Y3470862D01*
X3328076Y3471324D01*
X3328538Y3471739D01*
X3328908Y3472109D01*
X3329231Y3472479D01*
X3329508Y3472756D01*
X3329693Y3472941D01*
X3329786Y3473079D01*
X3329832Y3473125D01*
X3330432Y3473911D01*
X3330894Y3474742D01*
X3331356Y3475620D01*
X3331726Y3476452D01*
X3332049Y3477330D01*
X3332327Y3478161D01*
X3332511Y3478993D01*
X3332696Y3479778D01*
X3332835Y3480517D01*
X3332927Y3481210D01*
X3333020Y3481811D01*
X3333066Y3482365D01*
X3333112Y3482781D01*
Y3466796D01*
Y3483382D01*
X3333066Y3484398D01*
X3333020Y3485415D01*
X3332881Y3486339D01*
X3332742Y3487216D01*
X3332558Y3488094D01*
X3332327Y3488880D01*
X3332096Y3489573D01*
X3331865Y3490266D01*
X3331634Y3490866D01*
X3331403Y3491374D01*
X3331218Y3491836D01*
X3330987Y3492252D01*
X3330848Y3492529D01*
X3330710Y3492760D01*
X3330663Y3492899D01*
X3330617Y3492945D01*
X3330155Y3493684D01*
X3329647Y3494331D01*
X3329093Y3494978D01*
X3328538Y3495532D01*
X3327984Y3496087D01*
X3327429Y3496549D01*
X3326875Y3496965D01*
X3326321Y3497380D01*
X3325812Y3497704D01*
X3325350Y3497981D01*
X3324935Y3498212D01*
X3324565Y3498443D01*
X3324288Y3498582D01*
X3324057Y3498674D01*
X3323918Y3498766D01*
X3323872D01*
X3322994Y3499090D01*
X3322024Y3499367D01*
X3321008Y3499598D01*
X3319899Y3499829D01*
X3317589Y3500152D01*
X3316434Y3500245D01*
X3315279Y3500337D01*
X3314216Y3500430D01*
X3313200Y3500476D01*
X3312276Y3500522D01*
X3311490D01*
X3310844Y3500568D01*
D02*
G37*
G36*
X3391509D02*
X3380236D01*
Y3461668D01*
X3354965Y3500568D01*
X3344154D01*
Y3441478D01*
X3355427D01*
Y3480240D01*
X3380559Y3441478D01*
X3391509D01*
Y3500568D01*
D02*
G37*
G36*
X3440435D02*
X3400148D01*
X3411929D01*
X3404814Y3467720D01*
X3413962Y3465687D01*
X3414609Y3466334D01*
X3415256Y3466888D01*
X3415810Y3467397D01*
X3416364Y3467766D01*
X3416826Y3468090D01*
X3417150Y3468274D01*
X3417381Y3468413D01*
X3417473Y3468459D01*
X3418166Y3468783D01*
X3418813Y3469014D01*
X3419414Y3469152D01*
X3419968Y3469291D01*
X3420430Y3469337D01*
X3420800Y3469383D01*
X3421123D01*
X3421770Y3469337D01*
X3422370Y3469291D01*
X3422925Y3469152D01*
X3423479Y3468967D01*
X3424496Y3468552D01*
X3425327Y3468090D01*
X3426020Y3467581D01*
X3426297Y3467350D01*
X3426575Y3467166D01*
X3426759Y3466981D01*
X3426898Y3466842D01*
X3426944Y3466796D01*
X3426990Y3466750D01*
X3427406Y3466242D01*
X3427822Y3465687D01*
X3428145Y3465133D01*
X3428423Y3464578D01*
X3428838Y3463470D01*
X3429116Y3462407D01*
X3429254Y3461899D01*
X3429300Y3461437D01*
X3429347Y3461021D01*
X3429393Y3460698D01*
X3429439Y3460420D01*
Y3460189D01*
Y3460051D01*
Y3460005D01*
X3429393Y3459219D01*
X3429347Y3458526D01*
X3429208Y3457787D01*
X3429023Y3457140D01*
X3428607Y3455985D01*
X3428376Y3455477D01*
X3428145Y3454969D01*
X3427868Y3454553D01*
X3427637Y3454183D01*
X3427406Y3453860D01*
X3427221Y3453629D01*
X3427037Y3453398D01*
X3426898Y3453259D01*
X3426852Y3453167D01*
X3426806Y3453121D01*
X3426297Y3452659D01*
X3425789Y3452243D01*
X3425281Y3451873D01*
X3424727Y3451596D01*
X3424172Y3451319D01*
X3423664Y3451088D01*
X3422694Y3450765D01*
X3421816Y3450580D01*
X3421446Y3450534D01*
X3421123Y3450487D01*
X3420846Y3450441D01*
X3420476D01*
X3419506Y3450487D01*
X3418582Y3450672D01*
X3417750Y3450903D01*
X3417011Y3451134D01*
X3416411Y3451411D01*
X3415949Y3451596D01*
X3415764Y3451689D01*
X3415625Y3451781D01*
X3415579Y3451827D01*
X3415533D01*
X3414747Y3452428D01*
X3414054Y3453075D01*
X3413454Y3453814D01*
X3412946Y3454507D01*
X3412530Y3455107D01*
X3412206Y3455616D01*
X3412114Y3455800D01*
X3412022Y3455939D01*
X3411975Y3456031D01*
Y3456078D01*
X3400148D01*
X3400518Y3454692D01*
X3400934Y3453444D01*
X3401442Y3452197D01*
X3401950Y3451088D01*
X3402504Y3450025D01*
X3403105Y3449055D01*
X3403706Y3448177D01*
X3404306Y3447392D01*
X3404861Y3446653D01*
X3405415Y3446052D01*
X3405923Y3445544D01*
X3406339Y3445082D01*
X3406709Y3444759D01*
X3406986Y3444481D01*
X3407171Y3444343D01*
X3407217Y3444297D01*
X3408279Y3443557D01*
X3409342Y3442864D01*
X3410451Y3442310D01*
X3411560Y3441802D01*
X3412622Y3441386D01*
X3413731Y3441063D01*
X3414747Y3440785D01*
X3415764Y3440554D01*
X3416688Y3440370D01*
X3417519Y3440231D01*
X3418305Y3440139D01*
X3418952Y3440046D01*
X3419460D01*
X3419876Y3440000D01*
X3420199D01*
X3421770Y3440046D01*
X3423248Y3440277D01*
X3424680Y3440554D01*
X3426020Y3440924D01*
X3427268Y3441386D01*
X3428469Y3441894D01*
X3429531Y3442402D01*
X3430548Y3442957D01*
X3431426Y3443511D01*
X3432211Y3444066D01*
X3432904Y3444528D01*
X3433458Y3444990D01*
X3433920Y3445359D01*
X3434244Y3445683D01*
X3434475Y3445867D01*
X3434521Y3445914D01*
X3435584Y3447069D01*
X3436461Y3448224D01*
X3437247Y3449471D01*
X3437940Y3450672D01*
X3438494Y3451920D01*
X3439002Y3453121D01*
X3439372Y3454276D01*
X3439695Y3455431D01*
X3439926Y3456447D01*
X3440111Y3457417D01*
X3440250Y3458295D01*
X3440342Y3459034D01*
X3440388Y3459635D01*
X3440435Y3460097D01*
Y3460467D01*
X3440388Y3462037D01*
X3440204Y3463516D01*
X3439926Y3464948D01*
X3439603Y3466288D01*
X3439187Y3467535D01*
X3438725Y3468690D01*
X3438263Y3469753D01*
X3437755Y3470677D01*
X3437247Y3471555D01*
X3436785Y3472340D01*
X3436323Y3472987D01*
X3435907Y3473541D01*
X3435584Y3473957D01*
X3435306Y3474280D01*
X3435122Y3474465D01*
X3435075Y3474511D01*
X3434059Y3475482D01*
X3432996Y3476313D01*
X3431888Y3477052D01*
X3430779Y3477699D01*
X3429624Y3478207D01*
X3428515Y3478669D01*
X3427452Y3479039D01*
X3426436Y3479316D01*
X3425466Y3479547D01*
X3424588Y3479732D01*
X3423803Y3479824D01*
X3423110Y3479917D01*
X3422555Y3479963D01*
X3422139Y3480009D01*
X3421770D01*
X3421077Y3479963D01*
X3420476Y3479917D01*
X3420245Y3479871D01*
X3420060D01*
X3419922Y3479824D01*
X3419876D01*
X3419183Y3479686D01*
X3418582Y3479547D01*
X3418305Y3479501D01*
X3418120Y3479455D01*
X3417981Y3479409D01*
X3417935D01*
X3420338Y3490173D01*
X3439649D01*
Y3500568D01*
X3440435D01*
D02*
G37*
G36*
X3467600Y3502047D02*
X3446718D01*
X3467277D01*
X3465798Y3502000D01*
X3464366Y3501816D01*
X3463026Y3501538D01*
X3461733Y3501169D01*
X3460532Y3500753D01*
X3459423Y3500291D01*
X3458406Y3499783D01*
X3457482Y3499275D01*
X3456605Y3498720D01*
X3455865Y3498212D01*
X3455265Y3497750D01*
X3454710Y3497334D01*
X3454295Y3496965D01*
X3453971Y3496687D01*
X3453786Y3496503D01*
X3453740Y3496456D01*
X3453047Y3495671D01*
X3452447Y3494886D01*
X3451892Y3494008D01*
X3451384Y3493130D01*
X3450968Y3492252D01*
X3450599Y3491374D01*
X3450229Y3490543D01*
X3449952Y3489711D01*
X3449721Y3488972D01*
X3449536Y3488233D01*
X3449397Y3487586D01*
X3449259Y3487032D01*
X3449166Y3486616D01*
X3449120Y3486246D01*
X3449074Y3486061D01*
Y3485969D01*
X3459885D01*
X3460208Y3486801D01*
X3460578Y3487540D01*
X3461040Y3488187D01*
X3461456Y3488741D01*
X3461871Y3489157D01*
X3462195Y3489480D01*
X3462426Y3489711D01*
X3462518Y3489757D01*
X3463257Y3490266D01*
X3464043Y3490635D01*
X3464782Y3490866D01*
X3465475Y3491051D01*
X3466029Y3491143D01*
X3466491Y3491236D01*
X3466907D01*
X3467877Y3491190D01*
X3468755Y3491005D01*
X3469541Y3490728D01*
X3470187Y3490450D01*
X3470649Y3490127D01*
X3471019Y3489896D01*
X3471250Y3489711D01*
X3471342Y3489619D01*
X3471897Y3489018D01*
X3472313Y3488325D01*
X3472636Y3487678D01*
X3472821Y3487032D01*
X3472959Y3486477D01*
X3473006Y3486061D01*
X3473052Y3485877D01*
Y3485738D01*
Y3485692D01*
Y3485646D01*
X3473006Y3484953D01*
X3472867Y3484306D01*
X3472682Y3483705D01*
X3472497Y3483197D01*
X3472313Y3482781D01*
X3472128Y3482412D01*
X3471989Y3482227D01*
X3471943Y3482134D01*
X3471481Y3481580D01*
X3470973Y3481072D01*
X3470465Y3480610D01*
X3470003Y3480240D01*
X3469541Y3479963D01*
X3469171Y3479732D01*
X3468940Y3479593D01*
X3468894Y3479547D01*
X3468848D01*
X3468432Y3479362D01*
X3468016Y3479224D01*
X3467092Y3478993D01*
X3466076Y3478762D01*
X3465105Y3478623D01*
X3464228Y3478485D01*
X3463858Y3478438D01*
X3463488Y3478392D01*
X3463211D01*
X3463026Y3478346D01*
X3462842D01*
Y3468690D01*
X3464043Y3468644D01*
X3465152Y3468552D01*
X3466214Y3468413D01*
X3467184Y3468228D01*
X3468062Y3467997D01*
X3468894Y3467766D01*
X3469633Y3467489D01*
X3470326Y3467212D01*
X3470927Y3466981D01*
X3471435Y3466704D01*
X3471851Y3466473D01*
X3472220Y3466242D01*
X3472497Y3466103D01*
X3472728Y3465964D01*
X3472821Y3465872D01*
X3472867Y3465826D01*
X3473468Y3465271D01*
X3474022Y3464717D01*
X3474484Y3464163D01*
X3474900Y3463608D01*
X3475223Y3463008D01*
X3475500Y3462453D01*
X3475778Y3461899D01*
X3475962Y3461391D01*
X3476101Y3460882D01*
X3476193Y3460420D01*
X3476286Y3460005D01*
X3476332Y3459681D01*
X3476378Y3459404D01*
Y3459173D01*
Y3459034D01*
Y3458988D01*
X3476332Y3458341D01*
X3476286Y3457695D01*
X3475962Y3456493D01*
X3475547Y3455431D01*
X3475085Y3454507D01*
X3474854Y3454137D01*
X3474623Y3453814D01*
X3474392Y3453490D01*
X3474207Y3453259D01*
X3474022Y3453075D01*
X3473883Y3452936D01*
X3473837Y3452844D01*
X3473791Y3452797D01*
X3473283Y3452382D01*
X3472775Y3451966D01*
X3472220Y3451642D01*
X3471666Y3451365D01*
X3470557Y3450903D01*
X3469541Y3450626D01*
X3468617Y3450441D01*
X3468247Y3450395D01*
X3467877Y3450349D01*
X3467600Y3450303D01*
X3467231D01*
X3466538Y3450349D01*
X3465891Y3450395D01*
X3464690Y3450672D01*
X3463627Y3450996D01*
X3462703Y3451411D01*
X3462333Y3451642D01*
X3461964Y3451827D01*
X3461687Y3452012D01*
X3461456Y3452197D01*
X3461271Y3452335D01*
X3461132Y3452428D01*
X3461040Y3452474D01*
X3460994Y3452520D01*
X3460578Y3452982D01*
X3460162Y3453444D01*
X3459469Y3454507D01*
X3458915Y3455662D01*
X3458499Y3456771D01*
X3458360Y3457279D01*
X3458222Y3457787D01*
X3458083Y3458203D01*
X3457991Y3458619D01*
X3457944Y3458896D01*
X3457898Y3459173D01*
X3457852Y3459312D01*
Y3459358D01*
X3446718D01*
X3446856Y3457741D01*
X3447134Y3456170D01*
X3447457Y3454738D01*
X3447873Y3453352D01*
X3448335Y3452104D01*
X3448797Y3450949D01*
X3449351Y3449887D01*
X3449859Y3448917D01*
X3450414Y3448039D01*
X3450876Y3447300D01*
X3451384Y3446653D01*
X3451800Y3446145D01*
X3452123Y3445729D01*
X3452400Y3445405D01*
X3452585Y3445221D01*
X3452631Y3445174D01*
X3453694Y3444250D01*
X3454803Y3443465D01*
X3455912Y3442772D01*
X3457113Y3442171D01*
X3458268Y3441663D01*
X3459423Y3441247D01*
X3460578Y3440924D01*
X3461640Y3440647D01*
X3462703Y3440416D01*
X3463627Y3440277D01*
X3464459Y3440139D01*
X3465198Y3440092D01*
X3465798Y3440046D01*
X3466260Y3440000D01*
X3446718D01*
X3466630D01*
X3468293Y3440046D01*
X3469910Y3440231D01*
X3471389Y3440508D01*
X3472821Y3440878D01*
X3474114Y3441294D01*
X3475362Y3441756D01*
X3476517Y3442218D01*
X3477533Y3442772D01*
X3478457Y3443280D01*
X3479243Y3443742D01*
X3479982Y3444204D01*
X3480536Y3444620D01*
X3480998Y3444990D01*
X3481322Y3445267D01*
X3481553Y3445452D01*
X3481599Y3445498D01*
X3482615Y3446560D01*
X3483539Y3447669D01*
X3484325Y3448824D01*
X3484971Y3449933D01*
X3485572Y3451088D01*
X3486034Y3452197D01*
X3486404Y3453306D01*
X3486727Y3454322D01*
X3486958Y3455292D01*
X3487143Y3456170D01*
X3487281Y3456955D01*
X3487374Y3457648D01*
X3487420Y3458203D01*
X3487466Y3458619D01*
Y3442957D01*
Y3458988D01*
X3487420Y3460005D01*
X3487328Y3460929D01*
X3487189Y3461853D01*
X3487004Y3462730D01*
X3486773Y3463562D01*
X3486496Y3464347D01*
X3486219Y3465087D01*
X3485942Y3465733D01*
X3485664Y3466334D01*
X3485387Y3466842D01*
X3485110Y3467304D01*
X3484879Y3467720D01*
X3484694Y3467997D01*
X3484556Y3468228D01*
X3484463Y3468367D01*
X3484417Y3468413D01*
X3483816Y3469152D01*
X3483170Y3469799D01*
X3482523Y3470446D01*
X3481830Y3471000D01*
X3481137Y3471508D01*
X3480398Y3471970D01*
X3479751Y3472340D01*
X3479058Y3472710D01*
X3478457Y3473033D01*
X3477857Y3473310D01*
X3477348Y3473495D01*
X3476886Y3473680D01*
X3476517Y3473818D01*
X3476240Y3473911D01*
X3476055Y3474003D01*
X3476009D01*
X3477441Y3474835D01*
X3478688Y3475666D01*
X3479243Y3476128D01*
X3479751Y3476544D01*
X3480213Y3477006D01*
X3480675Y3477422D01*
X3481044Y3477792D01*
X3481368Y3478161D01*
X3481599Y3478438D01*
X3481830Y3478716D01*
X3482015Y3478947D01*
X3482153Y3479131D01*
X3482199Y3479224D01*
X3482246Y3479270D01*
X3482615Y3479871D01*
X3482985Y3480517D01*
X3483493Y3481765D01*
X3483909Y3482966D01*
X3484140Y3484075D01*
X3484232Y3484583D01*
X3484325Y3485045D01*
X3484371Y3485461D01*
Y3485830D01*
X3484417Y3486108D01*
Y3486292D01*
Y3486431D01*
Y3486477D01*
X3484371Y3487632D01*
X3484186Y3488787D01*
X3483955Y3489850D01*
X3483632Y3490866D01*
X3483262Y3491836D01*
X3482846Y3492714D01*
X3482430Y3493546D01*
X3481968Y3494331D01*
X3481506Y3495024D01*
X3481044Y3495625D01*
X3480629Y3496179D01*
X3480259Y3496595D01*
X3479936Y3496965D01*
X3479705Y3497196D01*
X3479520Y3497380D01*
X3479474Y3497427D01*
X3478550Y3498258D01*
X3477533Y3498951D01*
X3476517Y3499552D01*
X3475500Y3500106D01*
X3474484Y3500568D01*
X3473468Y3500938D01*
X3472497Y3501215D01*
X3471527Y3501492D01*
X3470649Y3501677D01*
X3469864Y3501816D01*
X3469125Y3501908D01*
X3468478Y3501954D01*
X3467970Y3502000D01*
X3467600Y3502047D01*
D02*
G37*
G36*
X3533019D02*
X3492086D01*
X3513985D01*
X3512368Y3502000D01*
X3510843Y3501816D01*
X3509411Y3501538D01*
X3508071Y3501169D01*
X3506778Y3500753D01*
X3505623Y3500291D01*
X3504514Y3499829D01*
X3503544Y3499321D01*
X3502666Y3498766D01*
X3501881Y3498304D01*
X3501234Y3497842D01*
X3500679Y3497427D01*
X3500217Y3497057D01*
X3499940Y3496780D01*
X3499709Y3496595D01*
X3499663Y3496549D01*
X3498693Y3495486D01*
X3497815Y3494331D01*
X3497076Y3493130D01*
X3496383Y3491883D01*
X3495828Y3490635D01*
X3495320Y3489388D01*
X3494951Y3488140D01*
X3494627Y3486939D01*
X3494350Y3485830D01*
X3494119Y3484814D01*
X3493980Y3483890D01*
X3493842Y3483058D01*
X3493796Y3482412D01*
X3493749Y3481903D01*
X3493703Y3481719D01*
Y3481580D01*
Y3481534D01*
Y3481488D01*
X3504653D01*
X3504699Y3482319D01*
X3504791Y3483151D01*
X3504930Y3483890D01*
X3505115Y3484583D01*
X3505299Y3485230D01*
X3505530Y3485830D01*
X3505761Y3486385D01*
X3505992Y3486893D01*
X3506223Y3487309D01*
X3506408Y3487678D01*
X3506639Y3488048D01*
X3506824Y3488279D01*
X3506963Y3488510D01*
X3507101Y3488649D01*
X3507147Y3488741D01*
X3507194Y3488787D01*
X3507656Y3489249D01*
X3508164Y3489711D01*
X3508626Y3490035D01*
X3509134Y3490358D01*
X3509642Y3490635D01*
X3510150Y3490866D01*
X3511121Y3491190D01*
X3511952Y3491374D01*
X3512322Y3491421D01*
X3512645Y3491467D01*
X3512876Y3491513D01*
X3513246D01*
X3513893Y3491467D01*
X3514539Y3491421D01*
X3515648Y3491143D01*
X3516665Y3490820D01*
X3517496Y3490404D01*
X3518143Y3489988D01*
X3518420Y3489757D01*
X3518651Y3489619D01*
X3518836Y3489480D01*
X3518975Y3489342D01*
X3519021Y3489295D01*
X3519067Y3489249D01*
X3519483Y3488833D01*
X3519852Y3488371D01*
X3520130Y3487909D01*
X3520407Y3487447D01*
X3520823Y3486477D01*
X3521100Y3485599D01*
X3521238Y3484814D01*
X3521331Y3484491D01*
Y3484167D01*
X3521377Y3483936D01*
Y3483751D01*
Y3483659D01*
Y3483613D01*
X3521331Y3483012D01*
X3521285Y3482365D01*
X3521054Y3481072D01*
X3520684Y3479824D01*
X3520268Y3478669D01*
X3520083Y3478161D01*
X3519852Y3477699D01*
X3519668Y3477283D01*
X3519529Y3476914D01*
X3519344Y3476637D01*
X3519252Y3476406D01*
X3519206Y3476267D01*
X3519159Y3476221D01*
X3518697Y3475435D01*
X3518143Y3474604D01*
X3517542Y3473726D01*
X3516849Y3472848D01*
X3515417Y3471046D01*
X3514678Y3470169D01*
X3513939Y3469337D01*
X3513246Y3468505D01*
X3512553Y3467812D01*
X3511952Y3467119D01*
X3511398Y3466565D01*
X3510982Y3466103D01*
X3510612Y3465733D01*
X3510428Y3465549D01*
X3510335Y3465456D01*
X3492086Y3446838D01*
Y3441478D01*
X3533019D01*
Y3451920D01*
Y3451873D01*
X3511906D01*
X3518559Y3458850D01*
X3519991Y3460374D01*
X3521331Y3461853D01*
X3522532Y3463239D01*
X3523641Y3464578D01*
X3524657Y3465826D01*
X3525535Y3467027D01*
X3526367Y3468090D01*
X3527060Y3469106D01*
X3527660Y3470030D01*
X3528168Y3470815D01*
X3528630Y3471508D01*
X3528954Y3472109D01*
X3529231Y3472571D01*
X3529416Y3472894D01*
X3529508Y3473125D01*
X3529554Y3473172D01*
X3530063Y3474327D01*
X3530525Y3475389D01*
X3530940Y3476498D01*
X3531310Y3477514D01*
X3531587Y3478485D01*
X3531818Y3479455D01*
X3532003Y3480286D01*
X3532188Y3481118D01*
X3532326Y3481857D01*
X3532419Y3482504D01*
X3532465Y3483105D01*
X3532511Y3483567D01*
X3532557Y3483982D01*
Y3484260D01*
Y3484444D01*
Y3484491D01*
X3532511Y3485322D01*
X3532465Y3486154D01*
X3532188Y3487725D01*
X3531772Y3489203D01*
X3531541Y3489850D01*
X3531310Y3490497D01*
X3531079Y3491097D01*
X3530848Y3491605D01*
X3530663Y3492067D01*
X3530432Y3492437D01*
X3530294Y3492760D01*
X3530155Y3492991D01*
X3530109Y3493130D01*
X3530063Y3493176D01*
X3529601Y3493962D01*
X3529092Y3494701D01*
X3528538Y3495394D01*
X3527984Y3495994D01*
X3527429Y3496595D01*
X3526875Y3497149D01*
X3526367Y3497611D01*
X3525858Y3498073D01*
X3525350Y3498443D01*
X3524888Y3498813D01*
X3524519Y3499090D01*
X3524149Y3499321D01*
X3523872Y3499506D01*
X3523641Y3499644D01*
X3523502Y3499690D01*
X3523456Y3499737D01*
X3522671Y3500152D01*
X3521885Y3500522D01*
X3521054Y3500799D01*
X3520222Y3501076D01*
X3518651Y3501492D01*
X3517912Y3501631D01*
X3517173Y3501769D01*
X3516526Y3501862D01*
X3515879Y3501908D01*
X3515371Y3502000D01*
X3514909D01*
X3514493Y3502047D01*
X3533019D01*
D02*
G37*
%LPD*%
G36*
X3314170Y3489573D02*
X3314955Y3489526D01*
X3315695Y3489434D01*
X3316341Y3489342D01*
X3316942Y3489249D01*
X3317450Y3489111D01*
X3317912Y3489018D01*
X3318282Y3488926D01*
X3318651Y3488787D01*
X3318929Y3488695D01*
X3319160Y3488602D01*
X3319298Y3488510D01*
X3319437Y3488464D01*
X3319529Y3488418D01*
X3319991Y3488094D01*
X3320407Y3487771D01*
X3320777Y3487355D01*
X3321100Y3486985D01*
X3321331Y3486570D01*
X3321562Y3486154D01*
X3321885Y3485322D01*
X3322070Y3484583D01*
X3322116Y3484260D01*
X3322163Y3483982D01*
X3322209Y3483751D01*
Y3483567D01*
Y3483474D01*
Y3483428D01*
X3322163Y3482735D01*
X3322070Y3482042D01*
X3321885Y3481488D01*
X3321747Y3480979D01*
X3321562Y3480610D01*
X3321377Y3480286D01*
X3321285Y3480102D01*
X3321239Y3480055D01*
X3320869Y3479593D01*
X3320453Y3479178D01*
X3320037Y3478808D01*
X3319622Y3478531D01*
X3319206Y3478346D01*
X3318929Y3478207D01*
X3318744Y3478115D01*
X3318651Y3478069D01*
X3318328Y3477976D01*
X3317912Y3477884D01*
X3317034Y3477745D01*
X3316064Y3477607D01*
X3315094Y3477561D01*
X3314216Y3477514D01*
X3313800Y3477468D01*
X3309227D01*
Y3489619D01*
X3313292D01*
X3314170Y3489573D01*
D02*
G37*
D10*
X3988543Y1694630D02*
X3981161Y1698892D01*
Y1690368D01*
X3988543Y1694630D01*
X3602339Y3127551D02*
X3594957Y3131813D01*
Y3123289D01*
X3602339Y3127551D01*
X3892518Y3354092D02*
X3896762Y3348102D01*
X3902236Y3352992D01*
X3496677Y1978866D02*
X3489295Y1983128D01*
Y1974604D01*
X3496677Y1978866D01*
X3391866Y1353686D02*
X3386134D01*
X3319984Y1648079D02*
X3312602Y1652341D01*
Y1643817D01*
X3319984Y1648079D01*
X3264394Y3940543D02*
X3257012Y3944805D01*
Y3936281D01*
X3264394Y3940543D01*
D11*
X3353795Y4417661D02*
X3345921D01*
X3353795D01*
X4060394Y1858016D02*
X4123386D01*
X4060394D02*
Y1889512D01*
X4217874D01*
X4060394Y1609984D02*
X4123386D01*
Y1659197D01*
Y1808803D02*
Y1858016D01*
X4060394Y1578488D02*
X4217874D01*
X4060394D02*
Y1609984D01*
X3957913Y1430916D02*
X4072087D01*
X3274709Y1646110D02*
Y1909890D01*
X4097299Y1400000D02*
X4134701D01*
X3957913Y1435084D02*
X4072087D01*
X3113291Y1646110D02*
Y1909890D01*
X3301740Y1574559D02*
X3325485D01*
X3215520Y1547000D02*
Y1574559D01*
X3244260D01*
X3113291Y1646110D02*
X3274709D01*
X3113291Y1909890D02*
X3274709D01*
X3330480Y1547000D02*
Y1569538D01*
X3771610Y3102611D02*
X3868390D01*
X3771610Y3033389D02*
X3868390D01*
X3565921Y3166921D02*
Y3177945D01*
X3877391Y3346535D02*
X3956609D01*
X3965228Y3247677D02*
Y3332323D01*
X3868772Y3247677D02*
Y3332323D01*
X3565921Y3396055D02*
Y3407079D01*
X3806079Y3396055D02*
Y3407079D01*
X3795055Y3166921D02*
X3806079D01*
X3565921D02*
X3576945D01*
X3795055Y3407079D02*
X3806079D01*
X3565921D02*
X3576945D01*
X3806079Y3166921D02*
Y3177945D01*
X3864921Y1352701D02*
Y1407386D01*
Y1515654D02*
Y1562110D01*
X3505079Y1352701D02*
Y1407386D01*
Y1515653D02*
Y1562110D01*
X3354535Y1690391D02*
Y1769609D01*
X3421465Y1690391D02*
Y1769609D01*
X3878076Y3524465D02*
X3957294D01*
X3250391Y4307465D02*
X3329609D01*
X3424433Y1436299D02*
Y1473701D01*
X3878391Y3176465D02*
X3957609D01*
X3947861Y3109535D02*
X3957609D01*
X3878391D02*
X3890139D01*
X3250391Y4308535D02*
X3329609D01*
X3250391Y4375465D02*
X3329609D01*
X3353567Y1436299D02*
Y1473701D01*
X4010197Y4017984D02*
Y4258300D01*
X4143071Y4266016D02*
X4159803D01*
X3590000Y1677299D02*
Y1714701D01*
X3237819Y3977945D02*
Y4096055D01*
X3340181Y3977945D02*
Y4096055D01*
X3780000Y1677299D02*
Y1714701D01*
X4159803Y4252499D02*
Y4266016D01*
Y4017984D02*
Y4219501D01*
X3685535Y2844551D02*
Y2913449D01*
X3752583Y2844761D02*
Y2913659D01*
X3884535Y2865551D02*
Y2934449D01*
X3685449Y3030567D02*
Y3101433D01*
X3685551Y3030567D02*
Y3101433D01*
X3754449Y3030567D02*
Y3101433D01*
X3951583Y2865761D02*
Y2934659D01*
X3498610Y3101611D02*
X3595390D01*
X3877391Y3178535D02*
X3956609D01*
X3883328Y3026879D02*
Y3102209D01*
Y2987791D02*
Y2997121D01*
X3954672Y2987791D02*
Y3102209D01*
X3498610Y3032389D02*
X3595390D01*
X4143071Y4017984D02*
X4159803D01*
X4010197D02*
X4026929D01*
X3535063Y1967055D02*
X3566559D01*
X3685465Y2844551D02*
Y2913449D01*
X3618417Y2844341D02*
Y2913239D01*
X3616551Y3030567D02*
Y3101433D01*
X3566559Y1935559D02*
Y1967055D01*
X3535063Y1848945D02*
X3566559D01*
Y1880441D01*
D12*
X3537000Y3437000D02*
X3564921Y3409079D01*
X3722995Y2044630D02*
Y2023303D01*
X3947995Y2052504D02*
Y2031178D01*
X3958658Y2041841D02*
X3937332D01*
D13*
X3828839Y1711362D02*
X3873929D01*
X3771752D02*
X3788248D01*
X3659362Y1792071D02*
Y1925929D01*
X3954638Y1792071D02*
Y1925929D01*
X3740071Y2006638D02*
X3873929D01*
X3582044Y3879276D02*
X3985685D01*
X3546760D02*
X3565956D01*
X3379386D02*
X3535240D01*
M02*
