G04*
G04 #@! TF.GenerationSoftware,Altium Limited,Altium Designer,24.3.1 (35)*
G04*
G04 Layer_Color=0*
%FSLAX26Y26*%
%MOIN*%
G70*
G04*
G04 #@! TF.SameCoordinates,DB0C34DD-40E0-41A4-B204-7B3182439FE1*
G04*
G04*
G04 #@! TF.FilePolarity,Positive*
G04*
G01*
G75*
%ADD99C,0.003937*%
D99*
X3685000Y1474315D02*
Y1513685D01*
X3665315Y1494000D02*
X3704685D01*
X3918000Y3123315D02*
Y3162685D01*
X3898315Y3143000D02*
X3937685D01*
X3290000Y4322315D02*
Y4361685D01*
X3270315Y4342000D02*
X3309685D01*
X3290000Y4254315D02*
Y4293685D01*
X3270315Y4274000D02*
X3309685D01*
X3368315Y1730000D02*
X3407685D01*
X3388000Y1710315D02*
Y1749685D01*
X3917685Y3471315D02*
Y3510685D01*
X3898000Y3491000D02*
X3937370D01*
X3917000Y3415315D02*
Y3454685D01*
X3897315Y3435000D02*
X3936685D01*
X3253315Y1547000D02*
X3292685D01*
X3273000Y1527315D02*
Y1566685D01*
X3995315Y1433000D02*
X4034685D01*
X4015000Y1413315D02*
Y1452685D01*
X4096315Y1400000D02*
X4135685D01*
X4116000Y1380315D02*
Y1419685D01*
X3666315Y3287000D02*
X3705685D01*
X3686000Y3267315D02*
Y3306685D01*
X3820000Y3048315D02*
Y3087685D01*
X3800315Y3068000D02*
X3839685D01*
X3897315Y3290000D02*
X3936685D01*
X3917000Y3270315D02*
Y3309685D01*
Y3360315D02*
Y3399685D01*
X3897315Y3380000D02*
X3936685D01*
X3917000Y3192315D02*
Y3231685D01*
X3897315Y3212000D02*
X3936685D01*
X3547000Y3047315D02*
Y3086685D01*
X3527315Y3067000D02*
X3566685D01*
X3899315Y3045000D02*
X3938685D01*
X3919000Y3025315D02*
Y3064685D01*
X3898315Y2900000D02*
X3937685D01*
X3918000Y2880315D02*
Y2919685D01*
X3699315Y2879000D02*
X3738685D01*
X3719000Y2859315D02*
Y2898685D01*
X3700315Y3066000D02*
X3739685D01*
X3720000Y3046315D02*
Y3085685D01*
X3631315Y3066000D02*
X3670685D01*
X3651000Y3046315D02*
Y3085685D01*
X3632315Y2879000D02*
X3671685D01*
X3652000Y2859315D02*
Y2898685D01*
X4065315Y4142000D02*
X4104685D01*
X4085000Y4122315D02*
Y4161685D01*
X3269315Y4037000D02*
X3308685D01*
X3289000Y4017315D02*
Y4056685D01*
X3590000Y1676315D02*
Y1715685D01*
X3570315Y1696000D02*
X3609685D01*
X3780000Y1676315D02*
Y1715685D01*
X3760315Y1696000D02*
X3799685D01*
M02*
