G04*
G04 #@! TF.GenerationSoftware,Altium Limited,Altium Designer,24.3.1 (35)*
G04*
G04 Layer_Color=16711935*
%FSLAX26Y26*%
%MOIN*%
G70*
G04*
G04 #@! TF.SameCoordinates,DB0C34DD-40E0-41A4-B204-7B3182439FE1*
G04*
G04*
G04 #@! TF.FilePolarity,Positive*
G04*
G01*
G75*
%ADD11C,0.007874*%
%ADD12C,0.010000*%
%ADD13C,0.005000*%
%ADD99C,0.003937*%
D11*
X3353795Y4417661D02*
X3345921D01*
X3353795D01*
X3505079Y1343409D02*
Y1644591D01*
Y1343409D02*
X3864921D01*
Y1644591D01*
X3505079D02*
X3864921D01*
X3949496Y3127252D02*
Y3158748D01*
X3886504D02*
X3949496D01*
X3886504Y3127252D02*
Y3158748D01*
Y3127252D02*
X3949496D01*
X3258504Y4326252D02*
Y4357748D01*
Y4326252D02*
X3321496D01*
Y4357748D01*
X3258504D02*
X3321496D01*
X3258504Y4258252D02*
Y4289748D01*
Y4258252D02*
X3321496D01*
Y4289748D01*
X3258504D02*
X3321496D01*
X3372252Y1761496D02*
X3403748D01*
X3372252Y1698504D02*
Y1761496D01*
Y1698504D02*
X3403748D01*
Y1761496D01*
X3886189Y3475252D02*
Y3506748D01*
Y3475252D02*
X3949181D01*
Y3506748D01*
X3886189D02*
X3949181D01*
X3885504Y3419252D02*
Y3450748D01*
Y3419252D02*
X3948496D01*
Y3450748D01*
X3885504D02*
X3948496D01*
X3215520Y1519441D02*
X3330480D01*
Y1574559D01*
X3215520D02*
X3330480D01*
X3215520Y1519441D02*
Y1574559D01*
X3957913Y1464496D02*
X4072087D01*
X3957913Y1401504D02*
Y1464496D01*
Y1401504D02*
X4072087D01*
Y1464496D01*
X4097299Y1365551D02*
X4134701D01*
Y1434449D01*
X4097299D02*
X4134701D01*
X4097299Y1365551D02*
Y1434449D01*
X3565921Y3166921D02*
X3806079D01*
Y3407079D01*
X3565921D02*
X3806079D01*
X3565921Y3166921D02*
Y3407079D01*
X3851496Y3052252D02*
Y3083748D01*
X3788504D02*
X3851496D01*
X3788504Y3052252D02*
Y3083748D01*
Y3052252D02*
X3851496D01*
X3882551Y3332323D02*
X3951449D01*
X3882551Y3247677D02*
Y3332323D01*
Y3247677D02*
X3951449D01*
Y3332323D01*
X3948496Y3364252D02*
Y3395748D01*
X3885504D02*
X3948496D01*
X3885504Y3364252D02*
Y3395748D01*
Y3364252D02*
X3948496D01*
X3885504Y3196252D02*
Y3227748D01*
Y3196252D02*
X3948496D01*
Y3227748D01*
X3885504D02*
X3948496D01*
X3515504Y3051252D02*
Y3082748D01*
Y3051252D02*
X3578496D01*
Y3082748D01*
X3515504D02*
X3578496D01*
X3903252Y3076496D02*
X3934748D01*
X3903252Y3013504D02*
Y3076496D01*
Y3013504D02*
X3934748D01*
Y3076496D01*
X3899299Y2865551D02*
X3936701D01*
Y2934449D01*
X3899299D02*
X3936701D01*
X3899299Y2865551D02*
Y2934449D01*
X3700299Y2844551D02*
X3737701D01*
Y2913449D01*
X3700299D02*
X3737701D01*
X3700299Y2844551D02*
Y2913449D01*
X3700315Y3030567D02*
X3739685D01*
Y3101433D01*
X3700315D02*
X3739685D01*
X3700315Y3030567D02*
Y3101433D01*
X3631315Y3030567D02*
X3670685D01*
Y3101433D01*
X3631315D02*
X3670685D01*
X3631315Y3030567D02*
Y3101433D01*
X3633299Y2913449D02*
X3670701D01*
X3633299Y2844551D02*
Y2913449D01*
Y2844551D02*
X3670701D01*
Y2913449D01*
X4010197Y4017984D02*
X4159803D01*
Y4266016D01*
X4010197D02*
X4159803D01*
X4010197Y4017984D02*
Y4266016D01*
X3249630Y3977945D02*
X3328370D01*
Y4096055D01*
X3249630D02*
X3328370D01*
X3249630Y3977945D02*
Y4096055D01*
X3624449Y1677299D02*
Y1714701D01*
X3555551D02*
X3624449D01*
X3555551Y1677299D02*
Y1714701D01*
Y1677299D02*
X3624449D01*
X3745551D02*
Y1714701D01*
Y1677299D02*
X3814449D01*
Y1714701D01*
X3745551D02*
X3814449D01*
D12*
X3947995Y2052504D02*
Y2031178D01*
X3958658Y2041841D02*
X3937332D01*
X3722995Y2044630D02*
Y2023303D01*
D13*
X3659362Y2006638D02*
X3954638D01*
X3659362Y1711362D02*
Y2006638D01*
Y1711362D02*
X3954638D01*
Y2006638D01*
X3379386Y4487543D02*
X3985685D01*
X3379386D02*
Y4686362D01*
Y3879276D02*
Y4487543D01*
Y3879276D02*
X3985685D01*
Y4487543D01*
Y4686362D01*
X3379386D02*
X3985685D01*
D99*
X4060394Y1578488D02*
X4328110D01*
X4060394D02*
Y1609984D01*
X4328110Y1578488D02*
Y1598173D01*
Y1598173D02*
X4359606D01*
Y1598173D02*
Y1869827D01*
X4328110D02*
Y1889512D01*
Y1869827D02*
X4359606D01*
X4060394Y1609984D02*
X4123386D01*
Y1609984D02*
Y1858016D01*
X4060394Y1858016D02*
X4123386D01*
X4060394Y1889512D02*
X4328110D01*
X4060394Y1858016D02*
Y1889512D01*
X3121165Y1909890D02*
X3266835D01*
X3121165Y1646110D02*
X3266835D01*
X3121165D02*
Y1909890D01*
X3266835Y1646110D02*
Y1909890D01*
X3370299Y1664906D02*
X3407701D01*
X3370299Y1596008D02*
X3407701D01*
Y1664906D01*
X3370299Y1596008D02*
Y1664906D01*
X3964551Y1561701D02*
X4033449D01*
X3964551Y1524299D02*
X4033449D01*
X3964551D02*
Y1561701D01*
X4033449Y1524299D02*
Y1561701D01*
X3494299Y3222449D02*
X3531701D01*
X3494299Y3153551D02*
X3531701D01*
Y3222449D01*
X3494299Y3153551D02*
Y3222449D01*
X3847449Y2858299D02*
Y2895701D01*
X3778551Y2858299D02*
Y2895701D01*
Y2858299D02*
X3847449D01*
X3778551Y2895701D02*
X3847449D01*
X3707315Y2641567D02*
X3746685D01*
X3707315Y2712433D02*
X3746685D01*
X3707315Y2641567D02*
Y2712433D01*
X3746685Y2641567D02*
Y2712433D01*
X3718551Y2992701D02*
X3787449D01*
X3718551Y2955299D02*
X3787449D01*
X3718551D02*
Y2992701D01*
X3787449Y2955299D02*
Y2992701D01*
X3718551Y2794701D02*
X3787449D01*
X3718551Y2757299D02*
X3787449D01*
X3718551D02*
Y2794701D01*
X3787449Y2757299D02*
Y2794701D01*
X3584551Y2992701D02*
X3653449D01*
X3584551Y2955299D02*
X3653449D01*
X3584551D02*
Y2992701D01*
X3653449Y2955299D02*
Y2992701D01*
X3584551Y2794701D02*
X3653449D01*
X3584551Y2757299D02*
X3653449D01*
X3584551D02*
Y2794701D01*
X3653449Y2757299D02*
Y2794701D01*
X3624315Y2641567D02*
X3663685D01*
X3624315Y2712433D02*
X3663685D01*
X3624315Y2641567D02*
Y2712433D01*
X3663685Y2641567D02*
Y2712433D01*
X3396299Y1976449D02*
X3433701D01*
X3396299Y1907551D02*
X3433701D01*
Y1976449D01*
X3396299Y1907551D02*
Y1976449D01*
X3511441Y1848945D02*
X3566559D01*
X3511441Y1967055D02*
X3566559D01*
Y1848945D02*
Y1967055D01*
X3511441Y1848945D02*
Y1967055D01*
X4083449Y4314299D02*
Y4351701D01*
X4014551Y4314299D02*
Y4351701D01*
Y4314299D02*
X4083449D01*
X4014551Y4351701D02*
X4083449D01*
X3324449Y4152299D02*
Y4189701D01*
X3255551Y4152299D02*
Y4189701D01*
Y4152299D02*
X3324449D01*
X3255551Y4189701D02*
X3324449D01*
Y4204299D02*
Y4241701D01*
X3255551Y4204299D02*
Y4241701D01*
Y4204299D02*
X3324449D01*
X3255551Y4241701D02*
X3324449D01*
M02*
