M48
;Layer_Color=9474304
;FILE_FORMAT=2:5
INCH,LZ
;TYPE=PLATED
T01F00S00C0.01181
T02F00S00C0.12598
;TYPE=NON_PLATED
T03F00S00C0.02559
T04F00S00C0.03902
%
T01
X03267Y01442
X03912Y01537
X0370685Y0168071
X0367832Y0167833
X03341Y01585
X03387Y01868
X0363019Y021273
X03728Y02277
X03781Y0282
X03755Y02933
X03606Y02935
X03619Y02824
X03831Y03011
X03872Y03012
X03085Y02272
X03627Y03126
X03626Y03228
X03827Y03129
X03848Y03453
X0371358Y03969
X0368496
X03602Y03959
X03574Y03864
X03541Y03863
X03455Y03974
X03488Y04104
X03448Y04148
X03357Y0417
X03228Y04138
X03348Y04392
X0401Y04277
X04151Y04236
X0419Y04113
T02
X03114Y0145561
X0425573
X03114Y04369
X0425573
T03
X0357122Y0159656
X0379878
T04
X04216Y03979
X04296
X04256Y04179
M30
